<svg width="184" height="360" viewBox="0 0 184 360" fill="none" xmlns="http://www.w3.org/2000/svg">
<path d="M86.3471 134.022C89.8158 135.549 93.0902 133.272 78.4384 111.94M78.4384 111.94C78.5049 111.383 78.568 110.827 78.6276 110.274M78.4384 111.94C68.4485 139.854 46.0545 199.349 36.3976 214.014C24.3265 232.346 21.829 261.926 12.2553 273.175C4.71167 282.039 2.33679 287.281 1.46518 293.59M78.6276 110.274C81.554 83.134 76.3405 61.4037 75.5247 55.2792C74.6922 49.0298 74.2593 3.33437 115.484 1.11772C141.677 -0.29066 147.519 11.2503 149.2 19.0327C150.449 30.0039 139.194 68.3281 134.215 60.6953C127.888 47.6966 147.396 45.0024 157.941 45.2802C168.209 45.9745 187.412 53.446 182.084 77.777C176.756 102.108 146.841 109.024 132.55 109.441L73.0272 107.774C67.5993 107.774 65.5181 115.273 73.0272 115.273C80.3531 114.607 79.8133 111.663 78.6276 110.274ZM1.01668 299.006C0.600436 308.172 8.09286 323.17 10.1741 329.42C12.2553 335.669 15.169 357.75 14.3365 359M1.01668 299.006C1.10494 297.062 1.23063 295.287 1.46518 293.59M1.01668 299.006C2.95916 305.533 12.2386 317.471 24.1785 329.42C26.676 336.919 28.2082 347.334 24.7427 349.834C21.2772 352.334 26.4077 308.172 25.5752 304.839C24.9092 302.172 20.8577 304.283 18.9152 305.672C21.5792 304.005 21.5999 296.923 21.2772 293.59M4.14585 284.762C9.83455 281.568 27.2235 277.891 18.9152 286.09C11.9223 288.423 4.36815 292.062 1.46518 293.59M14.3199 287.765C16.6213 288.277 21.9554 290.447 21.2772 293.59M21.2772 293.59C16.6985 291.923 11.4228 296.089 8.09285 299.006M21.2772 293.59C18.6132 295.589 14.8915 301.367 13.504 303.589" stroke="white" stroke-opacity="0.15" stroke-width="2" stroke-linecap="round" stroke-linejoin="round"/>
</svg>
