<svg width="185" height="190" viewBox="0 0 185 190" fill="none" xmlns="http://www.w3.org/2000/svg">
<path d="M79.4871 69.3137L80.5689 28.7969M79.4871 69.3137L92.8891 71.9494M79.4871 69.3137L39.9513 87.6198M79.4871 69.3137L38.2833 64.5691M80.5689 28.7969L113.177 4.83903M80.5689 28.7969L116.874 11.7713M80.5689 28.7969L120.824 51.9668M80.5689 28.7969L92.8891 71.9494M113.177 4.83903L156.057 6.66726M113.177 4.83903L116.874 11.7713M156.057 6.66726L116.874 11.7713M156.057 6.66726L182.786 40.4097M116.874 11.7713L120.824 51.9668M116.874 11.7713L182.786 40.4097M120.824 51.9668L92.8891 71.9494M120.824 51.9668L182.786 40.4097M120.824 51.9668L167.712 83.2863M92.8891 71.9494L167.712 83.2863M92.8891 71.9494L166.376 150.447M92.8891 71.9494L118.299 138.002M92.8891 71.9494L31.4655 165.979M92.8891 71.9494L39.9513 87.6198M182.786 40.4097L167.712 83.2863M182.786 40.4097L180.16 138.743M167.712 83.2863L166.376 150.447M167.712 83.2863L180.16 138.743M166.376 150.447L166.529 150.317M166.376 150.447L118.299 138.002M180.16 138.743L178.157 188.118M180.16 138.743L166.529 150.317M178.157 188.118L166.529 150.317M178.157 188.118L117.235 177.836M178.157 188.118L164.533 176.711M118.299 138.002L164.533 176.711M118.299 138.002L117.235 177.836M118.299 138.002L77.0395 118.222M118.299 138.002L72.4621 161.379M117.235 177.836L164.533 176.711M117.235 177.836L72.4621 161.379M117.235 177.836L31.4655 165.979M31.4655 165.979L72.4621 161.379M31.4655 165.979L20.253 132.651M31.4655 165.979L3.34925 132.883M31.4655 165.979L39.9513 87.6198M72.4621 161.379L77.0395 118.222M77.0395 118.222L39.9513 87.6198M20.253 132.651L3.34925 132.883M20.253 132.651L39.9513 87.6198M3.34925 132.883L39.9513 87.6198M3.34925 132.883L9.29579 89.7626M39.9513 87.6198L38.2833 64.5691M39.9513 87.6198L9.29579 89.7626M38.2833 64.5691L9.29579 89.7626" stroke="white" stroke-opacity="0.15" stroke-width="2"/>
</svg>
