<svg width="178" height="152" viewBox="0 0 178 152" fill="none" xmlns="http://www.w3.org/2000/svg">
<path d="M140.761 15.4767L176.787 10.319L140.761 24.2049M140.761 15.4767L119.384 15.4767L110.279 28.5691L110.279 40.0745M140.761 15.4767L140.761 24.2049M110.279 40.0745L103.549 48.406M110.279 40.0745L130.469 58.3245M103.549 48.406L80.9834 32.1397L3.78663 2.78102L24.3724 28.5691M103.549 48.406L116.613 58.3245M24.3724 28.5691L116.613 58.3245M24.3724 28.5691L51.6882 58.3245L84.5464 81.3354M116.613 58.3245L89.6928 84.5093L84.5464 81.3354M84.5464 81.3354L82.9628 89.6669M82.9628 89.6669L116.613 91.6506M82.9628 89.6669L71.8782 108.088M116.613 91.6506L130.469 75.3843L130.469 58.3245M116.613 91.6506L105.429 100.478M116.613 91.6506L117.404 105.14L110.675 113.471L113.446 103.156L109.487 97.9984L110.675 105.14L106.32 110.694L105.429 100.478M130.469 58.3245L140.761 24.2049M71.8782 108.088L51.6882 141.64L51.6882 148.781L71.8782 126.96L94.2454 109.305M71.8782 108.088L71.8782 119.422L94.2454 109.305M94.2454 109.305L105.429 100.478" stroke="white" stroke-opacity="0.15" stroke-width="2"/>
</svg>
