<svg width="142" height="538" viewBox="0 0 142 538" fill="none" xmlns="http://www.w3.org/2000/svg">
<path d="M1 1C7.23288 5.15133 20.7534 13.8372 24.9726 15.37C28.8845 16.7911 33.0986 38.3615 35.0929 51.2949M45.1096 119.792L35.5205 54.1689C35.3925 53.2735 35.2496 52.3108 35.0929 51.2949M87.3014 247.206C95.9315 244.332 110.603 232.644 100.247 208.886C88.7397 185.894 86.3425 186.852 84.4247 183.499C82.8904 180.816 71 164.179 65.2466 156.196L43.6712 124.103M61.8904 116.439C66.2055 114.842 76.1781 110.499 81.5479 105.901M35.0929 51.2949C42.1076 50.9756 59.589 54.2647 73.3973 69.9759C87.2055 85.687 88.2603 94.4048 88.7397 97.7578V107.338C87.621 109.573 83.6441 113.81 82.9863 116.439C82.0274 120.271 82.1872 148.212 82.9863 162.902M71 160.028C72.2785 161.784 76.0822 165.967 81.0685 168.65C87.3014 172.003 90.1781 173.44 92.0959 176.314C94.0137 179.188 98.5205 188.384 101.205 194.516C103.89 200.647 107.598 206.171 109.356 207.928C114.47 213.676 125.658 224.693 129.014 228.046C132.681 231.709 141 239.063 141 243.374C141 247.685 140.041 258.702 132.37 263.013C126.233 266.461 124.699 266.685 124.699 266.366M112.233 229.962C112.872 236.508 114.726 251.133 117.027 257.265C119.904 264.929 118.466 287.441 118.466 291.752C118.466 296.063 117.507 316.66 120.384 323.845C123.26 331.03 131.89 356.896 132.37 360.249C132.849 363.602 137.597 398.607 138.603 408.149C139.562 417.25 139.562 437.273 139.562 442.158C139.562 452.217 125.658 495.806 119.904 507.302M100.247 434.015C105.201 425.234 115.397 406.808 116.548 403.359C117.986 399.048 119.425 393.779 118.945 391.384M74.3562 406.712C81.7078 422.2 96.7945 454.325 98.3288 458.923C100.247 464.671 114.151 534.605 114.151 537M108.877 251.996C107.598 264.13 105.041 290.315 105.041 297.979C105.041 307.559 102.644 322.866 102.644 328.156C102.644 333.904 104.402 343.963 105.041 349.232" stroke="white" stroke-opacity="0.15" stroke-width="2" stroke-linecap="round"/>
</svg>
