<svg width="109" height="127" viewBox="0 0 109 127" fill="none" xmlns="http://www.w3.org/2000/svg">
<path d="M54.5473 125L43.757 114.333M54.5473 125L66.5365 111.256M54.5473 125L63.5392 99.3552M54.5473 125L45.5175 99.3552M71.3322 78.5377L76.1278 100.26L66.5365 111.256M71.3322 78.5377L68.4984 86.382M71.3322 78.5377L74.9289 69.7883M37.7624 77.3309V108.406L43.757 114.333M37.7624 77.3309L43.2866 93.0195M37.7624 77.3309L35.3646 69.7883M43.757 114.333L43.2866 93.0195M43.2866 93.0195L44.7738 97.2433M66.5365 111.256L68.4984 86.382M68.4984 86.382L64.3465 97.2433M63.5392 99.3552L54.5473 104.182L50.3321 101.769M63.5392 99.3552L54.5473 89.7007L45.5175 99.3552M63.5392 99.3552L64.3465 97.2433M45.5175 99.3552L50.3321 101.769M45.5175 99.3552L44.7738 97.2433M50.3321 101.769L54.5473 95.1314L58.7435 101.769M44.7738 97.2433L50.3511 91.0453M64.3465 97.2433L58.4438 90.7008M50.3511 63.4526L54.5473 55.91M50.3511 63.4526H42.4083M50.3511 63.4526V77.2489M50.3511 63.4526L37.6678 54.0998M54.5473 55.91L58.4438 63.4526M54.5473 55.91L62.3403 48.8128M54.5473 55.91L46.1549 48.8128M58.4438 63.4526H66.6864M58.4438 63.4526V77.3309M58.4438 63.4526L71.3322 54.0998M74.9289 63.4526V69.7883M74.9289 63.4526H66.6864M74.9289 63.4526L90.5149 55.3066L91.2642 49.5742M74.9289 63.4526L73.1305 58.7762M74.9289 69.7883L58.4438 90.7008M58.4438 90.7008L54.5473 86.382L50.3511 91.0453M58.4438 90.7008V77.3309M50.3511 91.0453V77.2489M50.3511 91.0453L35.3646 69.7883M42.4083 63.4526L50.3511 77.2489M42.4083 63.4526H35.3646M66.6864 63.4526L58.4438 77.3309M35.3646 69.7883V63.4526M35.3646 63.4526L35.8695 58.7762M35.3646 63.4526L18.4851 55.3066M78.226 41.1265L71.3322 49.2725M78.226 41.1265L71.3322 40.6237M78.226 41.1265L73.9606 31.7737M78.226 41.1265L77.0517 33.2822M78.226 41.1265L88.7165 30.2652M78.226 41.1265L102.204 35.3942M71.3322 49.2725L66.1421 45.3504M71.3322 49.2725V40.6237M71.3322 49.2725V54.0998M66.1421 45.3504L71.3322 40.6237M66.1421 45.3504L62.3403 48.8128M71.3322 40.6237L73.4303 38.7129L73.9606 31.7737M73.9606 31.7737L74.9289 19.1022L77.0517 33.2822M77.0517 33.2822L88.7165 30.2652M88.7165 30.2652L102.204 35.3942M88.7165 30.2652L98.3078 28.1533M102.204 35.3942L98.3078 28.1533M102.204 35.3942L104.902 25.438M98.3078 28.1533V23.0243L94.4114 20.309V11.5596L96.2097 17.1411L100.406 20.309L101.905 17.1411M98.3078 28.1533L104.902 25.438M104.902 25.438L107 16.3869L102.204 9.44769M104.902 25.438L101.905 17.1411M102.204 9.44769V1L98.9073 8.84428L101.905 17.1411M102.204 9.44769L101.905 17.1411M71.3322 54.0998L78.226 49.2725L85.1197 49.8759M71.3322 54.0998L73.1305 58.7762M85.1197 49.8759L92.0135 43.8418L91.2642 49.5742M85.1197 49.8759L73.1305 58.7762M73.1305 58.7762L91.2642 49.5742M30.774 41.1265L37.6678 49.2725M30.774 41.1265L37.6678 40.6237M30.774 41.1265L35.0394 31.7737M30.774 41.1265L31.9483 33.2822M30.774 41.1265L20.2835 30.2652M30.774 41.1265L6.79567 35.3942M37.6678 49.2725L42.8579 45.3504M37.6678 49.2725V40.6237M37.6678 49.2725V54.0998M42.8579 45.3504L37.6678 40.6237M42.8579 45.3504L46.1549 48.8128M37.6678 40.6237L35.5697 38.7129L35.0394 31.7737M35.0394 31.7737L34.0711 19.1022L31.9483 33.2822M31.9483 33.2822L20.2835 30.2652M20.2835 30.2652L6.79567 35.3942M20.2835 30.2652L10.6922 28.1533M6.79567 35.3942L10.6922 28.1533M6.79567 35.3942L4.09811 25.438M10.6922 28.1533V23.0243L14.5886 20.309V11.5596L12.7903 17.1411L8.59405 20.309L7.0954 17.1411M10.6922 28.1533L4.09811 25.438M4.09811 25.438L2 16.3869L6.79567 9.44769M4.09811 25.438L7.0954 17.1411M6.79567 9.44769V1L10.0927 8.84428L7.0954 17.1411M6.79567 9.44769L7.0954 17.1411M37.6678 54.0998L30.774 49.2725L23.8803 49.8759M37.6678 54.0998L35.8695 58.7762M23.8803 49.8759L16.9865 43.8418L17.7358 49.5742M23.8803 49.8759L35.8695 58.7762M35.8695 58.7762L17.7358 49.5742M35.8695 58.7762L18.4851 55.3066M17.7358 49.5742L18.4851 55.3066M62.3403 48.8128H46.1549" stroke="black" stroke-opacity="0.15" stroke-width="2"/>
</svg>
