<svg width="257" height="137" viewBox="0 0 257 137" fill="none" xmlns="http://www.w3.org/2000/svg">
<path d="M50.3358 2L11.9515 6.24648L2 28.4225L35.1716 36.4437M50.3358 2L53.1791 28.4225M50.3358 2L68.3433 17.5704L78.7687 41.162M53.1791 28.4225L35.1716 36.4437M53.1791 28.4225L78.7687 41.162M53.1791 28.4225L42.7537 50.1268M35.1716 36.4437L17.6381 53.4296V64.7535L42.7537 50.1268M35.1716 36.4437L42.7537 50.1268M78.7687 41.162H94.8806L111.466 32.669M78.7687 41.162L60.7612 71.1232M78.7687 41.162L91.0896 92.1197M111.466 32.669L137.056 20.8732M111.466 32.669L152.694 67.1127M111.466 32.669L99.6194 70.8873L120.345 106.746M137.056 20.8732L158.381 59.0916M137.056 20.8732L220.459 36.4437M158.381 59.0916L152.694 67.1127M158.381 59.0916L223.302 50.1268M152.694 67.1127L132.317 92.1197M128.526 120.901L132.317 92.1197M128.526 120.901L111.466 136M128.526 120.901L120.345 106.746M132.317 92.1197H91.0896M223.302 50.1268L220.459 36.4437M223.302 50.1268L256 13.3239L220.459 36.4437M111.466 136H88.2463L107.201 128.451M111.466 136L107.201 128.451M107.201 128.451L120.345 106.746M78.7687 92.1197L60.7612 71.1232M78.7687 92.1197H91.0896M78.7687 92.1197L71.1866 100.141M42.7537 50.1268L60.7612 71.1232M60.7612 71.1232V100.141M71.1866 100.141V111.465L60.7612 100.141M71.1866 100.141H60.7612" stroke="white" stroke-opacity="0.15" stroke-width="2"/>
</svg>
