<svg width="191" height="662" viewBox="0 0 191 662" fill="none" xmlns="http://www.w3.org/2000/svg">
<path d="M7.41313 1C7.41313 0.723858 7.18927 0.5 6.91313 0.5C6.63699 0.5 6.41313 0.723858 6.41313 1H7.41313ZM6.91313 88L7.40604 88.0839C7.41076 88.0562 7.41313 88.0281 7.41313 88H6.91313ZM5.41313 115.5L5.89204 115.356L5.41313 115.5ZM22.9131 126.5L23.3055 126.81L22.9131 126.5ZM65.4131 94.5L65.4017 94.9999C65.6706 95.006 65.8962 94.7983 65.9122 94.5298C65.9282 94.2613 65.729 94.0282 65.4613 94.0023L65.4131 94.5ZM34.9131 94.5L34.7843 94.0169L34.9131 94.5ZM25.9131 127.5L26.1905 127.084L25.9131 127.5ZM36.9131 141.5L36.4199 141.582C36.4571 141.805 36.6396 141.976 36.8648 141.998C37.09 142.02 37.3018 141.887 37.3813 141.676L36.9131 141.5ZM57.9131 117L58.2476 117.372C58.4471 117.192 58.4692 116.887 58.2978 116.681C58.1264 116.474 57.8226 116.44 57.6094 116.603L57.9131 117ZM49.4131 129.5L49.5887 129.968C49.6272 129.954 49.6639 129.935 49.6977 129.911L49.4131 129.5ZM43.9131 141.5L43.4181 141.429C43.3979 141.571 43.4392 141.714 43.5314 141.823L43.9131 141.5ZM49.4131 148L49.0314 148.323C49.1904 148.511 49.4626 148.555 49.6729 148.427C49.8833 148.299 49.9692 148.037 49.8755 147.81L49.4131 148ZM55.9131 125L56.3671 125.21C56.4616 125.005 56.4074 124.762 56.2348 124.617C56.0622 124.472 55.8139 124.461 55.6285 124.589L55.9131 125ZM49.9206 660.914C49.8731 661.186 50.0552 661.445 50.3272 661.493C50.5993 661.54 50.8582 661.358 50.9057 661.086L49.9206 660.914ZM50.4131 596L50.8864 595.839L50.4131 596ZM53.9131 536L53.5227 535.688L53.9131 536ZM76.9131 499.5L77.3483 499.746C77.3737 499.701 77.392 499.653 77.4025 499.602L76.9131 499.5ZM46.9131 455L46.6358 455.416L46.9131 455ZM84.4131 460L84.901 460.11L84.4131 460ZM102.913 495L102.713 495.458C102.767 495.482 102.824 495.495 102.883 495.499L102.913 495ZM158.413 452L158.826 451.718L158.823 451.713L158.413 452ZM146.413 436L145.979 435.752L146.413 436ZM117.913 430.5L117.96 430.002L117.913 430.5ZM149.913 429.5L150.294 429.824C150.322 429.79 150.346 429.754 150.365 429.714L149.913 429.5ZM144.913 413.5L144.421 413.588L144.913 413.5ZM143.913 397.5L144.403 397.598L143.913 397.5ZM102.413 428L102.093 427.616C101.92 427.76 101.865 428.003 101.959 428.208C102.053 428.414 102.273 428.53 102.495 428.493L102.413 428ZM128.413 413.5L128.144 413.079C128.108 413.102 128.075 413.129 128.046 413.161L128.413 413.5ZM148.413 396L148.845 395.748L148.845 395.748L148.413 396ZM134.913 340L134.681 340.443L134.681 340.443L134.913 340ZM133.413 311L133.102 310.609C133.092 310.616 133.083 310.624 133.074 310.633L133.413 311ZM160.413 289.5L160.725 289.891C160.741 289.878 160.756 289.864 160.771 289.85L160.413 289.5ZM185.913 254L186.399 254.117L185.913 254ZM184.413 214L184.809 213.694L184.809 213.694L184.413 214ZM150.413 199L150.163 199.433C150.179 199.442 150.196 199.451 150.213 199.458L150.413 199ZM119.413 167.5L119.885 167.335L119.413 167.5ZM114.413 138.5L114.898 138.621C114.915 138.552 114.918 138.48 114.905 138.411L114.413 138.5ZM133.413 95L133.444 94.501L133.413 95ZM170.913 128.5L171.359 128.273C171.351 128.258 171.343 128.243 171.333 128.229L170.913 128.5ZM180.413 187.5L179.982 187.246L179.982 187.246L180.413 187.5ZM96.9131 199.5L96.4907 199.768L96.9131 199.5ZM93.9131 160L93.4372 159.847C93.4345 159.855 93.4321 159.863 93.4299 159.872L93.9131 160ZM103.413 130.5L103.889 130.653C103.896 130.631 103.902 130.609 103.906 130.586L103.413 130.5ZM84.9131 96L84.8341 96.4937L84.9131 96ZM38.9131 122L39.3131 122.3L38.9131 122ZM22.9131 202L22.425 201.892L22.9131 202ZM47.9131 229L48.0988 228.536L47.9131 229ZM53.4131 239L52.9236 238.898L53.4131 239ZM68.4131 255L68.3424 255.495L68.4131 255ZM78.4131 279L78.1559 279.429L78.1559 279.429L78.4131 279ZM85.9131 297.5L85.4136 297.478L85.9131 297.5ZM89.9131 320L90.3266 319.719L89.9131 320ZM154.413 299L153.913 298.984L154.413 299ZM129.913 258L129.622 258.406L129.913 258ZM96.9131 238.5L97.0568 238.021L96.9131 238.5ZM71.4131 229L71.1062 229.395L71.1062 229.395L71.4131 229ZM43.9131 181.5L44.4094 181.439L43.9131 181.5ZM42.4105 158.051C42.4387 157.776 42.2388 157.531 41.9641 157.503C41.6894 157.474 41.4439 157.674 41.4157 157.949L42.4105 158.051ZM89.9324 447.863C89.8565 448.128 90.0103 448.405 90.2758 448.481C90.5413 448.557 90.818 448.403 90.8939 448.137L89.9324 447.863ZM92.9131 413.5L93.3971 413.375L92.9131 413.5ZM1.91313 400L2.40376 400.096L1.91313 400ZM16.9131 467L16.4705 467.233L16.4755 467.242L16.9131 467ZM30.4131 488.5L30.7332 488.116L30.7332 488.116L30.4131 488.5ZM66.9131 491L67.2466 491.373L67.2466 491.373L66.9131 491ZM65.9131 294L65.8775 294.499C66.0728 294.513 66.2583 294.411 66.352 294.239C66.4458 294.067 66.4306 293.857 66.3131 293.7L65.9131 294ZM35.9131 284.5L36.1421 284.944L36.1421 284.944L35.9131 284.5ZM17.9131 286.653L17.4891 286.388L17.9131 286.653ZM58.9131 305.5L58.5403 305.167L58.9131 305.5ZM63.9131 316L63.4175 316.066L63.9131 316ZM55.9131 326L55.815 325.51C55.8062 325.511 55.7973 325.513 55.7886 325.516L55.9131 326ZM35.9131 334.5L35.4891 334.235L35.4891 334.235L35.9131 334.5ZM36.9131 339.5L36.7757 339.981C36.8726 340.008 36.9756 340.006 37.0712 339.974L36.9131 339.5ZM46.4131 342.5L45.9488 342.686C46.0503 342.939 46.3363 343.064 46.5914 342.967C46.8465 342.87 46.9763 342.586 46.883 342.329L46.4131 342.5ZM55.9131 339.5L56.0712 339.974L55.9131 339.5ZM6.41313 1V88H7.41313V1H6.41313ZM6.42022 87.9161C5.75128 91.8462 4.99918 97.4868 4.60203 102.775C4.40346 105.419 4.29308 107.982 4.32725 110.203C4.36124 112.412 4.53839 114.324 4.93422 115.644L5.89204 115.356C5.53786 114.176 5.36085 112.379 5.32713 110.188C5.29359 108.007 5.40195 105.477 5.59922 102.85C5.99375 97.5966 6.74165 91.9872 7.40604 88.0839L6.42022 87.9161ZM4.93422 115.644C5.63358 117.975 8.24027 123.089 11.604 126.482C13.284 128.177 15.2158 129.507 17.2521 129.777C19.3394 130.054 21.4146 129.205 23.3055 126.81L22.5207 126.19C20.7952 128.376 19.0441 129.006 17.3838 128.786C15.6726 128.559 13.9356 127.414 12.3142 125.778C9.07496 122.51 6.54811 117.543 5.89204 115.356L4.93422 115.644ZM23.3055 126.81C27.1026 122 32.1666 113.954 39.0776 107.105C45.9686 100.276 54.5946 94.7543 65.4017 94.9999L65.4245 94.0001C54.2316 93.7457 45.3576 99.4738 38.3737 106.395C31.4096 113.296 26.2237 121.5 22.5207 126.19L23.3055 126.81ZM65.4613 94.0023C57.6995 93.2512 51.2463 92.9327 46.1321 92.9617C41.027 92.9907 37.2259 93.3658 34.7843 94.0169L35.0419 94.9831C37.3584 94.3654 41.0574 93.9905 46.1377 93.9617C51.2089 93.9329 57.6267 94.2488 65.3649 94.9977L65.4613 94.0023ZM34.7843 94.0169C31.0227 95.02 25.2257 96.7949 20.1717 99.581C15.1424 102.353 10.7055 106.207 9.91869 111.425L10.9075 111.575C11.6207 106.844 15.6838 103.197 20.6545 100.457C25.6005 97.7302 31.3035 95.98 35.0419 94.9831L34.7843 94.0169ZM9.91869 111.425C9.12377 116.698 12.5483 120.415 16.3206 122.979C18.2174 124.268 20.2397 125.292 21.9418 126.102C22.3677 126.304 22.7745 126.493 23.1541 126.67C23.5345 126.847 23.8864 127.01 24.206 127.162C24.8536 127.47 25.3372 127.717 25.6358 127.916L26.1905 127.084C25.823 126.839 25.2759 126.564 24.6355 126.259C24.3111 126.105 23.9546 125.939 23.5758 125.763C23.1962 125.587 22.7928 125.399 22.3712 125.198C20.6829 124.396 18.7154 123.397 16.8827 122.152C13.196 119.646 10.2024 116.251 10.9075 111.575L9.91869 111.425ZM25.6358 127.916C26.3389 128.385 27.3394 129.29 28.4677 130.457C29.5887 131.617 30.8131 133.011 31.961 134.438C33.1095 135.866 34.1755 137.319 34.9827 138.595C35.8044 139.895 36.3133 140.943 36.4199 141.582L37.4063 141.418C37.2629 140.557 36.6467 139.355 35.8278 138.061C34.9945 136.743 33.9042 135.259 32.7402 133.812C31.5756 132.364 30.3312 130.946 29.1867 129.762C28.0493 128.585 26.9873 127.615 26.1905 127.084L25.6358 127.916ZM37.3813 141.676C38.117 139.714 39.976 135.991 41.9722 132.498C42.9682 130.755 43.9923 129.08 44.92 127.719C45.8594 126.341 46.666 125.338 47.2254 124.89L46.6007 124.11C45.9102 124.662 45.0293 125.784 44.0937 127.156C43.1464 128.545 42.108 130.245 41.104 132.002C39.1002 135.509 37.2092 139.286 36.4449 141.324L37.3813 141.676ZM47.2254 124.89C48.7645 123.659 50.7843 122.339 52.7932 121.045C54.7891 119.76 56.7799 118.496 58.2168 117.397L57.6094 116.603C56.213 117.671 54.2663 118.907 52.2517 120.205C50.2503 121.494 48.1867 122.841 46.6007 124.11L47.2254 124.89ZM57.5786 116.628C55.8979 118.141 53.45 120.588 51.5678 123.019C50.628 124.233 49.8136 125.462 49.3102 126.583C48.8187 127.676 48.5659 128.793 48.9535 129.697L49.8727 129.303C49.6603 128.807 49.7534 128.036 50.2223 126.992C50.6793 125.975 51.4399 124.817 52.3584 123.631C54.1928 121.262 56.595 118.859 58.2476 117.372L57.5786 116.628ZM49.2376 129.032C48.3009 129.383 47.5158 130.159 46.8625 131.105C46.2047 132.058 45.6472 133.233 45.1829 134.461C44.2543 136.916 43.6719 139.653 43.4181 141.429L44.4081 141.571C44.6544 139.847 45.222 137.184 46.1183 134.814C46.5665 133.629 47.0903 132.536 47.6856 131.673C48.2854 130.804 48.9254 130.217 49.5887 129.968L49.2376 129.032ZM43.5314 141.823L49.0314 148.323L49.7948 147.677L44.2948 141.177L43.5314 141.823ZM49.8755 147.81C49.3073 146.43 48.6227 144.155 48.4238 141.845C48.223 139.513 48.527 137.272 49.7894 135.829L49.0368 135.171C47.4992 136.928 47.2199 139.52 47.4274 141.93C47.6368 144.362 48.3522 146.737 48.9508 148.19L49.8755 147.81ZM49.7894 135.829C52.6373 132.574 55.3613 127.389 56.3671 125.21L55.4592 124.79C54.465 126.944 51.7889 132.026 49.0368 135.171L49.7894 135.829ZM55.6285 124.589L49.1285 129.089L49.6977 129.911L56.1977 125.411L55.6285 124.589ZM50.9057 661.086C52.1591 653.9 53.6619 642.027 54.1003 629.743C54.5382 617.475 53.9176 604.73 50.8864 595.839L49.9399 596.161C52.9086 604.87 53.5381 617.458 53.1009 629.707C52.6644 641.94 51.1671 653.767 49.9206 660.914L50.9057 661.086ZM50.8864 595.839C47.1618 584.913 46.0408 572.482 46.8493 561.537C47.6595 550.568 50.3994 541.193 54.3036 536.312L53.5227 535.688C49.4269 540.807 46.6668 550.432 45.852 561.463C45.0354 572.518 46.1645 585.087 49.9399 596.161L50.8864 595.839ZM54.3036 536.312C60.7333 528.275 72.353 508.571 77.3483 499.746L76.478 499.254C71.4733 508.095 59.893 527.725 53.5227 535.688L54.3036 536.312ZM77.4025 499.602C78.96 492.161 74.8867 473.048 47.1905 454.584L46.6358 455.416C74.1396 473.752 77.8663 492.505 76.4237 499.398L77.4025 499.602ZM47.1905 454.584C29.9943 443.12 20.4462 431.812 15.6203 420.922C10.7965 410.038 10.6673 399.52 12.4056 389.586L11.4206 389.414C9.65896 399.48 9.77975 410.212 14.706 421.328C19.6301 432.438 29.332 443.88 46.6358 455.416L47.1905 454.584ZM12.4056 389.586C14.1605 379.558 15.904 366.973 18.3987 356.807C19.646 351.724 21.0719 347.288 22.7611 344.101C24.4677 340.882 26.3501 339.109 28.4394 338.999L28.3869 338.001C25.7262 338.141 23.6086 340.368 21.8776 343.633C20.1294 346.931 18.6803 351.463 17.4275 356.568C14.9222 366.777 13.1657 379.442 11.4206 389.414L12.4056 389.586ZM28.4394 338.999C29.5099 338.943 31.0798 339.327 33.0618 340.167C35.0283 341.001 37.3466 342.259 39.8935 343.89C44.9863 347.15 50.9598 351.878 56.8134 357.607C68.5344 369.079 79.6972 384.488 82.4206 400.086L83.4057 399.914C80.6291 384.012 69.2919 368.421 57.5129 356.893C51.6164 351.122 45.5899 346.35 40.4327 343.048C37.8546 341.397 35.4854 340.109 33.452 339.247C31.434 338.391 29.6913 337.932 28.3869 338.001L28.4394 338.999ZM82.4206 400.086C85.1747 415.859 86.9156 424.689 87.2887 432.648C87.6605 440.581 86.6721 447.655 83.9253 459.89L84.901 460.11C87.6542 447.845 88.6657 440.669 88.2876 432.602C87.9107 424.561 86.1516 415.641 83.4057 399.914L82.4206 400.086ZM102.883 495.499C109.755 495.918 119.307 495.542 128.596 493.235C137.878 490.931 146.958 486.683 152.805 479.311L152.021 478.689C146.368 485.817 137.532 489.986 128.355 492.265C119.186 494.542 109.738 494.915 102.944 494.501L102.883 495.499ZM152.805 479.311C158.602 472.001 160.695 465.95 161.037 461.287C161.379 456.623 159.968 453.387 158.826 451.718L158 452.282C159.025 453.779 160.364 456.793 160.039 461.213C159.715 465.633 157.724 471.499 152.021 478.689L152.805 479.311ZM158.823 451.713C157.896 450.39 156.398 449.161 154.797 447.973C153.168 446.765 151.438 445.604 149.917 444.363C148.399 443.123 147.177 441.87 146.562 440.54C145.966 439.25 145.927 437.858 146.847 436.248L145.979 435.752C144.899 437.642 144.923 439.375 145.655 440.96C146.368 442.505 147.74 443.877 149.284 445.137C150.826 446.396 152.627 447.61 154.201 448.777C155.803 449.964 157.18 451.11 158.004 452.287L158.823 451.713ZM146.847 436.248C148.779 432.868 148.542 429.017 146.499 426.456C144.435 423.867 140.641 422.725 135.74 424.531L136.086 425.469C140.685 423.775 143.985 424.906 145.718 427.079C147.472 429.279 147.735 432.679 145.979 435.752L146.847 436.248ZM135.74 424.531C130.931 426.303 127.134 428.835 123.895 430.89C122.269 431.923 120.795 432.827 119.391 433.476C117.99 434.123 116.689 434.5 115.413 434.5V435.5C116.887 435.5 118.336 435.064 119.81 434.384C121.282 433.704 122.808 432.765 124.431 431.735C127.693 429.665 131.396 427.197 136.086 425.469L135.74 424.531ZM115.413 434.5C114.087 434.5 113.4 434.194 113.106 433.883C112.859 433.621 112.812 433.261 113.064 432.804C113.595 431.84 115.369 430.761 117.866 430.998L117.96 430.002C115.191 429.739 112.965 430.91 112.188 432.321C111.785 433.052 111.757 433.91 112.379 434.57C112.956 435.181 113.989 435.5 115.413 435.5V434.5ZM117.866 430.998C118.317 431.041 119.02 431.205 119.957 431.459C120.889 431.711 121.999 432.036 123.271 432.392C125.799 433.099 128.902 433.906 132.152 434.387C138.613 435.343 145.862 435.039 150.294 429.824L149.532 429.176C145.465 433.961 138.713 434.347 132.299 433.398C129.112 432.926 126.058 432.132 123.54 431.429C122.288 431.079 121.152 430.746 120.219 430.494C119.291 430.242 118.509 430.054 117.96 430.002L117.866 430.998ZM150.365 429.714C151.305 427.73 151.513 425.971 151.262 424.372C151.012 422.783 150.312 421.39 149.495 420.128C149.087 419.497 148.645 418.892 148.211 418.311C147.775 417.725 147.351 417.168 146.962 416.613C146.18 415.499 145.593 414.466 145.405 413.412L144.421 413.588C144.649 414.868 145.346 416.051 146.143 417.187C146.543 417.757 146.982 418.334 147.41 418.908C147.841 419.487 148.266 420.07 148.656 420.672C149.435 421.876 150.054 423.133 150.274 424.528C150.492 425.912 150.322 427.47 149.461 429.286L150.365 429.714ZM144.403 397.598C144.682 396.204 144.265 394.218 143.558 392.611C143.201 391.799 142.753 391.044 142.244 390.484C141.747 389.937 141.123 389.5 140.413 389.5V390.5C140.704 390.5 141.079 390.688 141.504 391.156C141.917 391.612 142.313 392.264 142.643 393.014C143.311 394.532 143.644 396.296 143.423 397.402L144.403 397.598ZM140.413 389.5C139.319 389.5 137.748 389.902 136.221 390.538C134.688 391.177 133.123 392.083 132.06 393.146L132.767 393.854C133.703 392.917 135.138 392.073 136.605 391.462C138.078 390.848 139.508 390.5 140.413 390.5V389.5ZM132.06 393.146C129.534 395.672 128.506 397.209 126.523 399.688L127.304 400.312C129.321 397.791 130.293 396.328 132.767 393.854L132.06 393.146ZM126.523 399.688C125.518 400.944 120.15 407.81 114.653 414.431C111.905 417.741 109.131 420.982 106.859 423.425C105.723 424.647 104.719 425.662 103.912 426.383C103.508 426.744 103.161 427.024 102.878 427.218C102.578 427.423 102.403 427.495 102.331 427.507L102.495 428.493C102.798 428.443 103.127 428.26 103.443 428.043C103.776 427.815 104.158 427.504 104.578 427.129C105.419 426.377 106.447 425.337 107.592 424.106C109.883 421.643 112.671 418.384 115.423 415.069C120.927 408.44 126.309 401.556 127.304 400.312L126.523 399.688ZM102.733 428.384C103.629 427.637 106.597 426.11 110.868 426.498L110.958 425.502C106.429 425.09 103.197 426.696 102.093 427.616L102.733 428.384ZM110.868 426.498C112.119 426.612 113.623 426.091 115.176 425.267C116.747 424.432 118.449 423.243 120.124 421.917C123.474 419.263 126.768 416.019 128.781 413.839L128.046 413.161C126.058 415.314 122.802 418.52 119.503 421.133C117.852 422.44 116.204 423.589 114.707 424.383C113.191 425.188 111.907 425.588 110.958 425.502L110.868 426.498ZM145.405 413.412C145.143 411.945 144.758 409.981 144.406 407.903L143.42 408.07C143.772 410.148 144.164 412.15 144.421 413.588L145.405 413.412ZM144.406 407.903C143.64 403.377 144.098 399.125 144.403 397.598L143.423 397.402C143.098 399.025 142.63 403.403 143.42 408.07L144.406 407.903ZM128.682 413.921C130.498 412.762 133.447 411.096 136.381 409.873C137.848 409.261 139.297 408.766 140.59 408.498C141.896 408.227 142.98 408.2 143.754 408.461L144.073 407.513C143.046 407.168 141.751 407.235 140.387 407.518C139.009 407.804 137.495 408.324 135.996 408.95C132.996 410.2 129.995 411.896 128.144 413.079L128.682 413.921ZM144.213 408.387C145.588 407.358 147.47 405.508 148.655 403.28C149.843 401.044 150.364 398.351 148.845 395.748L147.981 396.252C149.263 398.449 148.866 400.752 147.772 402.81C146.673 404.876 144.905 406.62 143.614 407.586L144.213 408.387ZM148.845 395.748C147.916 394.155 146.409 392.824 144.735 391.674C143.059 390.522 141.174 389.524 139.459 388.62C137.725 387.706 136.19 386.899 135.144 386.109C134.622 385.715 134.259 385.351 134.054 385.014C133.858 384.692 133.815 384.414 133.894 384.137L132.932 383.863C132.761 384.461 132.89 385.027 133.2 385.535C133.501 386.028 133.978 386.481 134.541 386.907C135.667 387.757 137.288 388.606 138.992 389.505C140.715 390.413 142.549 391.384 144.169 392.498C145.792 393.614 147.16 394.845 147.981 396.252L148.845 395.748ZM133.894 384.137C134.035 383.644 134.123 382.918 134.173 382.055C134.224 381.183 134.237 380.136 134.218 378.984C134.178 376.678 134.005 373.929 133.723 371.26C133.44 368.593 133.047 365.991 132.563 363.984C132.322 362.983 132.054 362.112 131.757 361.449C131.609 361.118 131.447 360.824 131.268 360.588C131.092 360.356 130.873 360.145 130.599 360.036L130.227 360.964C130.266 360.98 130.351 361.034 130.472 361.193C130.589 361.347 130.714 361.567 130.844 361.858C131.105 362.439 131.356 363.243 131.591 364.219C132.06 366.165 132.448 368.719 132.728 371.365C133.008 374.008 133.179 376.728 133.218 379.001C133.237 380.137 133.224 381.157 133.175 381.997C133.125 382.847 133.041 383.481 132.932 383.863L133.894 384.137ZM130.599 360.036C130.327 359.927 129.863 359.668 129.195 359.287C128.544 358.915 127.73 358.446 126.796 357.949C124.929 356.957 122.564 355.844 119.982 355.142C117.4 354.441 114.576 354.144 111.804 354.811C109.021 355.48 106.329 357.112 104.013 360.2L104.813 360.8C106.997 357.888 109.493 356.395 112.038 355.783C114.594 355.168 117.239 355.434 119.72 356.108C122.2 356.781 124.491 357.856 126.327 358.832C127.245 359.32 128.044 359.781 128.699 360.155C129.338 360.52 129.875 360.823 130.227 360.964L130.599 360.036ZM104.013 360.2C101.764 363.199 99.9423 365.68 98.5733 367.765C97.2078 369.844 96.2697 371.564 95.8107 373.039C95.3471 374.529 95.3602 375.812 95.9524 376.97C96.5328 378.104 97.6313 379.039 99.1612 379.932L99.6651 379.068C98.195 378.211 97.2934 377.396 96.8426 376.514C96.4036 375.656 96.3542 374.658 96.7656 373.336C97.1816 371.999 98.0559 370.375 99.4092 368.313C100.759 366.258 102.563 363.801 104.813 360.8L104.013 360.2ZM99.1612 379.932C100.063 380.458 101.192 380.494 102.401 380.244C103.617 379.992 104.983 379.439 106.424 378.694C109.308 377.205 112.586 374.901 115.716 372.523C118.843 370.146 121.861 367.664 124.191 365.83C125.363 364.909 126.357 364.154 127.117 363.646C127.498 363.391 127.805 363.209 128.038 363.099C128.154 363.044 128.238 363.014 128.294 362.999C128.357 362.983 128.345 362.998 128.292 362.985L128.534 362.015C128.356 361.97 128.182 361.996 128.048 362.03C127.907 362.066 127.759 362.125 127.61 362.195C127.312 362.336 126.957 362.55 126.561 362.815C125.766 363.346 124.745 364.122 123.573 365.045C121.215 366.899 118.233 369.354 115.111 371.727C111.99 374.099 108.768 376.358 105.965 377.806C104.562 378.53 103.288 379.039 102.199 379.264C101.103 379.491 100.263 379.417 99.6651 379.068L99.1612 379.932ZM128.292 362.985C128.717 363.091 128.8 363.216 128.836 363.291C128.903 363.433 128.913 363.646 128.913 364.125C128.913 365.035 128.916 366.388 129.979 368.248L130.847 367.752C129.91 366.112 129.913 364.965 129.913 364.125C129.913 363.729 129.924 363.254 129.741 362.865C129.526 362.409 129.109 362.159 128.534 362.015L128.292 362.985ZM129.979 368.248C130.291 368.793 130.742 369.148 131.286 369.326C131.817 369.5 132.408 369.497 133.008 369.391C134.202 369.179 135.562 368.531 136.861 367.739C138.169 366.942 139.456 365.972 140.51 365.076C141.557 364.187 142.404 363.346 142.813 362.8L142.013 362.2C141.672 362.654 140.895 363.438 139.863 364.314C138.839 365.184 137.595 366.121 136.34 366.886C135.076 367.656 133.843 368.227 132.834 368.406C132.332 368.495 131.92 368.481 131.597 368.375C131.288 368.274 131.036 368.082 130.847 367.752L129.979 368.248ZM142.813 362.8C142.982 362.575 143.302 362.241 143.752 361.747C144.187 361.27 144.709 360.678 145.227 359.988C146.26 358.611 147.298 356.812 147.596 354.695C148.203 350.373 145.707 345.089 135.145 339.557L134.681 340.443C145.119 345.911 147.123 350.877 146.606 354.555C146.341 356.438 145.41 358.077 144.427 359.387C143.937 360.041 143.44 360.605 143.013 361.073C142.602 361.525 142.22 361.925 142.013 362.2L142.813 362.8ZM135.145 339.557C131.009 337.391 128.494 334.916 127.117 332.363C125.742 329.813 125.478 327.142 125.919 324.533C126.805 319.287 130.543 314.33 133.752 311.367L133.074 310.633C129.784 313.67 125.871 318.813 124.933 324.367C124.461 327.158 124.74 330.062 126.237 332.837C127.732 335.609 130.417 338.209 134.681 340.443L135.145 339.557ZM133.725 311.391L160.725 289.891L160.102 289.109L133.102 310.609L133.725 311.391ZM160.771 289.85C164.532 286.005 170.32 279.615 175.472 272.93C178.048 269.588 180.469 266.165 182.4 262.945C184.326 259.731 185.782 256.69 186.399 254.117L185.427 253.883C184.845 256.31 183.45 259.248 181.542 262.43C179.638 265.606 177.241 268.996 174.68 272.32C169.556 278.968 163.795 285.328 160.056 289.15L160.771 289.85ZM186.399 254.117C187.897 247.876 189.66 240.578 189.975 233.46C190.29 226.338 189.161 219.326 184.809 213.694L184.017 214.306C188.166 219.674 189.286 226.412 188.976 233.415C188.666 240.422 186.929 247.624 185.427 253.883L186.399 254.117ZM184.809 213.694C183.458 211.946 181.111 210.358 178.293 208.906C175.462 207.448 172.099 206.1 168.662 204.855C165.224 203.611 161.695 202.464 158.538 201.413C155.371 200.36 152.589 199.406 150.614 198.542L150.213 199.458C152.237 200.344 155.064 201.311 158.222 202.362C161.389 203.416 164.899 204.557 168.321 205.796C171.743 207.035 175.06 208.366 177.835 209.795C180.622 211.231 182.806 212.738 184.017 214.306L184.809 213.694ZM150.663 198.567C144.2 194.838 137.446 189.739 131.833 184.206C126.211 178.666 121.773 172.73 119.885 167.335L118.941 167.665C120.903 173.27 125.465 179.334 131.131 184.919C136.805 190.511 143.627 195.662 150.163 199.433L150.663 198.567ZM119.885 167.335C118.146 162.367 116.653 156.146 115.719 150.666C115.252 147.927 114.926 145.382 114.779 143.278C114.631 141.155 114.669 139.537 114.898 138.621L113.928 138.379C113.657 139.463 113.633 141.22 113.782 143.347C113.931 145.493 114.262 148.073 114.733 150.834C115.674 156.354 117.18 162.633 118.941 167.665L119.885 167.335ZM114.905 138.411C114.668 137.106 114.621 133.688 114.977 129.268C115.332 124.867 116.08 119.527 117.406 114.399C118.734 109.263 120.631 104.379 123.261 100.857C125.883 97.3477 129.192 95.2371 133.382 95.499L133.444 94.501C128.813 94.2115 125.211 96.5753 122.46 100.259C119.717 103.931 117.78 108.96 116.438 114.149C115.094 119.346 114.338 124.744 113.981 129.188C113.624 133.611 113.658 137.144 113.921 138.589L114.905 138.411ZM133.382 95.499C141.179 95.9863 148.772 101.65 155.299 108.592C161.807 115.515 167.161 123.606 170.493 128.771L171.333 128.229C167.999 123.06 162.603 114.902 156.027 107.908C149.471 100.933 141.647 95.0137 133.444 94.501L133.382 95.499ZM170.467 128.727C173.87 135.42 178.429 146.398 181.039 157.553C182.344 163.13 183.157 168.736 183.102 173.865C183.047 178.996 182.122 183.614 179.982 187.246L180.844 187.754C183.104 183.917 184.046 179.106 184.102 173.875C184.158 168.641 183.329 162.951 182.012 157.326C179.381 146.076 174.789 135.022 171.359 128.273L170.467 128.727ZM179.982 187.246C169.062 205.783 151.729 213.985 138.45 213.001L138.376 213.999C152.097 215.015 169.764 206.561 180.844 187.754L179.982 187.246ZM138.45 213.001C131.623 212.496 123.724 212.752 116.261 211.26C108.843 209.776 101.988 206.578 97.3355 199.232L96.4907 199.768C101.338 207.422 108.484 210.724 116.065 212.24C123.602 213.748 131.703 213.504 138.376 213.999L138.45 213.001ZM97.3355 199.232C93.6076 193.346 92.3211 185.622 92.2506 178.308C92.1802 171.002 93.3235 164.172 94.3964 160.128L93.4299 159.872C92.336 163.995 91.1794 170.914 91.2507 178.317C91.3219 185.712 92.6186 193.654 96.4907 199.768L97.3355 199.232ZM94.3891 160.153L103.889 130.653L102.937 130.347L93.4372 159.847L94.3891 160.153ZM103.906 130.586C104.832 125.28 104.99 117.327 102.487 110.291C99.9733 103.228 94.7632 97.0697 84.9921 95.5063L84.8341 96.4937C94.1694 97.9874 99.126 103.829 101.544 110.626C103.973 117.452 103.827 125.22 102.921 130.414L103.906 130.586ZM84.9921 95.5063C72.3075 93.4767 61.9442 98.3551 54.1395 104.559C46.3421 110.756 41.0536 118.313 38.5131 121.7L39.3131 122.3C41.8727 118.887 47.0841 111.444 54.7617 105.341C62.432 99.2448 72.5187 94.5233 84.8341 96.4937L84.9921 95.5063ZM38.5131 121.7C36.9412 123.796 35.7684 127.422 34.877 131.65C33.9807 135.9 33.3536 140.84 32.9152 145.629C32.0384 155.206 31.9131 164.222 31.9131 166H32.9131C32.9131 164.242 33.0378 155.258 33.9111 145.72C34.3477 140.95 34.9705 136.053 35.8555 131.856C36.7454 127.636 37.8851 124.204 39.3131 122.3L38.5131 121.7ZM31.9131 166C31.9131 166.311 31.7947 167.029 31.5574 168.117C31.325 169.184 30.9908 170.554 30.5851 172.133C29.774 175.292 28.6814 179.272 27.5565 183.303C25.3115 191.348 22.9289 199.624 22.425 201.892L23.4012 202.108C23.8974 199.876 26.2647 191.652 28.5197 183.572C29.6448 179.54 30.7398 175.552 31.5537 172.382C31.9605 170.798 32.2982 169.414 32.5345 168.33C32.766 167.268 32.9131 166.439 32.9131 166H31.9131ZM22.425 201.892C22.2547 202.658 21.0677 210.068 21.0166 217.296C20.9911 220.905 21.2479 224.517 22.0803 227.243C22.9041 229.94 24.3767 232 26.9131 232V231C25.0836 231 23.8324 229.556 23.0367 226.95C22.2497 224.374 21.9912 220.885 22.0166 217.303C22.0671 210.146 23.2461 202.806 23.4012 202.108L22.425 201.892ZM26.9131 232C30.4022 232 34.4906 232.252 38.1317 232.379C39.9446 232.443 41.6447 232.475 43.0859 232.427C44.5134 232.379 45.7377 232.252 46.5712 231.974L46.255 231.026C45.57 231.254 44.4724 231.38 43.0526 231.427C41.6466 231.474 39.9741 231.443 38.1666 231.38C34.567 231.254 30.424 231 26.9131 231V232ZM46.5712 231.974C49.56 230.978 54.0981 229.467 57.1367 227.947L56.6895 227.053C53.7282 228.533 49.2663 230.022 46.255 231.026L46.5712 231.974ZM57.1367 227.947C57.9163 227.557 58.6808 227.062 59.2586 226.51C59.8202 225.973 60.2881 225.302 60.2881 224.562C60.2881 223.769 59.7601 223.117 58.834 222.628C57.9113 222.141 56.4974 221.757 54.4751 221.504L54.3511 222.496C56.3289 222.743 57.6025 223.109 58.3673 223.513C59.1286 223.914 59.2881 224.294 59.2881 224.562C59.2881 224.885 59.0686 225.308 58.5676 225.787C58.083 226.25 57.4099 226.693 56.6895 227.053L57.1367 227.947ZM54.4751 221.504C53.4799 221.379 52.0019 221.042 50.2829 220.678C48.5821 220.318 46.6723 219.938 44.8687 219.748C43.0777 219.56 41.3297 219.551 39.9775 219.974C39.2943 220.188 38.6864 220.52 38.2292 221.019C37.7668 221.524 37.4866 222.169 37.4152 222.955L38.4111 223.045C38.4646 222.456 38.666 222.023 38.9665 221.695C39.2723 221.361 39.7087 221.106 40.2762 220.929C41.4254 220.569 43.004 220.558 44.7641 220.743C46.5116 220.927 48.3774 221.297 50.0757 221.656C51.7559 222.012 53.3007 222.365 54.3511 222.496L54.4751 221.504ZM37.4152 222.955C37.2777 224.467 37.7288 225.613 38.554 226.465C39.3587 227.296 40.4841 227.812 41.642 228.166C42.8041 228.521 44.0556 228.729 45.1446 228.907C46.2651 229.092 47.1661 229.24 47.7274 229.464L48.0988 228.536C47.4102 228.26 46.3736 228.096 45.3067 227.921C44.2082 227.74 43.0222 227.542 41.9342 227.209C40.8422 226.876 39.9051 226.423 39.2723 225.769C38.66 225.137 38.2986 224.283 38.4111 223.045L37.4152 222.955ZM47.7274 229.464C50.4217 230.542 53.9775 233.839 52.9236 238.898L53.9026 239.102C55.0922 233.392 51.0523 229.717 48.0988 228.536L47.7274 229.464ZM52.9236 238.898C51.6563 244.981 52.4038 249.105 53.8452 251.857C55.2852 254.606 57.3877 255.928 58.7274 256.464L59.0988 255.536C57.9386 255.072 56.0411 253.894 54.731 251.393C53.4225 248.895 52.67 245.019 53.9026 239.102L52.9236 238.898ZM58.7274 256.464C60.1757 257.044 61.5682 256.542 62.9882 256.101C64.4477 255.647 66.1091 255.176 68.3424 255.495L68.4838 254.505C66.0214 254.153 64.1828 254.682 62.6913 255.146C61.1602 255.622 60.1506 255.956 59.0988 255.536L58.7274 256.464ZM68.3424 255.495C68.7574 255.554 69.0425 255.632 69.2332 255.717C69.4208 255.8 69.4854 255.877 69.5103 255.92C69.5334 255.961 69.556 256.032 69.5353 256.178C69.5135 256.331 69.4489 256.532 69.3312 256.797C69.0899 257.34 68.7077 257.983 68.2523 258.845C67.8085 259.685 67.326 260.68 66.9388 261.842L67.8875 262.158C68.2503 261.07 68.7052 260.128 69.1365 259.312C69.5561 258.517 69.9863 257.785 70.245 257.203C70.3774 256.905 70.4846 256.606 70.5254 256.318C70.5672 256.023 70.5428 255.711 70.3785 255.424C70.2158 255.139 69.9524 254.942 69.64 254.803C69.3306 254.665 68.9439 254.571 68.4838 254.505L68.3424 255.495ZM66.9388 261.842C66.1789 264.122 65.661 266.559 65.7258 268.765C65.7908 270.972 66.4436 273.01 68.093 274.384L68.7332 273.616C67.3827 272.49 66.7855 270.778 66.7254 268.735C66.6653 266.691 67.1474 264.378 67.8875 262.158L66.9388 261.842ZM68.093 274.384C69.6553 275.686 71.5911 276.585 73.4095 277.337C75.2622 278.104 76.9482 278.704 78.1559 279.429L78.6704 278.571C77.3781 277.796 75.564 277.146 73.7918 276.413C71.9852 275.665 70.171 274.814 68.7332 273.616L68.093 274.384ZM78.1559 279.429C78.9835 279.925 80.9275 281.125 82.6009 283.836C84.2744 286.547 85.7034 290.812 85.4136 297.478L86.4127 297.522C86.7098 290.688 85.2463 286.218 83.4518 283.311C81.6572 280.404 79.5577 279.104 78.6704 278.571L78.1559 279.429ZM85.4136 297.478C85.2121 302.113 85.5328 306.773 86.2488 310.785C86.9621 314.781 88.0773 318.189 89.4997 320.281L90.3266 319.719C89.0232 317.802 87.9384 314.56 87.2332 310.609C86.5306 306.673 86.2142 302.087 86.4127 297.522L85.4136 297.478ZM89.4997 320.281C92.402 324.549 100.74 331.5 111.413 331.5V330.5C101.148 330.5 93.0909 323.784 90.3266 319.719L89.4997 320.281ZM111.413 331.5C117.997 331.5 125.186 329.604 131.027 327.405C133.951 326.305 136.548 325.125 138.575 324.06C140.584 323.005 142.083 322.038 142.767 321.354L142.06 320.646C141.494 321.212 140.118 322.12 138.11 323.175C136.122 324.219 133.563 325.383 130.675 326.47C124.89 328.646 117.829 330.5 111.413 330.5V331.5ZM142.767 321.354C142.917 321.204 143.197 320.99 143.625 320.674C144.038 320.367 144.559 319.985 145.144 319.518C146.317 318.584 147.753 317.308 149.16 315.582C151.979 312.123 154.659 306.883 154.913 299.016L153.913 298.984C153.667 306.617 151.076 311.649 148.385 314.95C147.036 316.604 145.657 317.831 144.521 318.736C143.952 319.19 143.446 319.561 143.029 319.87C142.626 320.169 142.274 320.432 142.06 320.646L142.767 321.354ZM154.913 299.016C155.016 295.82 154.119 292.073 152.592 288.165C151.061 284.25 148.885 280.14 146.395 276.207C141.421 268.354 135.156 261.146 130.205 257.594L129.622 258.406C134.428 261.854 140.612 268.946 145.55 276.743C148.015 280.635 150.159 284.688 151.66 288.529C153.164 292.377 154.01 295.98 153.913 298.984L154.913 299.016ZM130.205 257.594C126.364 254.838 120.104 250.557 113.801 246.662C107.516 242.779 101.129 239.243 97.0568 238.021L96.7695 238.979C100.697 240.157 106.977 243.621 113.275 247.513C119.555 251.393 125.796 255.662 129.622 258.406L130.205 257.594ZM97.0568 238.021C92.0456 236.518 86.8385 235.043 82.3006 233.494C77.7486 231.941 73.9479 230.338 71.7201 228.605L71.1062 229.395C73.4811 231.242 77.4303 232.889 81.9777 234.441C86.5391 235.997 91.7806 237.482 96.7695 238.979L97.0568 238.021ZM71.7201 228.605C69.5119 226.888 63.4201 221.174 57.5085 212.836C51.5977 204.498 45.8957 193.577 44.4094 181.439L43.4168 181.561C44.9306 193.923 50.7286 205.002 56.6927 213.414C62.6561 221.826 68.8144 227.612 71.1062 229.395L71.7201 228.605ZM44.4094 181.439C43.2102 171.646 42.7115 165.782 42.5123 162.371C42.4127 160.666 42.3881 159.576 42.3881 158.916C42.3881 158.586 42.3943 158.364 42.4002 158.227C42.4031 158.159 42.406 158.112 42.408 158.084C42.409 158.069 42.4098 158.06 42.4102 158.054C42.4105 158.052 42.4106 158.05 42.4107 158.05C42.4107 158.049 42.4107 158.049 42.4107 158.05C42.4107 158.05 42.4106 158.05 42.4106 158.05C42.4106 158.05 42.4106 158.05 42.4106 158.051C42.4105 158.051 42.4105 158.051 41.9131 158C41.4157 157.949 41.4157 157.949 41.4157 157.95C41.4157 157.95 41.4156 157.95 41.4156 157.95C41.4156 157.951 41.4155 157.951 41.4155 157.952C41.4153 157.953 41.4152 157.954 41.415 157.956C41.4147 157.959 41.4143 157.964 41.4139 157.969C41.413 157.98 41.4118 157.994 41.4105 158.014C41.4078 158.052 41.4044 158.108 41.4011 158.184C41.3945 158.337 41.3881 158.574 41.3881 158.916C41.3881 159.599 41.4136 160.709 41.514 162.429C41.7148 165.868 42.2161 171.754 43.4168 181.561L44.4094 181.439ZM90.8939 448.137C91.9009 444.613 93.2316 438.661 93.96 432.231C94.6871 425.812 94.8203 418.864 93.3971 413.375L92.4291 413.625C93.8059 418.936 93.6891 425.738 92.9663 432.119C92.2446 438.489 90.9253 444.387 89.9324 447.863L90.8939 448.137ZM93.3971 413.375C91.6445 406.614 88.5049 395.805 82.5277 385.99C76.5482 376.171 67.6987 367.299 54.5166 364.511L54.3097 365.489C67.1276 368.201 75.778 376.829 81.6736 386.51C87.5713 396.195 90.6818 406.886 92.4291 413.625L93.3971 413.375ZM54.5166 364.511C41.4149 361.739 29.5242 363.494 20.2042 369.518C10.882 375.542 4.19347 385.797 1.42251 399.904L2.40376 400.096C5.13279 386.203 11.6942 376.208 20.747 370.357C29.802 364.506 41.4114 362.761 54.3097 365.489L54.5166 364.511ZM1.42251 399.904C-0.800026 411.218 1.26603 424.809 4.7191 437.16C8.17523 449.521 13.0389 460.704 16.4706 467.233L17.3557 466.767C13.954 460.296 9.1177 449.179 5.68217 436.89C2.24357 424.591 0.226291 411.182 2.40376 400.096L1.42251 399.904ZM16.4755 467.242C18.2278 470.413 21.0064 475.294 23.6485 479.635C24.9693 481.805 26.2589 483.845 27.3707 485.47C28.4678 487.073 29.4304 488.332 30.093 488.884L30.7332 488.116C30.1958 487.668 29.3084 486.531 28.1961 484.905C27.0986 483.301 25.8194 481.278 24.5027 479.115C21.8699 474.789 19.0985 469.921 17.3508 466.758L16.4755 467.242ZM30.093 488.884C31.5562 490.103 36.296 494.809 42.9179 497.159C46.2401 498.338 50.0512 498.932 54.178 498.203C58.3067 497.474 62.7178 495.426 67.2466 491.373L66.5796 490.627C62.1711 494.574 57.9261 496.526 54.0041 497.219C50.0801 497.912 46.4459 497.35 43.2524 496.216C36.8429 493.941 32.2699 489.397 30.7332 488.116L30.093 488.884ZM83.9253 459.89C82.8793 464.55 82.9065 468.79 83.6717 472.599L84.6521 472.401C83.9151 468.734 83.8851 464.635 84.901 460.11L83.9253 459.89ZM83.6717 472.599C86.1704 485.032 96.5025 492.741 102.713 495.458L103.114 494.542C97.0726 491.899 87.0629 484.398 84.6521 472.401L83.6717 472.599ZM67.2466 491.373C74.4041 484.966 78.7851 480.534 81.3547 477.591C82.6385 476.121 83.4788 475.013 83.988 474.21C84.242 473.809 84.4218 473.471 84.532 473.194C84.6312 472.943 84.7141 472.647 84.647 472.379L83.6769 472.621C83.6619 472.562 83.6918 472.599 83.6024 472.825C83.5239 473.023 83.3795 473.302 83.1433 473.675C82.6723 474.418 81.8685 475.483 80.6015 476.934C78.0694 479.833 73.7217 484.234 66.5796 490.627L67.2466 491.373ZM66.3131 293.7C64.0246 290.649 59.764 286.514 54.3876 283.997C48.9969 281.474 42.4546 280.568 35.6841 284.056L36.1421 284.944C42.5716 281.632 48.7793 282.476 53.9636 284.903C59.1622 287.336 63.3016 291.351 65.5131 294.3L66.3131 293.7ZM35.6841 284.056C27.3467 288.351 21.9194 294.16 18.2076 298.878C17.2801 300.057 16.4596 301.169 15.729 302.169C14.9961 303.173 14.3594 304.057 13.7903 304.797C13.219 305.539 12.7357 306.108 12.3147 306.49C11.8794 306.884 11.5933 307 11.4131 307V308C11.9829 308 12.5093 307.663 12.9861 307.231C13.4772 306.786 14.0056 306.156 14.5828 305.407C15.162 304.654 15.8105 303.753 16.5366 302.759C17.2651 301.761 18.0773 300.661 18.9936 299.497C22.6568 294.84 27.9794 289.149 36.1421 284.944L35.6841 284.056ZM11.4131 307C11.365 307 11.3602 306.99 11.3499 306.978C11.3225 306.946 11.2721 306.857 11.2395 306.659C11.1741 306.261 11.2127 305.633 11.364 304.797C11.6633 303.145 12.3636 300.881 13.2319 298.489C14.9703 293.699 17.3309 288.527 18.3371 286.918L17.4891 286.388C16.4255 288.089 14.0362 293.341 12.2919 298.148C11.419 300.553 10.6949 302.881 10.38 304.619C10.2243 305.479 10.1584 306.247 10.2528 306.821C10.3001 307.109 10.3957 307.4 10.588 307.626C10.7975 307.873 11.0862 308 11.4131 308V307ZM18.3371 286.918C23.2439 279.067 29.8214 276.005 36.9466 274.897C40.5211 274.341 44.2331 274.278 47.9476 274.356C51.6395 274.433 55.3837 274.653 58.9131 274.653V273.653C55.3848 273.653 51.7251 273.435 47.9686 273.356C44.2348 273.278 40.4541 273.339 36.793 273.909C29.4471 275.051 22.5822 278.239 17.4891 286.388L18.3371 286.918ZM58.9131 274.653C60.3197 274.653 62.2971 275.117 64.1486 276.18C65.9937 277.238 67.6834 278.873 68.5711 281.193C70.34 285.814 69.0116 293.449 58.5403 305.167L59.286 305.833C69.8147 294.051 71.4863 286.012 69.5051 280.835C68.5178 278.255 66.645 276.459 64.6464 275.312C62.6542 274.169 60.5065 273.653 58.9131 273.653V274.653ZM58.5403 305.167C41.7429 323.964 31.2167 334.989 28.0596 338.146L28.7667 338.854C31.9429 335.677 42.4833 324.636 59.286 305.833L58.5403 305.167ZM65.9487 293.501C64.759 293.416 62.8778 293.391 61.0827 293.591C60.1852 293.691 59.2952 293.848 58.518 294.09C57.7499 294.328 57.0433 294.663 56.5595 295.146L57.2666 295.854C57.5829 295.537 58.1096 295.264 58.8145 295.045C59.5102 294.829 60.3326 294.68 61.1934 294.584C62.9151 294.393 64.7338 294.417 65.8775 294.499L65.9487 293.501ZM56.5595 295.146C56.3355 295.37 55.6519 295.936 54.5897 296.77C53.5398 297.594 52.1464 298.66 50.5273 299.873C47.2891 302.3 43.1534 305.312 39.0653 308.152C34.9744 310.994 30.9423 313.655 27.9076 315.386C26.3846 316.255 25.1397 316.873 24.2741 317.168C23.8309 317.32 23.5461 317.365 23.3932 317.353C23.3228 317.348 23.3273 317.333 23.3569 317.357C23.3983 317.389 23.4081 317.43 23.4081 317.429L22.4181 317.571C22.4493 317.789 22.5509 317.996 22.7409 318.144C22.9192 318.284 23.1292 318.336 23.3175 318.35C23.6819 318.378 24.1271 318.275 24.597 318.115C25.5576 317.787 26.8713 317.128 28.403 316.255C31.4776 314.501 35.5393 311.819 39.6358 308.973C43.7353 306.125 47.8808 303.106 51.127 300.674C52.7501 299.457 54.1497 298.387 55.2072 297.556C56.2524 296.736 56.9907 296.13 57.2666 295.854L56.5595 295.146ZM23.4081 317.429C23.303 316.694 23.5093 315.8 23.9938 314.824C24.4749 313.854 25.2088 312.847 26.0907 311.904C27.8657 310.007 30.1611 308.453 32.0344 307.985L31.7918 307.015C29.6651 307.547 27.2105 309.243 25.3605 311.221C24.4299 312.216 23.6326 313.302 23.098 314.379C22.5669 315.45 22.2732 316.556 22.4181 317.571L23.4081 317.429ZM32.0344 307.985C34.0173 307.489 41.4608 305.878 48.6373 306.249C52.2273 306.435 55.7008 307.115 58.3851 308.638C61.0457 310.148 62.9404 312.488 63.4175 316.066L64.4087 315.934C63.8858 312.012 61.7805 309.415 58.8786 307.768C56.0004 306.135 52.3489 305.44 48.6889 305.251C41.3653 304.872 33.8089 306.511 31.7918 307.015L32.0344 307.985ZM63.4175 316.066C63.8125 319.029 63.6613 321.038 63.2146 322.399C62.7749 323.738 62.0469 324.458 61.2282 324.865C60.3859 325.283 59.4051 325.391 58.431 325.414C57.937 325.426 57.4888 325.416 57.0368 325.419C56.6055 325.422 56.1788 325.437 55.815 325.51L56.0111 326.49C56.2724 326.438 56.6144 326.422 57.0436 326.419C57.4523 326.416 57.9564 326.426 58.4546 326.414C59.4649 326.39 60.6278 326.279 61.673 325.76C62.7417 325.229 63.6451 324.293 64.1647 322.711C64.6774 321.149 64.8136 318.971 64.4087 315.934L63.4175 316.066ZM55.7886 325.516C52.8591 326.269 48.3402 327.599 44.297 329.145C42.2763 329.918 40.3622 330.749 38.8211 331.594C37.3048 332.426 36.0639 333.315 35.4891 334.235L36.3371 334.765C36.7623 334.085 37.7922 333.299 39.3019 332.471C40.7869 331.657 42.6541 330.844 44.6542 330.08C48.6527 328.551 53.1337 327.231 56.0376 326.484L55.7886 325.516ZM37.0712 339.974C37.7968 339.732 38.9904 339.416 40.1907 339.258C40.7903 339.18 41.38 339.142 41.9073 339.17C42.4401 339.198 42.8757 339.29 43.1895 339.447L43.6367 338.553C43.1505 338.31 42.5611 338.202 41.9595 338.171C41.3524 338.139 40.6983 338.183 40.0605 338.267C38.7858 338.434 37.5293 338.768 36.755 339.026L37.0712 339.974ZM43.1895 339.447C43.8957 339.8 44.507 340.403 44.9896 341.039C45.4705 341.674 45.7986 342.31 45.9488 342.686L46.8773 342.314C46.6943 341.857 46.3223 341.142 45.7866 340.436C45.2525 339.731 44.5304 339 43.6367 338.553L43.1895 339.447ZM46.883 342.329C46.554 341.424 46.1118 340.047 45.8516 338.856C45.7206 338.256 45.6417 337.73 45.6381 337.344C45.6362 337.149 45.6541 337.019 45.6772 336.944C45.7012 336.865 45.7087 336.911 45.6367 336.947L45.1895 336.053C44.9175 336.189 44.7854 336.44 44.7209 336.651C44.6554 336.866 44.6358 337.11 44.6381 337.353C44.6428 337.843 44.7389 338.448 44.8746 339.069C45.1477 340.319 45.6055 341.742 45.9432 342.671L46.883 342.329ZM45.6367 336.947C45.5925 336.969 45.5868 336.955 45.6718 336.957C45.7458 336.958 45.8526 336.97 45.9961 336.997C46.2826 337.052 46.6596 337.157 47.1102 337.304C48.0099 337.596 49.1361 338.028 50.2986 338.468C51.4522 338.904 52.6397 339.348 53.6348 339.65C54.132 339.801 54.5951 339.922 54.9903 339.987C55.3624 340.049 55.7582 340.079 56.0712 339.974L55.755 339.026C55.693 339.046 55.5107 339.06 55.1543 339.001C54.821 338.946 54.4051 338.839 53.9257 338.693C52.9677 338.402 51.8114 337.971 50.6525 337.532C49.5025 337.097 48.3475 336.654 47.4191 336.353C46.9556 336.202 46.5318 336.081 46.1835 336.015C46.0097 335.982 45.8406 335.959 45.6868 335.957C45.5441 335.955 45.3586 335.968 45.1895 336.053L45.6367 336.947ZM56.0712 339.974C56.5054 339.83 56.8494 339.593 57.0547 339.244C57.259 338.897 57.2833 338.511 57.2244 338.152C57.1112 337.462 56.6631 336.707 56.2032 336.046C55.7385 335.379 55.1802 334.699 54.8139 334.214C54.6207 333.958 54.4858 333.763 54.4135 333.627C54.3758 333.557 54.3738 333.536 54.3765 333.551C54.3788 333.563 54.4023 333.718 54.2666 333.854L53.5595 333.146C53.3614 333.345 53.368 333.593 53.3923 333.728C53.417 333.865 53.4758 333.994 53.5309 334.098C53.6441 334.31 53.8226 334.56 54.0158 334.816C54.4224 335.355 54.929 335.966 55.3825 336.617C55.8409 337.276 56.1644 337.868 56.2375 338.314C56.2718 338.522 56.2429 338.652 56.1928 338.737C56.1438 338.82 56.0322 338.933 55.755 339.026L56.0712 339.974ZM54.2666 333.854C54.2207 333.899 54.1765 333.923 54.1537 333.933C54.1298 333.944 54.1134 333.948 54.1103 333.949C54.1054 333.95 54.119 333.947 54.1606 333.945C54.2424 333.941 54.3706 333.945 54.55 333.96C54.9049 333.991 55.3971 334.06 55.9882 334.157C57.1684 334.352 58.6903 334.647 60.1959 334.929C61.6933 335.21 63.1771 335.478 64.2573 335.613C64.7905 335.68 65.2584 335.719 65.5875 335.701C65.7343 335.694 65.9382 335.673 66.1059 335.581C66.1995 335.53 66.3346 335.428 66.3974 335.243C66.4621 335.053 66.4139 334.884 66.3603 334.776L65.4659 335.224C65.4435 335.179 65.4022 335.064 65.4507 334.921C65.4974 334.784 65.5934 334.722 65.6265 334.704C65.6731 334.678 65.67 334.696 65.5355 334.703C65.3022 334.715 64.9107 334.687 64.3814 334.621C63.3365 334.49 61.8828 334.228 60.3802 333.946C58.8859 333.666 57.3453 333.367 56.1505 333.171C55.5541 333.073 55.0306 332.998 54.6356 332.964C54.4399 332.947 54.2595 332.939 54.1109 332.946C54.0373 332.95 53.9551 332.958 53.8756 332.977C53.8104 332.993 53.6738 333.032 53.5595 333.146L54.2666 333.854ZM66.3603 334.776C66.2652 334.586 66.0759 334.348 65.8575 334.103C65.6278 333.845 65.33 333.542 64.9826 333.214C64.2876 332.559 63.3792 331.794 62.39 331.092C61.4034 330.392 60.3198 329.743 59.2759 329.332C58.2478 328.927 57.1732 328.72 56.255 329.026L56.5712 329.974C57.153 329.78 57.9533 329.886 58.9096 330.262C59.8501 330.632 60.8603 331.233 61.8112 331.908C62.7595 332.581 63.6323 333.316 64.2967 333.942C64.6289 334.255 64.9054 334.538 65.1112 334.768C65.3284 335.012 65.436 335.164 65.4659 335.224L66.3603 334.776ZM56.255 329.026C53.236 330.032 39.9364 334.479 37.7918 335.015L38.0344 335.985C40.2283 335.437 53.5902 330.968 56.5712 329.974L56.255 329.026ZM35.4891 334.235C35.2557 334.608 35.0687 334.964 34.9238 335.304L35.8434 335.696C35.9657 335.41 36.1276 335.1 36.3371 334.765L35.4891 334.235ZM34.9417 335.266C34.8469 335.445 34.8089 335.65 34.7949 335.836C34.7804 336.029 34.7891 336.239 34.8134 336.454C34.8621 336.883 34.9779 337.369 35.139 337.832C35.2996 338.295 35.5126 338.758 35.7663 339.134C36.007 339.491 36.3415 339.857 36.7757 339.981L37.0504 339.019C36.9659 338.995 36.8005 338.879 36.5955 338.575C36.4035 338.29 36.225 337.912 36.0836 337.504C35.9427 337.098 35.8461 336.686 35.807 336.341C35.7875 336.169 35.7836 336.024 35.7921 335.911C35.7963 335.855 35.8032 335.812 35.8108 335.78C35.8145 335.765 35.818 335.753 35.8209 335.745C35.8238 335.737 35.8256 335.734 35.8255 335.734L34.9417 335.266ZM37.7918 335.015C36.8706 335.245 36.3724 335.16 36.1034 335.082C36.031 335.061 35.9688 335.039 35.9071 335.016C35.8562 334.997 35.7734 334.966 35.6992 334.946C35.6277 334.927 35.4749 334.893 35.3037 334.95C35.1096 335.014 35.0001 335.156 34.9417 335.266L35.8255 335.734C35.8112 335.761 35.7514 335.855 35.6183 335.899C35.5079 335.936 35.4273 335.909 35.4449 335.913C35.4599 335.917 35.4833 335.926 35.5612 335.954C35.6285 335.979 35.7179 336.012 35.8257 336.043C36.2773 336.173 36.9556 336.255 38.0344 335.985L37.7918 335.015Z" fill="white" fill-opacity="0.15"/>
</svg>
