<svg width="191" height="662" viewBox="0 0 191 662" fill="none" xmlns="http://www.w3.org/2000/svg">
<path d="M7.91313 1C7.91313 0.447715 7.46542 0 6.91313 0C6.36085 0 5.91313 0.447715 5.91313 1H7.91313ZM6.91313 88L7.89895 88.1678C7.90839 88.1124 7.91313 88.0562 7.91313 88H6.91313ZM5.41313 115.5L6.37096 115.213L5.41313 115.5ZM22.9131 126.5L23.698 127.12L22.9131 126.5ZM65.4131 94.5L65.3904 95.4997C65.9282 95.512 66.3793 95.0965 66.4113 94.5596C66.4434 94.0226 66.0449 93.5565 65.5094 93.5046L65.4131 94.5ZM34.9131 94.5L34.6554 93.5338L34.9131 94.5ZM25.9131 127.5L26.4678 126.668L25.9131 127.5ZM36.9131 141.5L35.9267 141.664C36.0011 142.111 36.366 142.452 36.8164 142.495C37.2669 142.539 37.6905 142.275 37.8494 141.851L36.9131 141.5ZM57.9131 117L58.5821 117.743C58.981 117.384 59.0254 116.774 58.6825 116.361C58.3397 115.948 57.732 115.88 57.3056 116.206L57.9131 117ZM49.4131 129.5L49.7642 130.436C49.8414 130.407 49.9146 130.369 49.9823 130.322L49.4131 129.5ZM43.9131 141.5L42.9232 141.359C42.8828 141.641 42.9652 141.928 43.1497 142.146L43.9131 141.5ZM49.4131 148L48.6497 148.646C48.9678 149.022 49.5121 149.11 49.9328 148.854C50.3534 148.599 50.5253 148.075 50.3378 147.619L49.4131 148ZM55.9131 125L56.8211 125.419C57.01 125.01 56.9017 124.524 56.5565 124.234C56.2113 123.944 55.7146 123.921 55.3439 124.178L55.9131 125ZM49.428 660.828C49.3331 661.372 49.6972 661.89 50.2413 661.985C50.7854 662.08 51.3034 661.716 51.3983 661.172L49.428 660.828ZM50.4131 596L51.3596 595.677L50.4131 596ZM53.9131 536L53.1323 535.375L53.9131 536ZM76.9131 499.5L77.7834 499.993C77.8342 499.903 77.8708 499.806 77.8919 499.705L76.9131 499.5ZM46.9131 455L46.3584 455.832L46.9131 455ZM84.4131 460L85.3888 460.219L84.4131 460ZM102.913 495L102.512 495.916C102.62 495.963 102.735 495.991 102.852 495.998L102.913 495ZM158.413 452L159.238 451.435L159.232 451.427L158.413 452ZM146.413 436L145.545 435.504L146.413 436ZM117.913 430.5L118.008 429.504L117.913 430.5ZM149.913 429.5L150.675 430.148C150.732 430.081 150.779 430.007 150.817 429.928L149.913 429.5ZM144.913 413.5L143.929 413.676L144.913 413.5ZM143.913 397.5L144.894 397.696L143.913 397.5ZM102.413 428L101.773 427.232C101.426 427.521 101.316 428.006 101.504 428.417C101.692 428.827 102.132 429.061 102.578 428.986L102.413 428ZM128.413 413.5L127.875 412.657C127.803 412.703 127.736 412.759 127.678 412.822L128.413 413.5ZM148.413 396L149.277 395.496L148.413 396ZM134.913 340L134.449 340.886L134.913 340ZM133.413 311L132.79 310.218C132.771 310.233 132.753 310.249 132.735 310.265L133.413 311ZM160.413 289.5L161.036 290.282C161.068 290.257 161.099 290.229 161.128 290.199L160.413 289.5ZM185.913 254L186.886 254.233L185.913 254ZM184.413 214L185.204 213.389L184.413 214ZM150.413 199L149.913 199.866C149.945 199.885 149.978 199.901 150.012 199.916L150.413 199ZM119.413 167.5L120.357 167.17L119.413 167.5ZM114.413 138.5L115.383 138.743C115.418 138.605 115.422 138.461 115.397 138.321L114.413 138.5ZM133.413 95L133.476 94.0019L133.413 95ZM170.913 128.5L171.805 128.047C171.789 128.016 171.772 127.987 171.753 127.958L170.913 128.5ZM180.413 187.5L179.552 186.992L180.413 187.5ZM96.9131 199.5L96.0683 200.035L96.9131 199.5ZM93.9131 160L92.9613 159.693C92.9559 159.71 92.951 159.727 92.9466 159.744L93.9131 160ZM103.413 130.5L104.365 130.807C104.379 130.763 104.39 130.718 104.398 130.672L103.413 130.5ZM84.9131 96L84.7551 96.9874L84.9131 96ZM38.9131 122L39.7131 122.6L38.9131 122ZM22.9131 202L21.9369 201.783L22.9131 202ZM47.9131 229L48.2845 228.072L47.9131 229ZM53.4131 239L52.4342 238.796L53.4131 239ZM68.4131 255L68.2717 255.99L68.4131 255ZM78.4131 279L77.8986 279.857L78.4131 279ZM85.9131 297.5L84.9141 297.457L85.9131 297.5ZM89.9131 320L90.7401 319.438L89.9131 320ZM154.413 299L153.414 298.968L154.413 299ZM129.913 258L129.33 258.813L129.913 258ZM96.9131 238.5L97.2005 237.542L96.9131 238.5ZM71.4131 229L70.7992 229.789L71.4131 229ZM43.9131 181.5L44.9057 181.378L43.9131 181.5ZM42.9079 158.102C42.9643 157.553 42.5646 157.062 42.0152 157.005C41.4658 156.949 40.9747 157.349 40.9184 157.898L42.9079 158.102ZM89.4516 447.725C89.2999 448.256 89.6074 448.81 90.1384 448.962C90.6694 449.113 91.2229 448.806 91.3747 448.275L89.4516 447.725ZM92.9131 413.5L93.8811 413.249L92.9131 413.5ZM1.91313 400L2.89438 400.193L1.91313 400ZM16.9131 467L16.028 467.465C16.0312 467.471 16.0345 467.478 16.0379 467.484L16.9131 467ZM30.4131 488.5L31.0533 487.732L30.4131 488.5ZM66.9131 491L67.58 491.745L66.9131 491ZM65.9131 294L65.8418 294.997C66.2325 295.025 66.6035 294.823 66.791 294.479C66.9785 294.135 66.9481 293.713 66.7131 293.4L65.9131 294ZM35.9131 284.5L36.371 285.389L35.9131 284.5ZM17.9131 286.653L17.0651 286.123L17.9131 286.653ZM58.9131 305.5L58.1675 304.834L58.9131 305.5ZM63.9131 316L62.9219 316.132L63.9131 316ZM55.9131 326L55.717 325.019C55.6992 325.023 55.6816 325.027 55.664 325.031L55.9131 326ZM35.9131 334.5L35.0651 333.97L35.9131 334.5ZM36.9131 339.5L36.6384 340.462C36.8321 340.517 37.0381 340.512 37.2293 340.449L36.9131 339.5ZM46.4131 342.5L45.4846 342.871C45.6874 343.378 46.2595 343.629 46.7697 343.434C47.2799 343.24 47.5395 342.671 47.3529 342.158L46.4131 342.5ZM55.9131 339.5L56.2293 340.449L55.9131 339.5ZM5.91313 1V88H7.91313V1H5.91313ZM5.92731 87.8322C5.25609 91.7756 4.50189 97.4318 4.10343 102.738C3.90422 105.39 3.79282 107.97 3.82731 110.211C3.86143 112.429 4.03866 114.399 4.45531 115.787L6.37096 115.213C6.0376 114.101 5.86065 112.363 5.82707 110.18C5.79384 108.02 5.9012 105.506 6.09782 102.887C6.49103 97.6515 7.23684 92.0577 7.89895 88.1678L5.92731 87.8322ZM4.45531 115.787C5.17632 118.191 7.82293 123.378 11.2489 126.834C12.9582 128.558 14.9874 129.981 17.1863 130.273C19.487 130.578 21.7242 129.62 23.698 127.12L22.1282 125.88C20.4855 127.961 18.8964 128.482 17.4496 128.29C15.901 128.085 14.2614 127.032 12.6693 125.426C9.4923 122.221 7.00537 117.327 6.37096 115.213L4.45531 115.787ZM23.698 127.12C27.542 122.251 32.5452 114.283 39.4295 107.46C46.2741 100.677 54.776 95.2585 65.3904 95.4997L65.4358 93.5003C54.0502 93.2415 45.0522 99.0726 38.0217 106.04C31.0311 112.967 25.7842 121.249 22.1282 125.88L23.698 127.12ZM65.5094 93.5046C57.7359 92.7524 51.265 92.4326 46.1292 92.4617C41.0118 92.4907 37.1597 92.866 34.6554 93.5338L35.1708 95.4662C37.4247 94.8652 41.0725 94.4904 46.1406 94.4617C51.1902 94.433 57.5903 94.7476 65.3168 95.4954L65.5094 93.5046ZM34.6554 93.5338C30.8823 94.5399 25.0384 96.3273 19.9303 99.1431C14.8716 101.932 10.2478 105.888 9.42428 111.351L11.4019 111.649C12.0784 107.162 15.9546 103.619 20.8959 100.895C25.7878 98.1979 31.4439 96.4601 35.1708 95.4662L34.6554 93.5338ZM9.42428 111.351C8.58443 116.922 12.2245 120.8 16.0396 123.392C17.9683 124.703 20.018 125.741 21.7271 126.553C22.1551 126.757 22.5637 126.947 22.9433 127.123C23.3244 127.301 23.6741 127.463 23.9913 127.614C24.6425 127.924 25.0943 128.156 25.3584 128.332L26.4678 126.668C26.066 126.4 25.487 126.11 24.8502 125.808C24.5234 125.652 24.1647 125.486 23.7866 125.31C23.407 125.133 23.0054 124.946 22.5858 124.747C20.9045 123.948 18.9645 122.962 17.1637 121.738C13.5198 119.262 10.7418 116.028 11.4019 111.649L9.42428 111.351ZM25.3584 128.332C26.0147 128.77 26.9845 129.642 28.1082 130.804C29.2175 131.952 30.4319 133.335 31.5714 134.752C32.7121 136.17 33.766 137.607 34.5602 138.863C35.3833 140.164 35.8386 141.135 35.9267 141.664L37.8995 141.336C37.7376 140.365 37.0679 139.086 36.2504 137.794C35.404 136.455 34.3016 134.955 33.1298 133.498C31.9568 132.04 30.7025 130.611 29.5462 129.414C28.4042 128.233 27.3116 127.23 26.4678 126.668L25.3584 128.332ZM37.8494 141.851C38.5708 139.927 40.414 136.233 42.4063 132.746C43.3984 131.01 44.4153 129.347 45.3331 128.001C46.2745 126.62 47.0439 125.676 47.5378 125.281L46.2884 123.719C45.5323 124.324 44.6142 125.505 43.6806 126.874C42.7234 128.278 41.6778 129.99 40.6699 131.754C38.6622 135.267 36.7554 139.073 35.9768 141.149L37.8494 141.851ZM47.5378 125.281C49.0535 124.068 51.0513 122.762 53.064 121.466C55.0504 120.186 57.0633 118.909 58.5205 117.794L57.3056 116.206C55.9295 117.258 54.0049 118.481 51.9809 119.784C49.9833 121.071 47.8977 122.432 46.2884 123.719L47.5378 125.281ZM57.2441 116.257C55.5493 117.782 53.0786 120.251 51.1724 122.713C50.2221 123.94 49.3808 125.205 48.8541 126.378C48.3513 127.497 48.0188 128.785 48.494 129.894L50.3323 129.106C50.2074 128.815 50.2208 128.216 50.6784 127.197C51.1121 126.232 51.8458 125.11 52.7538 123.937C54.5642 121.599 56.9435 119.218 58.5821 117.743L57.2441 116.257ZM49.062 128.564C47.9886 128.966 47.1311 129.836 46.451 130.821C45.7619 131.82 45.1875 133.035 44.7153 134.284C43.7704 136.782 43.1806 139.556 42.9232 141.359L44.9031 141.641C45.1456 139.944 45.7058 137.318 46.5859 134.991C47.0262 133.827 47.5331 132.774 48.0971 131.957C48.6702 131.127 49.2376 130.634 49.7642 130.436L49.062 128.564ZM43.1497 142.146L48.6497 148.646L50.1765 147.354L44.6765 140.854L43.1497 142.146ZM50.3378 147.619C49.7849 146.276 49.1157 144.051 48.9219 141.802C48.7246 139.51 49.0408 137.444 50.1657 136.159L48.6605 134.841C46.9854 136.756 46.7183 139.523 46.9293 141.973C47.1439 144.465 47.8747 146.89 48.4884 148.381L50.3378 147.619ZM50.1657 136.159C53.0616 132.849 55.8094 127.611 56.8211 125.419L55.0052 124.581C54.0168 126.722 51.3647 131.751 48.6605 134.841L50.1657 136.159ZM55.3439 124.178L48.8439 128.678L49.9823 130.322L56.4823 125.822L55.3439 124.178ZM51.3983 661.172C52.6551 653.966 54.1607 642.07 54.6 629.761C55.0382 617.483 54.4222 604.661 51.3596 595.677L49.4666 596.323C52.4041 604.939 53.0381 617.45 52.6013 629.689C52.1656 641.897 50.6711 653.701 49.428 660.828L51.3983 661.172ZM51.3596 595.677C47.6604 584.826 46.5435 572.464 47.3479 561.574C48.1558 550.636 50.8857 541.385 54.694 536.625L53.1323 535.375C48.9406 540.615 46.1704 550.364 45.3533 561.426C44.5328 572.536 45.6659 585.174 49.4666 596.323L51.3596 595.677ZM54.694 536.625C61.1535 528.55 72.7929 508.809 77.7834 499.993L76.0429 499.007C71.0334 507.858 59.4728 527.45 53.1323 535.375L54.694 536.625ZM77.8919 499.705C79.5068 491.989 75.2602 472.696 47.4678 454.168L46.3584 455.832C73.7661 474.104 77.3195 492.677 75.9343 499.295L77.8919 499.705ZM47.4678 454.168C30.3254 442.74 20.8542 431.498 16.0774 420.72C11.3049 409.951 11.1715 399.539 12.8982 389.672L10.9281 389.328C9.15478 399.461 9.27138 410.299 14.2489 421.53C19.2221 432.752 29.0008 444.26 46.3584 455.832L47.4678 454.168ZM12.8982 389.672C14.658 379.616 16.3949 367.07 18.8843 356.926C20.1289 351.854 21.5432 347.466 23.2029 344.336C24.8972 341.139 26.6621 339.594 28.4657 339.499L28.3606 337.501C25.4142 337.656 23.1791 340.111 21.4359 343.399C19.6581 346.752 18.1974 351.333 16.9419 356.449C14.4313 366.68 12.6683 379.384 10.9281 389.328L12.8982 389.672ZM28.4657 339.499C29.4192 339.448 30.9026 339.795 32.8667 340.628C34.7998 341.447 37.0926 342.69 39.6239 344.311C44.6846 347.551 50.6315 352.257 56.4637 357.965C68.1557 369.408 79.2312 384.726 81.928 400.172L83.8982 399.828C81.0951 383.774 69.6706 368.092 57.8626 356.535C51.9447 350.743 45.8917 345.949 40.7023 342.627C38.1086 340.966 35.714 339.662 33.6471 338.786C31.6111 337.923 29.7821 337.427 28.3606 337.501L28.4657 339.499ZM81.928 400.172C84.6862 415.969 86.4181 424.754 86.7892 432.672C87.1579 440.538 86.1811 447.559 83.4374 459.781L85.3888 460.219C88.1452 447.941 89.1683 440.712 88.787 432.578C88.4082 424.496 86.6401 415.531 83.8982 399.828L81.928 400.172ZM102.852 495.998C109.764 496.42 119.368 496.042 128.717 493.721C138.051 491.403 147.253 487.116 153.197 479.621L151.63 478.379C146.073 485.384 137.358 489.514 128.235 491.779C119.125 494.042 109.729 494.414 102.974 494.002L102.852 495.998ZM153.197 479.621C159.041 472.253 161.184 466.109 161.535 461.323C161.887 456.539 160.44 453.191 159.238 451.435L157.588 452.565C158.553 453.976 159.856 456.878 159.541 461.177C159.225 465.475 157.285 471.247 151.63 478.379L153.197 479.621ZM159.232 451.427C158.255 450.03 156.696 448.759 155.095 447.572C153.438 446.343 151.744 445.209 150.233 443.975C148.728 442.747 147.581 441.553 147.016 440.331C146.488 439.187 146.442 437.965 147.281 436.496L145.545 435.504C144.384 437.535 144.401 439.438 145.201 441.169C145.964 442.822 147.411 444.253 148.968 445.525C150.52 446.791 152.357 448.032 153.903 449.178C155.506 450.366 156.822 451.47 157.594 452.573L159.232 451.427ZM147.281 436.496C149.301 432.962 149.077 428.887 146.89 426.144C144.66 423.347 140.619 422.201 135.567 424.062L136.259 425.938C140.708 424.299 143.76 425.426 145.327 427.391C146.937 429.41 147.213 432.584 145.545 435.504L147.281 436.496ZM135.567 424.062C130.698 425.856 126.854 428.42 123.627 430.468C121.999 431.501 120.551 432.389 119.181 433.022C117.817 433.652 116.59 434 115.413 434V436C116.986 436 118.51 435.535 120.02 434.837C121.525 434.142 123.077 433.186 124.699 432.157C127.972 430.08 131.628 427.644 136.259 425.938L135.567 424.062ZM115.413 434C114.136 434 113.622 433.701 113.47 433.54C113.41 433.476 113.325 433.365 113.501 433.045C113.91 432.304 115.458 431.271 117.819 431.496L118.008 429.504C115.101 429.229 112.65 430.446 111.75 432.08C111.272 432.947 111.206 434.055 112.015 434.913C112.734 435.674 113.94 436 115.413 436V434ZM117.819 431.496C118.221 431.534 118.884 431.686 119.827 431.941C120.757 432.193 121.854 432.515 123.136 432.873C125.67 433.582 128.797 434.396 132.079 434.882C138.564 435.841 146.06 435.577 150.675 430.148L149.151 428.852C145.266 433.423 138.763 433.849 132.372 432.903C129.217 432.436 126.187 431.649 123.674 430.947C122.433 430.6 121.284 430.264 120.349 430.011C119.427 429.761 118.605 429.561 118.008 429.504L117.819 431.496ZM150.817 429.928C151.796 427.861 152.024 426 151.756 424.294C151.49 422.608 150.75 421.148 149.915 419.857C149.497 419.211 149.047 418.595 148.612 418.012C148.171 417.42 147.754 416.873 147.371 416.326C146.598 415.223 146.066 414.265 145.898 413.324L143.929 413.676C144.177 415.069 144.929 416.327 145.733 417.474C146.139 418.052 146.585 418.638 147.009 419.207C147.439 419.784 147.856 420.356 148.236 420.943C148.997 422.119 149.576 423.309 149.78 424.606C149.981 425.883 149.83 427.339 149.009 429.072L150.817 429.928ZM144.894 397.696C145.201 396.159 144.742 394.06 144.016 392.41C143.645 391.566 143.17 390.76 142.615 390.148C142.081 389.561 141.332 389 140.413 389V391C140.494 391 140.745 391.064 141.134 391.492C141.5 391.896 141.869 392.497 142.185 393.215C142.834 394.69 143.125 396.341 142.933 397.304L144.894 397.696ZM140.413 389C139.224 389 137.584 389.429 136.029 390.077C134.463 390.729 132.833 391.666 131.706 392.793L133.12 394.207C133.994 393.334 135.364 392.521 136.798 391.923C138.243 391.321 139.602 391 140.413 391V389ZM131.706 392.793C129.154 395.345 128.098 396.918 126.132 399.375L127.694 400.625C129.728 398.082 130.672 396.655 133.12 394.207L131.706 392.793ZM126.132 399.375C125.122 400.638 119.761 407.495 114.269 414.111C111.522 417.419 108.755 420.652 106.493 423.085C105.361 424.303 104.369 425.304 103.579 426.01C103.183 426.364 102.854 426.628 102.595 426.806C102.304 427.005 102.206 427.021 102.249 427.014L102.578 428.986C102.995 428.917 103.401 428.678 103.726 428.455C104.084 428.21 104.483 427.884 104.911 427.502C105.77 426.735 106.809 425.682 107.958 424.447C110.259 421.973 113.054 418.706 115.808 415.389C121.315 408.755 126.704 401.862 127.694 400.625L126.132 399.375ZM103.053 428.768C103.845 428.108 106.681 426.619 110.823 426.996L111.004 425.004C106.345 424.581 102.981 426.225 101.773 427.232L103.053 428.768ZM110.823 426.996C112.226 427.123 113.838 426.543 115.41 425.708C117.019 424.854 118.747 423.645 120.434 422.309C123.81 419.635 127.123 416.372 129.148 414.178L127.678 412.822C125.703 414.962 122.466 418.148 119.192 420.741C117.554 422.039 115.932 423.167 114.472 423.942C112.976 424.736 111.8 425.077 111.004 425.004L110.823 426.996ZM145.898 413.324C145.633 411.842 145.251 409.898 144.899 407.82L142.927 408.154C143.279 410.231 143.674 412.252 143.929 413.676L145.898 413.324ZM144.899 407.82C144.145 403.364 144.598 399.174 144.894 397.696L142.933 397.304C142.598 398.976 142.125 403.415 142.927 408.154L144.899 407.82ZM128.951 414.343C130.749 413.194 133.672 411.543 136.573 410.334C138.024 409.729 139.441 409.247 140.691 408.987C141.968 408.722 142.947 408.717 143.594 408.935L144.232 407.039C143.08 406.651 141.679 406.74 140.285 407.029C138.865 407.324 137.319 407.856 135.803 408.488C132.771 409.752 129.744 411.463 127.875 412.657L128.951 414.343ZM144.512 408.787C145.929 407.727 147.868 405.825 149.096 403.514C150.332 401.19 150.914 398.303 149.277 395.496L147.549 396.504C148.712 398.497 148.378 400.605 147.33 402.576C146.275 404.56 144.564 406.251 143.314 407.186L144.512 408.787ZM149.277 395.496C148.294 393.811 146.717 392.429 145.019 391.262C143.314 390.09 141.403 389.08 139.692 388.178C137.944 387.256 136.452 386.47 135.446 385.71C134.945 385.331 134.639 385.013 134.481 384.754C134.341 384.525 134.342 384.39 134.375 384.275L132.452 383.725C132.234 384.485 132.407 385.194 132.773 385.795C133.121 386.366 133.655 386.864 134.24 387.306C135.406 388.186 137.07 389.056 138.759 389.947C140.486 390.858 142.293 391.816 143.886 392.91C145.484 394.008 146.782 395.189 147.549 396.504L149.277 395.496ZM134.375 384.275C134.531 383.726 134.622 382.954 134.672 382.084C134.724 381.195 134.737 380.136 134.718 378.975C134.678 376.653 134.504 373.889 134.22 371.207C133.937 368.53 133.54 365.904 133.049 363.867C132.805 362.853 132.528 361.948 132.214 361.245C132.056 360.894 131.877 360.562 131.666 360.285C131.463 360.018 131.177 359.728 130.785 359.572L130.042 361.428C129.962 361.397 129.981 361.373 130.073 361.495C130.159 361.608 130.267 361.791 130.388 362.062C130.63 362.603 130.873 363.373 131.105 364.336C131.567 366.253 131.952 368.783 132.231 371.418C132.51 374.048 132.679 376.753 132.718 379.009C132.737 380.138 132.723 381.145 132.676 381.968C132.627 382.812 132.545 383.399 132.452 383.725L134.375 384.275ZM130.785 359.572C130.553 359.479 130.126 359.242 129.443 358.852C128.794 358.481 127.973 358.008 127.031 357.508C125.149 356.507 122.746 355.375 120.113 354.66C117.48 353.945 114.567 353.632 111.687 354.325C108.785 355.022 105.995 356.724 103.613 359.9L105.213 361.1C107.331 358.276 109.729 356.853 112.155 356.269C114.603 355.68 117.158 355.93 119.589 356.59C122.017 357.25 124.271 358.305 126.092 359.274C127.002 359.757 127.794 360.214 128.451 360.589C129.076 360.945 129.649 361.271 130.042 361.428L130.785 359.572ZM103.613 359.9C101.364 362.899 99.534 365.391 98.1553 367.49C96.7838 369.579 95.8137 371.346 95.3333 372.89C94.8436 374.465 94.8385 375.891 95.5073 377.198C96.1525 378.459 97.3494 379.454 98.9093 380.364L99.917 378.636C98.4768 377.796 97.6737 377.041 97.2878 376.287C96.9252 375.578 96.8577 374.723 97.243 373.485C97.6376 372.216 98.48 370.64 99.8272 368.588C101.167 366.547 102.962 364.101 105.213 361.1L103.613 359.9ZM98.9093 380.364C99.9631 380.979 101.236 380.995 102.502 380.733C103.781 380.469 105.193 379.893 106.653 379.138C109.578 377.628 112.885 375.303 116.018 372.921C119.149 370.542 122.183 368.046 124.5 366.223C125.671 365.302 126.652 364.558 127.395 364.062C127.768 363.812 128.052 363.645 128.252 363.551C128.352 363.503 128.403 363.487 128.417 363.484C128.445 363.477 128.339 363.512 128.171 363.47L128.656 361.53C128.362 361.456 128.094 361.503 127.926 361.545C127.741 361.592 127.561 361.665 127.396 361.743C127.065 361.9 126.687 362.129 126.283 362.399C125.471 362.942 124.436 363.729 123.264 364.652C120.893 366.517 117.927 368.958 114.808 371.329C111.692 373.697 108.499 375.934 105.735 377.362C104.352 378.076 103.123 378.562 102.097 378.775C101.059 378.989 100.363 378.896 99.917 378.636L98.9093 380.364ZM128.171 363.47C128.521 363.558 128.437 363.619 128.383 363.504C128.376 363.489 128.391 363.512 128.402 363.627C128.412 363.747 128.413 363.894 128.413 364.125C128.413 365.07 128.419 366.525 129.545 368.496L131.281 367.504C130.408 365.975 130.413 364.93 130.413 364.125C130.413 363.77 130.434 363.165 130.193 362.652C129.889 362.006 129.305 361.692 128.656 361.53L128.171 363.47ZM129.545 368.496C129.918 369.149 130.469 369.584 131.13 369.801C131.765 370.009 132.446 369.998 133.096 369.883C134.381 369.655 135.805 368.969 137.121 368.166C138.456 367.352 139.764 366.366 140.834 365.457C141.888 364.562 142.769 363.692 143.213 363.1L141.613 361.9C141.307 362.308 140.564 363.063 139.539 363.933C138.531 364.79 137.307 365.71 136.08 366.459C134.834 367.219 133.664 367.751 132.746 367.914C132.294 367.994 131.971 367.972 131.752 367.9C131.561 367.837 131.408 367.726 131.281 367.504L129.545 368.496ZM143.213 363.1C143.362 362.901 143.653 362.599 144.122 362.084C144.561 361.602 145.095 360.997 145.627 360.288C146.685 358.877 147.777 357 148.091 354.764C148.744 350.121 146.001 344.679 135.377 339.114L134.449 340.886C144.826 346.321 146.582 351.129 146.11 354.486C145.862 356.25 144.985 357.81 144.027 359.087C143.551 359.722 143.066 360.273 142.644 360.737C142.252 361.167 141.839 361.599 141.613 361.9L143.213 363.1ZM135.377 339.114C131.305 336.981 128.876 334.57 127.557 332.125C126.243 329.689 125.986 327.133 126.412 324.617C127.272 319.524 130.922 314.661 134.091 311.735L132.735 310.265C129.404 313.339 125.404 318.576 124.44 324.283C123.952 327.167 124.239 330.186 125.797 333.075C127.351 335.956 130.121 338.619 134.449 340.886L135.377 339.114ZM134.036 311.782L161.036 290.282L159.79 288.718L132.79 310.218L134.036 311.782ZM161.128 290.199C164.9 286.344 170.702 279.939 175.868 273.235C178.451 269.884 180.885 266.444 182.829 263.202C184.764 259.973 186.25 256.881 186.886 254.233L184.941 253.767C184.376 256.119 183.012 259.006 181.113 262.173C179.223 265.327 176.838 268.7 174.284 272.015C169.174 278.644 163.426 284.99 159.698 288.801L161.128 290.199ZM186.886 254.233C188.381 248.001 190.157 240.657 190.475 233.482C190.792 226.302 189.658 219.152 185.204 213.389L183.622 214.611C187.668 219.848 188.784 226.448 188.477 233.393C188.169 240.343 186.445 247.499 184.941 253.767L186.886 254.233ZM185.204 213.389C183.784 211.551 181.355 209.921 178.521 208.462C175.663 206.989 172.276 205.632 168.832 204.385C165.386 203.138 161.848 201.988 158.696 200.939C155.525 199.884 152.765 198.937 150.814 198.084L150.012 199.916C152.062 200.813 154.911 201.787 158.064 202.837C161.236 203.892 164.737 205.03 168.151 206.266C171.566 207.502 174.859 208.825 177.606 210.239C180.378 211.667 182.48 213.133 183.622 214.611L185.204 213.389ZM150.913 198.134C144.486 194.426 137.767 189.353 132.184 183.85C126.585 178.332 122.209 172.46 120.357 167.17L118.469 167.83C120.468 173.54 125.091 179.668 130.78 185.275C136.485 190.897 143.34 196.074 149.913 199.866L150.913 198.134ZM120.357 167.17C118.63 162.235 117.142 156.041 116.211 150.582C115.746 147.854 115.423 145.326 115.278 143.243C115.13 141.122 115.175 139.575 115.383 138.743L113.443 138.257C113.151 139.425 113.134 141.253 113.283 143.382C113.434 145.549 113.767 148.146 114.24 150.918C115.184 156.459 116.696 162.765 118.469 167.83L120.357 167.17ZM115.397 138.321C115.173 137.086 115.12 133.727 115.476 129.308C115.828 124.928 116.573 119.618 117.89 114.524C119.211 109.415 121.088 104.603 123.662 101.157C126.218 97.7338 129.382 95.75 133.351 95.9981L133.476 94.0019C128.623 93.6987 124.876 96.1891 122.059 99.9598C119.26 103.707 117.302 108.808 115.954 114.024C114.601 119.255 113.842 124.683 113.482 129.148C113.126 133.573 113.154 137.164 113.429 138.679L115.397 138.321ZM133.351 95.9981C140.945 96.4727 148.423 102.009 154.935 108.935C161.409 115.821 166.742 123.879 170.073 129.042L171.753 127.958C168.418 122.788 163.001 114.595 156.392 107.565C149.82 100.575 141.881 94.5273 133.476 94.0019L133.351 95.9981ZM170.022 128.953C173.41 135.62 177.953 146.559 180.552 157.667C181.851 163.22 182.657 168.784 182.602 173.859C182.548 178.942 181.631 183.463 179.552 186.992L181.275 188.008C183.596 184.068 184.545 179.16 184.602 173.881C184.659 168.593 183.821 162.861 182.499 157.212C179.856 145.915 175.249 134.823 171.805 128.047L170.022 128.953ZM179.552 186.992C168.711 205.394 151.545 213.47 138.487 212.503L138.339 214.497C152.281 215.53 170.115 206.95 181.275 188.008L179.552 186.992ZM138.487 212.503C131.584 211.991 123.785 212.255 116.359 210.769C109.022 209.302 102.313 206.157 97.7579 198.965L96.0683 200.035C101.013 207.843 108.304 211.198 115.967 212.731C123.542 214.245 131.743 214.009 138.339 214.497L138.487 212.503ZM97.7579 198.965C94.1021 193.193 92.8206 185.577 92.7506 178.303C92.6807 171.046 93.8173 164.261 94.8797 160.256L92.9466 159.744C91.8423 163.906 90.6789 170.87 90.7507 178.322C90.8223 185.757 92.1242 193.807 96.0683 200.035L97.7579 198.965ZM94.865 160.307L104.365 130.807L102.461 130.193L92.9613 159.693L94.865 160.307ZM104.398 130.672C105.334 125.31 105.498 117.264 102.958 110.124C100.397 102.927 95.0601 96.6108 85.0711 95.0126L84.7551 96.9874C93.8726 98.4462 98.7024 104.13 101.073 110.794C103.464 117.514 103.325 125.19 102.428 130.328L104.398 130.672ZM85.0711 95.0126C72.2019 92.9535 61.7004 97.9103 53.8284 104.167C45.9711 110.412 40.6441 118.025 38.1131 121.4L39.7131 122.6C42.2822 119.175 47.4551 111.788 55.0729 105.733C62.6759 99.6897 72.6244 95.0465 84.7551 96.9874L85.0711 95.0126ZM38.1131 121.4C36.4693 123.592 35.2798 127.316 34.3878 131.546C33.4858 135.824 32.8565 140.785 32.4173 145.583C31.5387 155.18 31.4131 164.212 31.4131 166H33.4131C33.4131 164.252 33.5376 155.284 34.409 145.765C34.8448 141.005 35.4654 136.129 36.3447 131.959C37.2339 127.742 38.357 124.408 39.7131 122.6L38.1131 121.4ZM31.4131 166C31.4131 166.247 31.309 166.909 31.0689 168.011C30.8383 169.068 30.5059 170.432 30.1008 172.009C29.2911 175.162 28.1997 179.138 27.0749 183.169C24.835 191.195 22.4447 199.498 21.9369 201.783L23.8893 202.217C24.3816 200.002 26.7413 191.805 29.0013 183.706C30.1266 179.674 31.2227 175.681 32.038 172.507C32.4454 170.92 32.7848 169.529 33.023 168.437C33.2516 167.388 33.4131 166.503 33.4131 166H31.4131ZM21.9369 201.783C21.7591 202.584 20.5679 210.029 20.5166 217.292C20.491 220.915 20.7469 224.589 21.6021 227.389C22.4399 230.132 24.0232 232.5 26.9131 232.5V230.5C25.437 230.5 24.2966 229.364 23.5149 226.804C22.7506 224.302 22.4913 220.875 22.5165 217.306C22.5669 210.185 23.7418 202.881 23.8893 202.217L21.9369 201.783ZM26.9131 232.5C30.3913 232.5 34.4524 232.751 38.1142 232.879C39.9298 232.943 41.6438 232.975 43.1026 232.927C44.534 232.879 45.8215 232.751 46.7294 232.449L46.0969 230.551C45.4861 230.755 44.4518 230.88 43.036 230.928C41.6475 230.974 39.9888 230.943 38.1841 230.88C34.6052 230.755 30.4349 230.5 26.9131 230.5V232.5ZM46.7294 232.449C49.7068 231.456 54.283 229.933 57.3603 228.394L56.4659 226.606C53.5432 228.067 49.1195 229.544 46.0969 230.551L46.7294 232.449ZM57.3603 228.394C58.1695 227.99 58.9797 227.468 59.6041 226.871C60.196 226.305 60.7881 225.511 60.7881 224.562C60.7881 223.506 60.0759 222.718 59.0674 222.186C58.0657 221.657 56.5816 221.263 54.5372 221.008L54.2891 222.992C56.2447 223.237 57.4481 223.593 58.1339 223.955C58.8129 224.313 58.7881 224.556 58.7881 224.562C58.7881 224.677 58.6927 224.976 58.2221 225.426C57.784 225.844 57.1568 226.26 56.4659 226.606L57.3603 228.394ZM54.5372 221.008C53.5695 220.887 52.125 220.557 50.3865 220.189C48.6844 219.828 46.7526 219.444 44.921 219.251C43.1145 219.061 41.2818 219.042 39.8281 219.497C39.0871 219.729 38.3935 220.1 37.8606 220.681C37.3171 221.274 36.9976 222.026 36.9172 222.909L38.909 223.091C38.9537 222.599 39.1157 222.272 39.3351 222.033C39.5652 221.782 39.9159 221.565 40.4256 221.406C41.4733 221.078 42.9672 221.057 44.7118 221.24C46.4313 221.421 48.2751 221.786 49.9721 222.145C51.6328 222.497 53.2111 222.858 54.2891 222.992L54.5372 221.008ZM36.9172 222.909C36.7673 224.559 37.2632 225.851 38.1948 226.813C39.0854 227.733 40.305 228.28 41.4959 228.644C42.6951 229.01 43.9792 229.223 45.0635 229.401C46.2109 229.589 47.044 229.729 47.5417 229.928L48.2845 228.072C47.5323 227.771 46.4279 227.598 45.3877 227.427C44.2845 227.246 43.1312 227.052 42.0803 226.731C41.0212 226.408 40.1783 225.986 39.6315 225.422C39.1256 224.899 38.809 224.191 38.909 223.091L36.9172 222.909ZM47.5417 229.928C50.1063 230.954 53.4202 234.063 52.4342 238.796L54.3921 239.204C55.6496 233.168 51.3676 229.305 48.2845 228.072L47.5417 229.928ZM52.4342 238.796C51.1495 244.962 51.8944 249.21 53.4023 252.089C54.9072 254.962 57.1122 256.357 58.5417 256.928L59.2845 255.072C58.2141 254.643 56.4191 253.538 55.174 251.161C53.9319 248.79 53.1768 245.038 54.3921 239.204L52.4342 238.796ZM58.5417 256.928C60.1882 257.587 61.7721 257.003 63.1367 256.578C64.5801 256.129 66.1529 255.687 68.2717 255.99L68.5546 254.01C65.9776 253.642 64.0504 254.2 62.5428 254.669C60.9563 255.162 60.138 255.413 59.2845 255.072L58.5417 256.928ZM68.2717 255.99C68.6642 256.046 68.8985 256.115 69.0298 256.173C69.155 256.229 69.1202 256.245 69.0761 256.168C69.0287 256.085 69.0504 256.036 69.0402 256.108C69.028 256.194 68.9846 256.346 68.8743 256.594C68.6417 257.117 68.2835 257.715 67.8102 258.611C67.3602 259.463 66.8638 260.486 66.4644 261.684L68.3618 262.316C68.7124 261.264 69.1536 260.35 69.5786 259.545C69.9802 258.785 70.4345 258.008 70.7019 257.406C70.8417 257.092 70.9701 256.744 71.0204 256.388C71.0727 256.019 71.0475 255.587 70.8126 255.176C70.581 254.77 70.2182 254.513 69.8434 254.346C69.4746 254.182 69.0371 254.079 68.5546 254.01L68.2717 255.99ZM66.4644 261.684C65.6947 263.993 65.1588 266.493 65.2261 268.779C65.2934 271.069 65.974 273.269 67.7729 274.768L69.0533 273.232C67.8522 272.231 67.2829 270.681 67.2252 268.721C67.1675 266.757 67.6316 264.507 68.3618 262.316L66.4644 261.684ZM67.7729 274.768C69.3975 276.122 71.3941 277.044 73.2183 277.799C75.1113 278.582 76.7333 279.158 77.8986 279.857L78.9276 278.143C77.593 277.342 75.715 276.668 73.983 275.951C72.1822 275.206 70.4288 274.378 69.0533 273.232L67.7729 274.768ZM77.8986 279.857C78.6965 280.336 80.5626 281.486 82.1754 284.099C83.7885 286.712 85.2002 290.875 84.9141 297.457L86.9122 297.543C87.213 290.625 85.7322 286.053 83.8773 283.048C82.0221 280.043 79.8448 278.693 78.9276 278.143L77.8986 279.857ZM84.9141 297.457C84.711 302.127 85.0338 306.823 85.7565 310.873C86.4739 314.892 87.6043 318.383 89.0862 320.562L90.7401 319.438C89.4962 317.608 88.4266 314.45 87.7254 310.521C87.0296 306.623 86.7152 302.073 86.9122 297.543L84.9141 297.457ZM89.0862 320.562C92.0576 324.932 100.536 332 111.413 332V330C101.352 330 93.4353 323.401 90.7401 319.438L89.0862 320.562ZM111.413 332C118.082 332 125.334 330.082 131.203 327.873C134.145 326.766 136.761 325.578 138.808 324.502C140.817 323.447 142.377 322.45 143.12 321.707L141.706 320.293C141.199 320.8 139.884 321.678 137.878 322.732C135.909 323.766 133.369 324.921 130.498 326.002C124.742 328.168 117.745 330 111.413 330V332ZM143.12 321.707C143.238 321.59 143.482 321.401 143.922 321.075C144.333 320.77 144.862 320.382 145.456 319.909C146.647 318.96 148.111 317.659 149.547 315.898C152.431 312.36 155.155 307.016 155.413 299.032L153.414 298.968C153.171 306.484 150.624 311.411 147.997 314.634C146.678 316.253 145.327 317.455 144.21 318.345C143.649 318.792 143.15 319.158 142.731 319.469C142.341 319.758 141.953 320.046 141.706 320.293L143.12 321.707ZM155.413 299.032C155.519 295.741 154.597 291.921 153.057 287.983C151.513 284.031 149.32 279.892 146.817 275.94C141.826 268.058 135.519 260.791 130.496 257.187L129.33 258.813C134.064 262.209 140.208 269.242 145.127 277.01C147.58 280.883 149.707 284.906 151.195 288.711C152.687 292.529 153.507 296.059 153.414 298.968L155.413 299.032ZM130.496 257.187C126.648 254.427 120.379 250.139 114.064 246.237C107.786 242.358 101.345 238.786 97.2005 237.542L96.6258 239.458C100.481 240.614 106.707 244.042 113.012 247.938C119.281 251.811 125.512 256.073 129.33 258.813L130.496 257.187ZM97.2005 237.542C92.1781 236.035 86.9882 234.566 82.4621 233.021C77.9078 231.467 74.1812 229.886 72.0271 228.211L70.7992 229.789C73.2477 231.694 77.2712 233.363 81.8162 234.914C86.3894 236.474 91.6481 237.965 96.6258 239.458L97.2005 237.542ZM72.0271 228.211C69.8606 226.526 63.8021 220.849 57.9164 212.547C52.0323 204.247 46.3782 193.404 44.9057 181.378L42.9205 181.622C44.4481 194.096 50.294 205.253 56.2848 213.703C62.2741 222.151 68.4656 227.974 70.7992 229.789L72.0271 228.211ZM44.9057 181.378C43.7073 171.591 43.2098 165.739 43.0114 162.342C42.9123 160.644 42.8881 159.564 42.8881 158.916C42.8881 158.592 42.8942 158.377 42.8997 158.249C42.9025 158.185 42.9051 158.142 42.9068 158.119C42.9076 158.107 42.9082 158.1 42.9084 158.097C42.9085 158.096 42.9085 158.096 42.9085 158.096C42.9084 158.097 42.9084 158.098 42.9083 158.098C42.9082 158.099 42.9082 158.099 42.9081 158.1C42.9081 158.1 42.908 158.101 42.908 158.101C42.908 158.102 42.9079 158.102 41.9131 158C40.9184 157.898 40.9183 157.899 40.9182 157.899C40.9182 157.899 40.9182 157.9 40.9181 157.9C40.918 157.901 40.9179 157.902 40.9178 157.903C40.9177 157.905 40.9175 157.907 40.9172 157.909C40.9168 157.914 40.9163 157.92 40.9157 157.926C40.9146 157.94 40.9132 157.957 40.9117 157.978C40.9087 158.022 40.905 158.082 40.9016 158.163C40.8946 158.324 40.8881 158.568 40.8881 158.916C40.8881 159.611 40.914 160.731 41.0148 162.458C41.2165 165.911 41.719 171.809 42.9205 181.622L44.9057 181.378ZM91.3747 448.275C92.3887 444.726 93.7251 438.746 94.4568 432.288C95.1862 425.849 95.3275 418.828 93.8811 413.249L91.9451 413.751C93.2987 418.972 93.1901 425.701 92.4695 432.062C91.7511 438.404 90.4375 444.274 89.4516 447.725L91.3747 448.275ZM93.8811 413.249C92.1258 406.478 88.9717 395.61 82.9547 385.73C76.9333 375.842 67.9842 366.849 54.6201 364.022L54.2062 365.978C66.842 368.651 75.3929 377.158 81.2465 386.77C87.1046 396.39 90.2005 407.022 91.9451 413.751L93.8811 413.249ZM54.6201 364.022C41.4167 361.229 29.3853 362.989 19.9329 369.098C10.4759 375.209 3.72382 385.594 0.931884 399.807L2.89438 400.193C5.60245 386.406 12.1004 376.541 21.0184 370.777C29.941 365.011 41.4096 363.271 54.2062 365.978L54.6201 364.022ZM0.931884 399.807C-1.31318 411.237 0.777267 424.918 4.23756 437.294C7.704 449.693 12.5814 460.908 16.028 467.465L17.7983 466.535C14.4115 460.092 9.58893 449.007 6.1637 436.756C2.73233 424.482 0.73945 411.163 2.89438 400.193L0.931884 399.807ZM16.0379 467.484C17.7924 470.659 20.5746 475.546 23.2214 479.895C24.5442 482.068 25.839 484.117 26.9581 485.752C28.0476 487.345 29.0477 488.664 29.7729 489.268L31.0533 487.732C30.5785 487.336 29.7286 486.26 28.6087 484.623C27.5184 483.029 26.2445 481.015 24.9298 478.855C22.3016 474.537 19.5338 469.675 17.7884 466.516L16.0379 467.484ZM29.7729 489.268C31.1994 490.457 36.0226 495.242 42.7507 497.63C46.1372 498.832 50.0367 499.442 54.2649 498.696C58.4969 497.948 62.9912 495.853 67.58 491.745L66.2461 490.255C61.8977 494.147 57.7358 496.052 53.9171 496.726C50.0946 497.401 46.5488 496.856 43.4196 495.745C37.1163 493.508 32.6268 489.043 31.0533 487.732L29.7729 489.268ZM83.4374 459.781C82.3764 464.507 82.4022 468.819 83.1815 472.697L85.1423 472.303C84.4194 468.705 84.388 464.677 85.3888 460.219L83.4374 459.781ZM83.1815 472.697C85.7241 485.35 96.2175 493.162 102.512 495.916L103.314 494.084C97.3577 491.478 87.5092 484.081 85.1423 472.303L83.1815 472.697ZM67.58 491.745C74.7453 485.331 79.1429 480.884 81.7313 477.92C83.0235 476.441 83.882 475.311 84.4103 474.477C84.6733 474.063 84.8707 473.696 84.9967 473.378C85.1009 473.115 85.2401 472.689 85.132 472.257L83.1919 472.743C83.1359 472.519 83.222 472.428 83.1376 472.641C83.075 472.798 82.9482 473.048 82.721 473.407C82.2691 474.12 81.4835 475.164 80.2249 476.605C77.7116 479.483 73.3805 483.869 66.2461 490.255L67.58 491.745ZM66.7131 293.4C64.3861 290.297 60.0649 286.103 54.5995 283.544C49.1056 280.973 42.3961 280.035 35.4551 283.611L36.371 285.389C42.63 282.165 48.6706 282.977 53.7516 285.356C58.8613 287.747 62.94 291.703 65.1131 294.6L66.7131 293.4ZM35.4551 283.611C27.0304 287.951 21.5506 293.82 17.8146 298.569C16.8816 299.755 16.0568 300.872 15.3252 301.874C14.5889 302.883 13.9581 303.759 13.3941 304.492C12.8257 305.23 12.365 305.77 11.9791 306.119C11.5644 306.495 11.3984 306.5 11.4131 306.5V308.5C12.1777 308.5 12.8242 308.052 13.3217 307.602C13.8479 307.125 14.3989 306.465 14.979 305.711C15.5633 304.952 16.2178 304.043 16.9404 303.054C17.6678 302.057 18.4759 300.963 19.3865 299.806C23.0255 295.18 28.2958 289.549 36.371 285.389L35.4551 283.611ZM11.4131 306.5C11.5044 306.5 11.6415 306.549 11.7309 306.655C11.786 306.719 11.7581 306.731 11.7329 306.578C11.682 306.268 11.7069 305.71 11.856 304.886C12.1476 303.276 12.836 301.045 13.702 298.659C15.4373 293.878 17.7837 288.746 18.7611 287.183L17.0651 286.123C15.9728 287.87 13.5692 293.163 11.8219 297.977C10.9466 300.389 10.2106 302.749 9.88803 304.53C9.73016 305.402 9.65052 306.24 9.75941 306.902C9.81415 307.235 9.93223 307.627 10.2071 307.95C10.5161 308.314 10.9468 308.5 11.4131 308.5V306.5ZM18.7611 287.183C23.5748 279.481 30.0085 276.481 37.0234 275.391C40.5545 274.842 44.2322 274.778 47.9372 274.856C51.5967 274.932 55.3831 275.153 58.9131 275.153V273.153C55.3854 273.153 51.7679 272.935 47.9791 272.856C44.2357 272.777 40.4206 272.839 36.7161 273.414C29.2599 274.574 22.2514 277.825 17.0651 286.123L18.7611 287.183ZM58.9131 275.153C60.2264 275.153 62.1185 275.591 63.8998 276.613C65.6681 277.628 67.2662 279.182 68.1042 281.371C69.7668 285.716 68.61 293.148 58.1675 304.834L59.6588 306.166C70.2163 294.352 72.0594 286.111 69.9721 280.656C68.935 277.947 66.9706 276.07 64.8952 274.879C62.8327 273.695 60.5999 273.153 58.9131 273.153V275.153ZM58.1675 304.834C41.3727 323.628 30.8535 334.645 27.706 337.793L29.1202 339.207C32.306 336.021 42.8535 324.972 59.6588 306.166L58.1675 304.834ZM65.9843 293.003C64.7717 292.916 62.8592 292.89 61.0274 293.094C60.1115 293.196 59.1877 293.358 58.3697 293.612C57.57 293.86 56.7734 294.225 56.206 294.793L57.6202 296.207C57.8527 295.975 58.2895 295.731 58.9627 295.522C59.6177 295.319 60.4063 295.175 61.2488 295.081C62.9337 294.894 64.7212 294.917 65.8418 294.997L65.9843 293.003ZM56.206 294.793C56.0079 294.991 55.3517 295.536 54.281 296.376C53.2348 297.198 51.8446 298.261 50.2275 299.473C46.9933 301.897 42.8625 304.905 38.7801 307.741C34.6919 310.581 30.6746 313.232 27.6599 314.952C26.1412 315.818 24.9307 316.416 24.1126 316.695C23.9131 316.763 23.7526 316.807 23.6284 316.831C23.567 316.843 23.5195 316.85 23.4844 316.853C23.4671 316.854 23.454 316.855 23.4448 316.855C23.4402 316.855 23.4368 316.855 23.4345 316.855C23.4322 316.855 23.4311 316.855 23.4311 316.855C23.4312 316.855 23.4325 316.855 23.4351 316.855C23.4376 316.855 23.4415 316.856 23.4467 316.857C23.4569 316.859 23.473 316.862 23.4936 316.869C23.5352 316.883 23.5977 316.91 23.6649 316.963C23.8221 317.086 23.8875 317.25 23.903 317.359L21.9231 317.641C21.9699 317.969 22.1272 318.299 22.4329 318.538C22.7152 318.759 23.0324 318.83 23.2796 318.849C23.7498 318.885 24.2752 318.753 24.7584 318.588C25.7665 318.244 27.1146 317.565 28.6507 316.689C31.7453 314.924 35.8218 312.231 39.9211 309.384C44.0262 306.532 48.1767 303.509 51.4268 301.074C53.0519 299.856 54.4546 298.783 55.5159 297.95C56.5526 297.136 57.3183 296.509 57.6202 296.207L56.206 294.793ZM23.903 317.359C23.8179 316.762 23.9805 315.975 24.4417 315.046C24.896 314.13 25.5983 313.162 26.4559 312.246C28.1933 310.388 30.4091 308.907 32.1556 308.47L31.6705 306.53C29.4171 307.093 26.8829 308.862 24.9953 310.879C24.0404 311.9 23.2114 313.026 22.6501 314.157C22.0956 315.275 21.7583 316.488 21.9231 317.641L23.903 317.359ZM32.1556 308.47C34.1215 307.979 41.5086 306.381 48.6114 306.749C52.1665 306.933 55.551 307.605 58.1383 309.073C60.6783 310.514 62.4677 312.726 62.9219 316.132L64.9043 315.868C64.3585 311.774 62.1479 309.048 59.1253 307.333C56.1502 305.645 52.4097 304.942 48.7147 304.751C41.3176 304.369 33.7046 306.021 31.6705 306.53L32.1556 308.47ZM62.9219 316.132C63.312 319.058 63.1533 320.983 62.7396 322.243C62.3398 323.46 61.6995 324.072 61.0057 324.417C60.265 324.785 59.3752 324.892 58.4192 324.914C57.9272 324.926 57.507 324.916 57.0334 324.919C56.601 324.922 56.132 324.936 55.717 325.019L56.1092 326.981C56.3192 326.939 56.6189 326.922 57.047 326.919C57.434 326.916 57.9661 326.926 58.4664 326.914C59.4948 326.889 60.7487 326.778 61.8954 326.208C63.0891 325.615 64.0802 324.571 64.6397 322.867C65.1854 321.205 65.3142 318.942 64.9043 315.868L62.9219 316.132ZM55.664 325.031C52.7218 325.788 48.1839 327.124 44.1184 328.678C42.0874 329.455 40.1499 330.296 38.5807 331.156C37.0611 331.989 35.7146 332.931 35.0651 333.97L36.7611 335.03C37.1115 334.469 38.0359 333.736 39.5423 332.91C40.9992 332.111 42.843 331.307 44.8327 330.547C48.8089 329.026 53.271 327.712 56.1621 326.969L55.664 325.031ZM37.2293 340.449C37.9306 340.215 39.0927 339.907 40.2558 339.754C40.8363 339.678 41.3938 339.643 41.8811 339.669C42.3796 339.695 42.7384 339.781 42.9659 339.894L43.8603 338.106C43.2878 337.819 42.6216 337.705 41.9857 337.672C41.3386 337.638 40.6523 337.685 39.9954 337.771C38.6834 337.943 37.3956 338.285 36.5969 338.551L37.2293 340.449ZM42.9659 339.894C43.5784 340.201 44.1343 340.739 44.5911 341.341C45.0447 341.94 45.3507 342.537 45.4846 342.871L47.3416 342.129C47.1421 341.63 46.7482 340.877 46.1851 340.134C45.6252 339.395 44.8478 338.599 43.8603 338.106L42.9659 339.894ZM47.3529 342.158C47.0283 341.266 46.5938 339.911 46.34 338.749C46.2115 338.16 46.1412 337.674 46.138 337.339C46.1373 337.259 46.1405 337.198 46.1454 337.152C46.1504 337.106 46.1561 337.087 46.1554 337.09C46.155 337.091 46.1425 337.133 46.1007 337.192C46.0556 337.255 45.9779 337.336 45.8603 337.394L44.9659 335.606C44.5218 335.828 44.3276 336.227 44.2427 336.505C44.156 336.789 44.1356 337.091 44.1381 337.358C44.1433 337.899 44.248 338.544 44.3861 339.176C44.6657 340.456 45.1312 341.901 45.4733 342.842L47.3529 342.158ZM45.8603 337.394C45.7095 337.47 45.6081 337.456 45.6643 337.457C45.6984 337.457 45.774 337.464 45.9025 337.488C46.158 337.537 46.5116 337.635 46.9557 337.779C47.8411 338.067 48.9529 338.493 50.1217 338.935C51.2727 339.371 52.4756 339.82 53.4894 340.129C53.9955 340.283 54.4821 340.41 54.9083 340.481C55.2883 340.544 55.7908 340.595 56.2293 340.449L55.5969 338.551C55.6603 338.53 55.5848 338.566 55.2362 338.508C54.9339 338.457 54.5416 338.358 54.0711 338.215C53.1318 337.93 51.991 337.504 50.8295 337.065C49.6858 336.632 48.5164 336.183 47.5736 335.877C47.1037 335.724 46.6564 335.596 46.2772 335.524C46.0883 335.488 45.888 335.46 45.6943 335.457C45.5227 335.454 45.2417 335.468 44.9659 335.606L45.8603 337.394ZM56.2293 340.449C56.742 340.278 57.2022 339.979 57.4857 339.497C57.767 339.019 57.789 338.505 57.7178 338.071C57.5846 337.259 57.0741 336.422 56.6135 335.76C56.1432 335.085 55.5591 334.371 55.213 333.913C55.0198 333.657 54.9067 333.49 54.8548 333.392C54.8258 333.338 54.8522 333.371 54.8686 333.462C54.8842 333.549 54.9228 333.905 54.6202 334.207L53.206 332.793C52.8409 333.158 52.8627 333.608 52.9003 333.817C52.9387 334.03 53.0259 334.213 53.0896 334.333C53.2232 334.583 53.4235 334.862 53.6168 335.118C54.0435 335.683 54.5243 336.26 54.9722 336.903C55.4298 337.56 55.691 338.071 55.7441 338.394C55.7661 338.528 55.7348 338.529 55.7618 338.483C55.791 338.434 55.7956 338.485 55.5969 338.551L56.2293 340.449ZM54.6202 334.207C54.4385 334.389 54.2459 334.431 54.2276 334.435C54.1805 334.447 54.1599 334.445 54.1855 334.444C54.2338 334.442 54.3359 334.444 54.5072 334.458C54.8421 334.487 55.3186 334.554 55.907 334.651C57.08 334.844 58.5925 335.137 60.1038 335.42C61.5986 335.701 63.0974 335.972 64.1953 336.109C64.7304 336.176 65.2365 336.22 65.6135 336.201C65.7665 336.193 66.0707 336.17 66.3457 336.02C66.5026 335.934 66.7533 335.75 66.8707 335.405C66.992 335.048 66.899 334.736 66.8075 334.553L65.0187 335.447C64.9584 335.327 64.8722 335.069 64.9774 334.76C65.0788 334.462 65.2904 334.318 65.3867 334.265C65.5406 334.181 65.6378 334.197 65.5095 334.203C65.3241 334.213 64.9708 334.191 64.4434 334.125C63.4163 333.997 61.9776 333.737 60.4724 333.455C58.9837 333.176 57.4337 332.875 56.2316 332.677C55.6325 332.579 55.0935 332.501 54.6784 332.466C54.4746 332.448 54.2681 332.438 54.086 332.447C53.9964 332.451 53.88 332.462 53.7582 332.491C53.6652 332.514 53.419 332.58 53.206 332.793L54.6202 334.207ZM66.8075 334.553C66.6797 334.297 66.4496 334.015 66.2306 333.77C65.989 333.499 65.6806 333.185 65.3255 332.85C64.6152 332.181 63.689 331.401 62.6793 330.684C61.675 329.972 60.5546 329.298 59.4591 328.866C58.3951 328.447 57.1833 328.189 56.0969 328.551L56.7293 330.449C57.1428 330.311 57.8061 330.365 58.7264 330.727C59.6153 331.077 60.5887 331.653 61.5218 332.316C62.4496 332.974 63.3047 333.694 63.9538 334.306C64.2784 334.612 64.5442 334.884 64.7381 335.101C64.9547 335.344 65.0214 335.453 65.0187 335.447L66.8075 334.553ZM56.0969 328.551C53.0589 329.564 39.7905 334 37.6706 334.53L38.1556 336.47C40.3743 335.915 53.7673 331.436 56.7293 330.449L56.0969 328.551ZM35.0651 333.97C34.8197 334.363 34.6203 334.741 34.464 335.107L36.3032 335.893C36.4141 335.633 36.5636 335.346 36.7611 335.03L35.0651 333.97ZM34.4999 335.032C34.3594 335.297 34.3128 335.58 34.2963 335.799C34.2788 336.031 34.2899 336.275 34.3166 336.51C34.37 336.982 34.4956 337.504 34.6666 337.996C34.8369 338.487 35.0672 338.992 35.3517 339.414C35.6102 339.797 36.0293 340.288 36.6384 340.462L37.1878 338.538C37.2781 338.564 37.1973 338.574 37.0102 338.296C36.849 338.057 36.6877 337.72 36.556 337.34C36.425 336.963 36.3381 336.587 36.3039 336.285C36.2867 336.134 36.2852 336.022 36.2907 335.949C36.2972 335.862 36.3092 335.889 36.2674 335.968L34.4999 335.032ZM37.6706 334.53C36.8281 334.74 36.42 334.653 36.2423 334.602C36.1876 334.586 36.1389 334.569 36.0801 334.547C36.0426 334.533 35.9302 334.49 35.8263 334.463C35.7279 334.437 35.4583 334.372 35.1464 334.476C34.7887 334.594 34.5946 334.853 34.4999 335.032L36.2674 335.968C36.2168 336.063 36.0723 336.276 35.7756 336.374C35.5245 336.457 35.3271 336.399 35.3178 336.397C35.3031 336.393 35.2969 336.39 35.3883 336.424C35.4584 336.449 35.5613 336.487 35.6868 336.523C36.2297 336.68 36.9981 336.76 38.1556 336.47L37.6706 334.53Z" fill="white" fill-opacity="0.15"/>
</svg>
