<svg width="184" height="192" viewBox="0 0 184 192" fill="none" xmlns="http://www.w3.org/2000/svg">
<path d="M41.9758 163.019C51.8996 176.288 77.1763 199.782 98.8921 187.606C120.608 175.429 136.544 159.116 141.798 152.482C145.982 146.726 155.283 130.764 159.019 112.968C162.317 105.957 164.839 96.3731 166.584 87.7958M109.108 93.6498C107.648 94.2352 105.022 93.0644 104.438 91.6009C103.971 90.4301 100.351 90.4301 99.184 91.0155C97.8786 91.67 97.1408 93.0644 95.3895 94.2352C93.6383 95.406 91.1513 94.157 89.8439 93.0644C88.0926 91.6009 84.2982 90.1374 82.5469 91.8936C81.1459 93.2985 76.7093 93.0644 77.0012 91.8936L78.7525 75.2098C79.3362 71.1121 81.0291 61.1603 74.9581 47.1109C60.656 29.549 39.057 37.7445 33.5113 44.7693C33.1723 45.7891 42.243 45.1902 50.7321 44.417M50.7321 44.417C56.8617 43.8587 62.6881 43.2095 64.4504 43.0131C69.7042 42.4277 74.6662 40.3788 72.9149 31.0125C75.2499 19.3046 68.2448 9.15775 64.4504 5.54781C63.2829 3.69406 56.7448 0.220711 39.9326 1.15734C23.1204 2.09398 11.7177 15.2068 8.11786 21.6462C3.64239 32.2808 -3.32378 58.9944 4.61531 80.7711C12.5544 102.548 36.7219 101.943 47.8133 98.9183L101.519 78.1368C117.864 70.234 152.948 53.7844 162.522 51.2086C172.095 48.6329 170.986 63.5995 169.235 71.4047C168.811 75.1824 167.928 81.1908 166.584 87.7958M50.7321 44.417C50.9267 43.0709 51.8997 40.4959 54.2347 40.9642C56.5697 41.4325 57.1535 42.5253 57.1535 43.0131C57.1535 44.8668 56.8453 47.1109 54.2347 47.1109C51.3159 47.1109 51.024 46.5255 50.7321 44.417ZM166.584 87.7958C168.433 88.2641 178.267 65.9411 182.953 54.721C183.245 48.867 182.311 37.1006 176.24 36.8665C170.169 36.6323 167.678 49.8427 167.192 56.4772C165.635 65.9411 162.989 85.2786 164.857 86.9177C166.165 87.981 166.553 87.9461 166.584 87.7958ZM83.7144 145.457C86.7305 144.969 93.755 144.286 97.7246 145.457M122.826 132.286C119.81 131.993 112.844 130.237 109.108 125.554C105.372 120.871 102.103 122.237 100.935 123.505C96.6544 125.749 86.9834 129.3 82.5469 125.554C77.0012 120.871 85.7576 117.358 86.0494 118.236C86.3413 119.114 89.552 121.163 77.2931 126.139C69.5875 130.588 64.0613 133.262 62.4073 134.335H98.8921" stroke="white" stroke-opacity="0.15" stroke-width="2"/>
</svg>
