<svg width="137" height="142" viewBox="0 0 137 142" fill="none" xmlns="http://www.w3.org/2000/svg">
<path d="M2 121.68L7.95522 81.0686L41.3045 95.6571M2 121.68L15.8955 98.8114L41.3045 95.6571M2 121.68L41.3045 141M41.3045 95.6571V141M41.3045 141L61.9493 77.9143M41.3045 141H84.1821M61.9493 77.9143L78.2269 54.2571M61.9493 77.9143L92.9164 87.7714M61.9493 77.9143L84.1821 141M78.2269 54.2571L50.4358 41.64L61.9493 23.5029M78.2269 54.2571L92.9164 58.9886M61.9493 23.5029L92.9164 58.9886M61.9493 23.5029V3L78.2269 16.4057M61.9493 23.5029L78.2269 16.4057M92.9164 58.9886L124.281 23.5029M92.9164 58.9886L108.797 51.5492M124.281 23.5029L135 39.2743L108.797 51.5492M124.281 23.5029V4.57714L108.797 16.4057M124.281 23.5029L108.797 16.4057M108.797 51.5492L121.501 80.28M121.501 80.28L92.9164 87.7714M121.501 80.28L103.636 141H92.9164M92.9164 87.7714V141M92.9164 141H84.1821M108.797 16.4057L92.9164 11.6743L78.2269 16.4057" stroke="white" stroke-opacity="0.15" stroke-width="2"/>
</svg>
