<svg width="539" height="221" viewBox="0 0 539 221" fill="none" xmlns="http://www.w3.org/2000/svg">
<path d="M177.769 137.5C176.936 142.333 176.969 151.1 183.769 147.5C187.257 145.653 188.088 143.464 187.732 141.5M226.269 117.5C225.769 120 232.769 125 232.769 130.5C232.769 136 240.269 147.5 242.769 149.5C245.269 151.5 245.769 152.5 251.269 153.5C256.769 154.5 250.769 132 245.769 106C240.769 80 252.769 87.5 256.769 92.5C260.769 97.5 265.629 107.36 269.269 111C273.269 115 274.769 116.5 276.769 115C278.769 113.5 268.769 96 266.269 90.5C263.769 85 255.769 75.5 252.269 70C248.769 64.5 237.769 58 225.269 53.5C212.769 49 210.269 44 207.269 40.5C204.269 37 202.769 34 198.269 30.5C193.769 27 175.269 23.5 169.769 23.5C164.67 23.5 143.769 20 123.769 11C103.769 2 87.7689 1 79.7689 1C71.7689 1 61.7689 2.5 50.7689 9.5C39.7689 16.5 32.2689 19.5 10.7689 24C-6.4311 27.6 2.93556 35.5 9.7689 39C14.7689 41.561 17.2689 45 51.7689 39C72.7689 37.5 81.1289 48.86 84.7689 52.5C88.2689 56 92.7689 70 100.769 84.5C108.769 99 121.769 98.5 131.769 99.5C139.269 100 160.313 111.059 163.269 115C166.269 119 167.769 122.5 173.269 125.5C177.669 127.9 182.769 134.167 184.769 137C185.986 137.974 187.394 139.636 187.732 141.5M226.269 117.5C228.602 120.5 234.038 127.064 235.269 130.278C237.269 135.5 239.269 149.778 236.769 151.778C234.269 153.778 226.413 148.076 225.269 143.5C223.769 137.5 225.869 132.5 222.269 126.5C220.769 124 217.976 123.157 217.269 117.5C216.769 113.5 213.769 111 212.769 109.5C212.149 108.57 208.269 106 207.269 103.5C206.469 101.5 203.769 93 201.269 96.5C201.269 100.167 201.669 107.7 201.269 112.5C200.869 117.3 204.436 123.5 206.269 126C207.436 129.333 209.069 137 206.269 141C203.469 145 198.102 145.667 195.769 145.5C194.436 145.167 191.969 143.6 192.769 140C193.769 135.5 190.269 134 189.769 133.5C189.269 133 187.269 130.5 187.269 126C187.269 122.4 190.936 121.5 192.769 121.5C195.436 121.333 201.369 122.7 203.769 129.5C202.569 139.1 192.577 141.5 187.732 141.5M226.269 117.5C224.936 114.667 222.569 107.4 223.769 101C224.969 94.6 222.269 93 218.769 92.5C216.436 92.3333 208.469 88.2 207.269 83C206.069 77.8 197.769 75.6667 192.269 74" stroke="white" stroke-opacity="0.15" stroke-width="2"/>
<path d="M536.269 144C527.269 140.5 508.269 136 498.269 147.5C486.899 160.576 470.673 166.313 468.269 167C464.769 168 463.256 173.259 451.769 174C436.269 175 403.769 157 406.269 152C407.269 150 419.269 142.1 427.269 144.5C437.269 147.5 458.269 148.5 461.769 146.5C465.269 144.5 480.769 145.5 482.769 123C484.769 100.5 505.269 84.0001 506.269 84.0001C507.269 84.0001 526.769 70.0001 531.769 68.5001C536.769 67.0001 540.269 59.5001 534.269 59.0001C528.269 58.5001 513.769 64.0001 509.269 62.5001C503.769 62.5001 488.269 71.0001 481.269 71.0001C474.269 71.0001 463.269 69.0001 458.269 70.0001C453.269 71.0001 445.769 75.5001 439.269 75.0001C432.769 74.5001 425.769 78.0001 423.769 80.0001C420.269 81.5001 407.769 89.5001 398.769 89.0001C389.769 88.5001 375.769 89.0001 372.269 89.0001C368.769 89.0001 356.769 88.5001 349.769 88.5001C344.179 88.5001 333.769 86.5001 327.269 89.5001C320.769 92.5001 319.769 96.0001 306.269 96.5001C292.769 97.0001 287.769 105.586 287.769 107C287.769 108 288.269 115.5 311.269 112C323.269 108.5 332.769 105 336.269 105.5C339.769 106 349.769 105 354.769 105.5C359.963 106.02 362.367 109.022 373.269 111.5C384.269 114 393.769 106.5 396.269 105C398.769 103.5 408.81 98.9933 411.769 98.5001C414.769 98.0001 428.269 96.5001 411.769 112C405.269 118.167 395.769 130.5 383.269 134C372.406 137.042 352.269 146.5 351.269 154.5C350.381 161.604 360.269 167.5 360.269 170C360.769 177 358.769 176 358.769 182C358.769 188 359.269 191 360.269 198.5C361.269 206 359.769 206 360.769 210C361.805 214.145 364.769 227.5 373.269 213C381.769 198.5 384.269 170 383.269 168C381.269 164 368.269 200 376.769 217C382.269 226 395.269 209.5 394.269 203.5C394.269 196.5 396.769 190 398.269 187C399.469 184.6 399.769 180.5 400.769 179L413.269 165.5C415.269 164.5 414.325 171.59 413.273 174.638C411.769 179 407.769 182.5 407.769 185.5V201.5C407.602 205.667 409.169 214.6 416.769 217C426.269 220 422.769 199.5 424.769 193C426.369 187.8 428.769 183.833 429.769 182.5C435.269 176 429.269 164.131 424.269 160C418.216 155 411.869 146.3 400.269 153.5C387.869 166.3 372.102 169.167 365.769 169M363.769 146.152C367.048 146.531 371.146 147.697 371.769 150.5C372.769 155 370.769 161.5 366.269 161C361.769 160.5 360.269 159 357.769 153.5C355.769 149.1 359.269 146.667 361.269 146C361.97 146 362.837 146.044 363.769 146.152ZM363.769 146.152C369.102 142.435 379.669 133.3 379.269 126.5C378.869 119.7 364.769 115 357.769 113.5C353.602 114.5 343.769 115.9 337.769 113.5C331.769 111.1 320.602 114.833 315.769 117C312.436 118 304.169 119.4 297.769 117C291.369 114.6 283.769 118 280.769 120C280.102 121 277.369 122.6 271.769 121C264.769 119 258.269 115.5 255.769 110.5C253.269 105.5 250.769 99.0001 241.269 92.0001C237.769 88.0001 233.269 78.3078 228.769 79.0001C226.602 79.3334 220.744 79.9144 214.769 76.5001C207.769 72.5001 207.769 72.0001 202.769 72.0001C197.769 73.0001 195.769 74.0001 192.769 74.0001C191.996 74.0001 190.478 73.2055 188.623 72.0001M164.269 80.5001C159.436 75.8334 149.869 64.2001 152.269 59.0001C156.269 53.0001 171.102 58.8334 176.269 62.5001C179.32 65.0994 184.717 69.4611 188.623 72.0001M164.269 80.5001C167.338 76.3334 176.506 68.8001 188.623 72.0001M164.269 80.5001C164.769 84.5001 162.169 91.4001 147.769 87.0001C129.769 81.5001 109.769 68.0001 92.769 70.5001C75.769 73.0001 61.269 86.0001 57.769 88.5001C54.269 91.0001 35.7867 112.595 30.269 117.5C24.7514 122.405 13.269 130.5 6.76904 133.5M164.269 80.5001C166.102 83.5001 171.369 90.6001 177.769 95.0001C185.769 100.5 201.269 115 197.769 115.5C194.269 116 191.769 112 190.269 110.5C188.994 109.225 184.769 106 184.269 97.0001C183.769 88.0001 181.291 85.0001 173.269 83.5001C166.851 82.3001 164.595 81.0001 164.269 80.5001Z" stroke="white" stroke-opacity="0.15" stroke-width="2" stroke-linecap="round"/>
</svg>
