<svg width="378" height="163" viewBox="0 0 378 163" fill="none" xmlns="http://www.w3.org/2000/svg">
<path d="M1 115.335C3.94902 113.568 4.24392 111.8 10.4369 113.862C15.7451 123.584 16.3349 132.423 21.938 137.431C27.5412 142.44 32.2596 151.572 42.8761 143.323C51.7231 133.601 47.0047 137.431 59.0957 125.352C70.5874 113.872 93.5992 138.315 100.972 141.556C103.779 142.79 124.859 155.108 140.784 161L230.139 155.402L318.02 147.448C320.575 145.386 322.148 142.145 313.301 141.556C304.121 140.944 243.115 147.153 211.265 149.216C202.418 148.921 188.571 139.243 204.777 135.958C225.125 131.834 241.716 134.608 243.115 135.074C244.884 135.663 254.716 142.796 236.922 144.207C218.343 145.68 179.711 149.216 171.453 151.278C163.582 153.244 146.105 154.716 144.322 154.519C141.668 154.224 90.6502 133.012 92.1247 127.709C93.3043 123.467 111.883 122.111 120.73 121.817L242.525 114.746C248.324 114.353 260.219 114.157 264.642 115.63C268.551 116.932 295.509 129.182 308.583 134.78C310.942 135.79 310.647 140.142 297.671 135.663C281.452 130.066 256.975 115.63 254.616 110.032C252.394 104.76 248.423 86.7581 246.064 60.5377C244.176 39.5614 239.576 17.8192 237.511 9.57006C236.922 6.52575 230.316 0.554969 208.611 1.02635C186.906 1.49772 116.798 4.16885 84.4573 5.44549C76.2 6.32932 71.2456 4.79734 73.8408 24.5952C76.4359 44.393 83.2776 94.1233 88.5859 112.095C90.0604 115.335 92.1247 118.576 118.961 117.692C145.079 116.832 210.97 110.523 240.755 108.854C244.884 108.265 245.443 104.585 242.525 90.8826C239.576 77.0359 232.99 38.2455 230.139 20.4706C228.369 16.9353 228.902 12.8108 209.791 12.8108C189.737 12.8108 123.089 14.5784 95.0737 16.0515C89.7655 16.3306 84.4573 17.171 84.4573 28.7197C84.4573 40.2685 91.1417 83.6156 94.4839 103.846C95.3686 107.675 98.3899 110.063 104.216 93.5341C111.588 72.6168 131.936 28.7197 131.936 28.7197C131.936 28.7197 138.574 19.2922 136.065 34.612C133.942 47.5748 129.086 71.6347 127.218 82.0443C126.235 89.7042 127.454 101.43 139.014 84.6958C153.464 63.7784 169.389 38.1473 172.043 35.7904C174.697 33.4335 183.839 28.7197 175.582 52.5832C167.325 76.4467 164.965 79.0982 164.081 82.0443C162.741 86.5061 162.016 99.4263 175.287 82.3389C188.558 65.2515 191.212 54.6455 194.161 50.8156C196.414 47.8896 211.56 25.1844 210.675 56.7078C206.429 76.977 203.671 80.2766 202.713 84.1066C201.755 87.9365 202.297 90.0194 212.74 78.2144C223.946 65.5461 228.566 67.5102 229.549 69.376C230.827 71.4383 231.141 77.9198 228.075 90.8826C226.187 98.6604 228.664 101.89 231.318 102.372C234.562 102.962 239.576 101.489 240.755 103.256C241.573 104.482 243.325 111.03 246.653 111.505C250.782 112.095 265.822 106.497 271.425 108.854C277.028 111.211 283.192 119.85 290.889 122.111C300.915 125.057 305.634 113.666 309.173 107.675C312.613 101.292 318.827 91.7623 322.738 92.6503C329.226 94.1233 342.791 118.871 343.381 119.46C343.971 120.049 348.984 129.771 355.177 117.987C361.37 106.202 365.014 100.042 369.627 101.194C373.166 102.078 376.214 103.944 377 104.435" stroke="white" stroke-opacity="0.15" stroke-width="2" stroke-linecap="round"/>
</svg>
