<svg width="609" height="171" viewBox="0 0 609 171" fill="none" xmlns="http://www.w3.org/2000/svg">
<path d="M1 170L0.647317 169.646L1.29773 170.402L1 170ZM81.5185 89.8765L81.8295 89.485C81.6309 89.3272 81.3456 89.3432 81.1658 89.5221L81.5185 89.8765ZM177.47 54.8645L177.755 54.4539C177.56 54.3186 177.297 54.3387 177.125 54.5022L177.47 54.8645ZM288.854 1L289.171 0.613557C288.971 0.449085 288.678 0.46497 288.496 0.65015L288.854 1ZM443.852 139.028L444.259 138.738L444.233 138.7L444.199 138.668L443.852 139.028ZM429.09 143.068L428.849 143.505L428.857 143.51L428.866 143.515L429.09 143.068ZM408.29 132.968L408.411 133.453L408.29 132.968ZM391.515 149.127L391.944 149.384L391.515 149.127ZM366.688 125.562L367.144 125.355L367.135 125.337L367.125 125.318L366.688 125.562ZM333.139 129.602L332.672 129.78L332.677 129.793L332.683 129.806L333.139 129.602ZM317.706 89.2032L318.173 89.0248L318.153 88.9711L318.121 88.9234L317.706 89.2032ZM303.615 68.3307L303.127 68.4378C303.141 68.4995 303.166 68.5581 303.201 68.6104L303.615 68.3307ZM181.496 111.422L181.541 111.92L181.728 111.903L181.857 111.768L181.496 111.422ZM166.734 65.0705L166.389 64.7081L166.389 64.7081L166.734 65.0705ZM60.0469 126.235L59.7787 125.813L59.7636 125.823L59.7492 125.833L60.0469 126.235ZM80.1765 138.355L79.6933 138.483L80.1765 138.355ZM429.09 45.4382L429.366 45.0212L429.153 44.8804L428.914 44.9703L429.09 45.4382ZM458.614 64.9641L458.889 65.3817L458.903 65.3725L458.916 65.3623L458.614 64.9641ZM607.573 162.594L607.989 162.317C607.968 162.285 607.943 162.255 607.915 162.229L607.573 162.594ZM576.036 158.554L576.142 158.065L576.114 158.059L576.086 158.056L576.036 158.554ZM557.92 161.92L557.602 161.534L557.602 161.534L557.92 161.92ZM539.132 152.494L538.634 152.532L539.132 152.494ZM510.28 124.215L510.335 123.718L510.28 124.215ZM502.073 122.195L501.586 122.305C501.62 122.458 501.725 122.587 501.868 122.651L502.073 122.195ZM453.246 101.996L453.655 101.708L453.246 101.996ZM472.704 137.008L473.058 137.361L472.704 137.008ZM450.562 122.195L450.216 122.557L450.216 122.557L450.562 122.195ZM430.432 99.9761L429.946 100.092L429.968 100.183L430.021 100.26L430.432 99.9761ZM1.35268 170.354L81.8712 90.2309L81.1658 89.5221L0.647317 169.646L1.35268 170.354ZM81.2075 90.268L113.415 115.854L114.037 115.071L81.8295 89.485L81.2075 90.268ZM177.184 55.2752L212.076 79.5142L212.646 78.6929L177.755 54.4539L177.184 55.2752ZM212.718 79.4534L289.211 1.34985L288.496 0.65015L212.004 78.7537L212.718 79.4534ZM443.445 139.318C444.244 140.44 444.773 141.738 444.878 142.905C444.983 144.065 444.671 145.036 443.867 145.65C443.043 146.278 441.585 146.625 439.194 146.241C436.813 145.859 433.585 144.764 429.314 142.621L428.866 143.515C433.184 145.681 436.514 146.824 439.036 147.229C441.547 147.632 443.335 147.314 444.474 146.445C445.633 145.56 446 144.199 445.874 142.814C445.749 141.435 445.138 139.972 444.259 138.738L443.445 139.318ZM429.332 142.63C422.647 138.941 418.085 136.229 414.897 134.546C413.299 133.702 412.01 133.096 410.94 132.745C409.872 132.395 408.97 132.282 408.168 132.483L408.411 133.453C408.951 133.318 409.642 133.372 410.629 133.696C411.614 134.019 412.842 134.591 414.43 135.43C417.617 137.113 422.114 139.789 428.849 143.505L429.332 142.63ZM408.168 132.483C406.663 132.861 404.411 133.56 401.517 135.882C398.634 138.195 395.132 142.104 391.086 148.871L391.944 149.384C395.95 142.685 399.379 138.879 402.143 136.662C404.895 134.453 407.005 133.806 408.411 133.453L408.168 132.483ZM391.086 148.871C390.317 150.157 389.485 150.9 388.636 151.252C387.794 151.602 386.872 151.592 385.864 151.252C383.813 150.56 381.511 148.532 379.168 145.695C374.507 140.05 369.933 131.512 367.144 125.355L366.233 125.768C369.035 131.955 373.653 140.586 378.397 146.332C380.758 149.19 383.211 151.412 385.545 152.2C386.73 152.6 387.908 152.637 389.02 152.176C390.125 151.717 391.102 150.791 391.944 149.384L391.086 148.871ZM367.125 125.318C366.049 123.386 364.61 121.225 362.958 119.322C361.312 117.424 359.427 115.752 357.454 114.84C355.463 113.92 353.348 113.763 351.34 114.97C349.364 116.158 347.581 118.613 346.089 122.697L347.028 123.04C348.488 119.044 350.166 116.843 351.855 115.828C353.51 114.833 355.262 114.929 357.034 115.748C358.824 116.575 360.599 118.129 362.203 119.977C363.801 121.819 365.203 123.922 366.251 125.805L367.125 125.318ZM346.089 122.697C344.622 126.712 343.193 129.378 341.862 131.059C340.53 132.741 339.337 133.386 338.342 133.48C337.352 133.574 336.426 133.135 335.598 132.352C334.768 131.569 334.081 130.48 333.595 129.397L332.683 129.806C333.204 130.968 333.958 132.179 334.911 133.079C335.865 133.98 337.062 134.606 338.437 134.476C339.807 134.346 341.223 133.476 342.646 131.679C344.07 129.881 345.543 127.105 347.028 123.04L346.089 122.697ZM333.606 129.423L318.173 89.0248L317.239 89.3816L332.672 129.78L333.606 129.423ZM318.121 88.9234L304.03 68.0509L303.201 68.6104L317.292 89.4829L318.121 88.9234ZM304.104 68.2236L289.342 0.892922L288.365 1.10708L303.127 68.4378L304.104 68.2236ZM212 78.7583L181.134 111.077L181.857 111.768L212.723 79.4489L212 78.7583ZM181.451 110.924C179.144 111.133 175.293 111.121 172.011 108.259C168.729 105.397 165.892 99.5742 165.892 87.8566H164.892C164.892 99.7047 167.758 105.877 171.354 109.013C174.95 112.149 179.15 112.137 181.541 111.92L181.451 110.924ZM114.07 115.825L167.078 65.4328L166.389 64.7081L113.381 115.1L114.07 115.825ZM167.078 65.4328L177.814 55.2269L177.125 54.5022L166.389 64.7081L167.078 65.4328ZM165.892 87.8566C165.892 78.7785 166.227 73.5402 166.56 70.3584C166.727 68.7686 166.893 67.6892 167.018 66.8947C167.141 66.1155 167.234 65.5596 167.234 65.0705H166.234C166.234 65.4613 166.159 65.9213 166.03 66.739C165.904 67.5414 165.735 68.6399 165.566 70.2542C165.228 73.4806 164.892 78.7553 164.892 87.8566H165.892ZM1.29773 170.402L60.3446 126.637L59.7492 125.833L0.70227 169.598L1.29773 170.402ZM60.3151 126.657C61.9955 125.589 63.7083 124.536 65.4261 123.864C67.1398 123.194 68.8104 122.922 70.4188 123.361C72.0209 123.799 73.6447 124.967 75.2213 127.344C76.8017 129.727 78.3155 133.298 79.6933 138.483L80.6598 138.226C79.2679 132.989 77.7194 129.301 76.0546 126.791C74.386 124.275 72.5818 122.916 70.6826 122.397C68.7897 121.879 66.8859 122.219 65.0617 122.933C63.2418 123.645 61.4532 124.749 59.7787 125.813L60.3151 126.657ZM79.6933 138.483C81.0431 143.562 83.1483 146.033 85.9612 146.166C87.3247 146.23 88.761 145.73 90.2228 144.855C91.6885 143.979 93.22 142.702 94.7868 141.151C101.033 134.967 108.12 124.133 114.132 115.754L113.32 115.171C107.254 123.624 100.25 134.335 94.0833 140.44C92.5468 141.961 91.0798 143.177 89.7095 143.997C88.3353 144.819 87.0982 145.218 86.0083 145.167C83.9147 145.068 81.9939 143.246 80.6598 138.226L79.6933 138.483ZM288.536 1.38644L369.726 68.0438L370.36 67.2709L289.171 0.613557L288.536 1.38644ZM369.696 68.0168L443.504 139.387L444.199 138.668L370.391 67.2979L369.696 68.0168ZM428.814 45.8553L458.338 65.3812L458.889 64.5471L429.366 45.0212L428.814 45.8553ZM458.916 65.3623C463.049 62.2239 469.347 57.6187 474.809 54.0022C477.542 52.1925 480.053 50.6387 481.974 49.6398C482.938 49.1386 483.732 48.7886 484.321 48.6119C484.617 48.5231 484.834 48.4864 484.982 48.4852C485.137 48.4838 485.136 48.5214 485.099 48.4844L485.807 47.7785C485.569 47.5396 485.246 47.4828 484.973 47.4852C484.691 47.4876 484.371 47.5528 484.033 47.6542C483.354 47.858 482.494 48.2423 481.513 48.7525C479.544 49.7763 476.998 51.3534 474.257 53.1684C468.77 56.8011 462.454 61.4202 458.311 64.5659L458.916 65.3623ZM485.099 48.4844C486.717 50.1085 567.204 125.485 607.231 162.959L607.915 162.229C567.871 124.74 487.409 49.3863 485.807 47.7785L485.099 48.4844ZM607.156 162.87C607.691 163.676 607.568 164.581 607.017 165.257C606.464 165.938 605.477 166.376 604.316 166.143L604.12 167.124C605.643 167.429 607.005 166.857 607.793 165.889C608.585 164.916 608.796 163.531 607.989 162.317L607.156 162.87ZM604.316 166.143C603.676 166.015 602.196 165.578 600.15 164.95C599.134 164.638 597.987 164.281 596.747 163.895C595.507 163.51 594.175 163.096 592.79 162.671C587.256 160.972 580.863 159.08 576.142 158.065L575.931 159.043C580.604 160.047 586.959 161.926 592.497 163.627C593.88 164.052 595.21 164.465 596.45 164.85C597.69 165.236 598.838 165.593 599.856 165.906C601.878 166.527 603.418 166.983 604.12 167.124L604.316 166.143ZM576.086 158.056C573.842 157.831 570.601 157.576 567.243 157.933C563.888 158.29 560.368 159.263 557.602 161.534L558.237 162.307C560.792 160.209 564.093 159.274 567.349 158.928C570.6 158.582 573.757 158.828 575.987 159.051L576.086 158.056ZM557.602 161.534C554.101 164.409 549.8 164.266 546.25 162.323C542.688 160.374 539.952 156.642 539.631 152.456L538.634 152.532C538.984 157.099 541.951 161.11 545.77 163.201C549.601 165.297 554.358 165.492 558.237 162.307L557.602 161.534ZM539.631 152.456C539.276 147.825 535.949 141.096 530.765 135.325C525.57 129.541 518.425 124.62 510.335 123.718L510.224 124.712C517.986 125.577 524.923 130.317 530.021 135.993C535.128 141.679 538.302 148.207 538.634 152.532L539.631 152.456ZM510.335 123.718C507.317 123.382 505.399 123.13 504.193 122.933C503.59 122.834 503.175 122.75 502.895 122.678C502.755 122.642 502.655 122.61 502.586 122.584C502.514 122.557 502.494 122.542 502.498 122.545C502.501 122.547 502.574 122.598 502.61 122.716C502.65 122.848 502.612 122.957 502.587 123.004C502.568 123.041 502.551 123.055 502.573 123.032C502.581 123.023 502.59 123.014 502.606 122.997C502.62 122.983 502.64 122.962 502.66 122.94C502.706 122.889 502.946 122.633 502.839 122.277C502.791 122.115 502.687 122.001 502.595 121.926C502.503 121.851 502.393 121.791 502.279 121.739L501.868 122.651C501.941 122.684 501.964 122.702 501.964 122.702C501.964 122.702 501.91 122.659 501.881 122.563C501.815 122.342 501.975 122.206 501.917 122.271C501.885 122.307 501.901 122.286 501.842 122.35C501.81 122.383 501.747 122.453 501.699 122.546C501.645 122.65 501.595 122.816 501.653 123.007C501.707 123.183 501.827 123.295 501.919 123.36C502.09 123.482 502.342 123.568 502.645 123.646C502.968 123.729 503.416 123.819 504.032 123.92C505.263 124.122 507.203 124.375 510.224 124.712L510.335 123.718ZM502.561 122.086L485.941 48.022L484.965 48.241L501.586 122.305L502.561 122.086ZM458.339 64.5466C454.686 66.9519 450.038 71.7166 447.939 78.2263C445.83 84.7654 446.311 93.0073 452.837 102.284L453.655 101.708C447.297 92.6708 446.884 84.7533 448.89 78.5333C450.906 72.2838 455.384 67.6896 458.889 65.3817L458.339 64.5466ZM452.837 102.284C460.887 113.727 466.227 121.97 469.309 127.591C470.852 130.405 471.816 132.537 472.275 134.072C472.505 134.84 472.6 135.431 472.59 135.869C472.581 136.305 472.471 136.534 472.35 136.655L473.058 137.361C473.427 136.992 473.578 136.473 473.59 135.889C473.602 135.306 473.477 134.603 473.233 133.785C472.743 132.148 471.739 129.942 470.186 127.11C467.076 121.438 461.709 113.157 453.655 101.708L452.837 102.284ZM472.35 136.655C472.29 136.715 472.165 136.79 471.903 136.812C471.64 136.835 471.273 136.8 470.787 136.672C469.815 136.416 468.457 135.811 466.673 134.729C463.11 132.567 457.94 128.555 450.907 121.834L450.216 122.557C457.274 129.302 462.504 133.369 466.154 135.584C467.977 136.69 469.429 137.348 470.532 137.639C471.084 137.784 471.572 137.844 471.988 137.809C472.405 137.773 472.783 137.638 473.058 137.361L472.35 136.655ZM450.907 121.834C439.652 111.077 432.832 102.575 430.844 99.6922L430.021 100.26C432.058 103.213 438.926 111.767 450.216 122.557L450.907 121.834ZM370.219 68.1253L418.53 49.9461L418.178 49.0101L369.867 67.1894L370.219 68.1253ZM418.53 49.9461L429.266 45.9062L428.914 44.9703L418.178 49.0101L418.53 49.9461ZM430.918 99.8598L418.841 49.3618L417.868 49.5944L429.946 100.092L430.918 99.8598Z" fill="white" fill-opacity="0.15"/>
</svg>
