<svg width="609" height="171" viewBox="0 0 609 171" fill="none" xmlns="http://www.w3.org/2000/svg">
<path d="M1 170L0.294634 169.291L1.59546 170.803L1 170ZM81.5185 89.8765L82.1405 89.0935C81.7433 88.7779 81.1728 88.8098 80.8132 89.1676L81.5185 89.8765ZM113.726 115.462L113.104 116.245L113.785 116.786L114.415 116.187L113.726 115.462ZM177.47 54.8645L178.04 54.0433C177.651 53.7726 177.125 53.8129 176.781 54.1398L177.47 54.8645ZM288.854 1L289.488 0.227115C289.088 -0.10183 288.502 -0.0700595 288.139 0.3003L288.854 1ZM443.852 139.028L444.667 138.448L444.613 138.373L444.547 138.309L443.852 139.028ZM429.09 143.068L428.607 143.943L428.624 143.953L428.642 143.962L429.09 143.068ZM391.515 149.127L392.373 149.641L391.515 149.127ZM366.688 125.562L367.599 125.149L367.582 125.111L367.562 125.075L366.688 125.562ZM333.139 129.602L332.205 129.958L332.215 129.985L332.226 130.011L333.139 129.602ZM317.706 89.2032L318.64 88.8463L318.599 88.7389L318.535 88.6437L317.706 89.2032ZM303.615 68.3307L302.639 68.5448C302.666 68.6683 302.716 68.7855 302.787 68.8902L303.615 68.3307ZM181.496 111.422L181.586 112.418L181.96 112.384L182.219 112.113L181.496 111.422ZM60.0469 126.235L59.5105 125.391L59.4803 125.41L59.4515 125.432L60.0469 126.235ZM80.1765 138.355L79.2101 138.611L80.1765 138.355ZM429.09 45.4382L429.642 44.6042L429.216 44.3225L428.738 44.5023L429.09 45.4382ZM458.614 64.9641L459.164 65.7993L459.192 65.7809L459.218 65.7605L458.614 64.9641ZM607.573 162.594L608.406 162.04C608.363 161.976 608.313 161.917 608.256 161.864L607.573 162.594ZM576.036 158.554L576.247 157.576L576.192 157.564L576.136 157.559L576.036 158.554ZM557.92 161.92L557.285 161.147L557.92 161.92ZM539.132 152.494L538.135 152.57L539.132 152.494ZM510.28 124.215L510.39 123.221L510.28 124.215ZM502.073 122.195L501.098 122.414C501.167 122.721 501.376 122.978 501.663 123.107L502.073 122.195ZM453.246 101.996L454.064 101.421L453.246 101.996ZM450.562 122.195L449.871 122.918L450.562 122.195ZM430.432 99.9761L429.46 100.209L429.503 100.39L429.609 100.544L430.432 99.9761ZM1.70537 170.709L82.2239 90.5853L80.8132 89.1676L0.294634 169.291L1.70537 170.709ZM80.8965 90.6595L113.104 116.245L114.348 114.679L82.1405 89.0935L80.8965 90.6595ZM176.899 55.6858L211.791 79.9249L212.932 78.2823L178.04 54.0433L176.899 55.6858ZM213.076 79.8033L289.568 1.6997L288.139 0.3003L211.647 78.4039L213.076 79.8033ZM443.037 139.608C443.797 140.675 444.284 141.889 444.38 142.95C444.475 143.998 444.189 144.775 443.564 145.252C442.898 145.761 441.605 146.122 439.274 145.748C436.963 145.377 433.786 144.305 429.539 142.174L428.642 143.962C432.983 146.14 436.365 147.307 438.957 147.723C441.528 148.135 443.481 147.832 444.777 146.842C446.114 145.821 446.508 144.266 446.372 142.769C446.238 141.284 445.585 139.738 444.667 138.448L443.037 139.608ZM429.573 142.192C422.913 138.517 418.319 135.787 415.131 134.104C413.527 133.257 412.208 132.635 411.096 132.27C409.987 131.907 408.979 131.764 408.046 131.998L408.533 133.938C408.942 133.836 409.528 133.861 410.473 134.171C411.417 134.48 412.613 135.036 414.197 135.872C417.383 137.555 421.847 140.213 428.607 143.943L429.573 142.192ZM408.046 131.998C406.493 132.388 404.169 133.113 401.204 135.492C398.262 137.853 394.723 141.813 390.657 148.614L392.373 149.641C396.358 142.976 399.752 139.221 402.456 137.052C405.137 134.9 407.175 134.279 408.533 133.938L408.046 131.998ZM390.657 148.614C389.924 149.839 389.165 150.492 388.445 150.791C387.737 151.084 386.943 151.089 386.024 150.779C384.114 150.134 381.887 148.202 379.554 145.377C374.934 139.782 370.381 131.291 367.599 125.149L365.777 125.974C368.587 132.177 373.226 140.855 378.012 146.65C380.381 149.52 382.91 151.838 385.385 152.674C386.659 153.103 387.964 153.155 389.211 152.638C390.445 152.126 391.495 151.109 392.373 149.641L390.657 148.614ZM367.562 125.075C366.472 123.119 365.014 120.928 363.336 118.994C361.668 117.072 359.728 115.34 357.664 114.386C355.563 113.415 353.268 113.228 351.082 114.542C348.963 115.815 347.128 118.398 345.619 122.525L347.498 123.212C348.942 119.26 350.567 117.185 352.113 116.256C353.591 115.367 355.162 115.433 356.825 116.202C358.523 116.987 360.243 118.482 361.825 120.305C363.397 122.116 364.779 124.189 365.815 126.048L367.562 125.075ZM345.619 122.525C344.161 126.516 342.754 129.126 341.47 130.748C340.183 132.373 339.102 132.906 338.295 132.983C337.497 133.058 336.707 132.712 335.941 131.989C335.173 131.264 334.519 130.236 334.051 129.192L332.226 130.011C332.765 131.212 333.553 132.484 334.568 133.443C335.584 134.403 336.916 135.122 338.484 134.974C340.042 134.826 341.569 133.844 343.038 131.99C344.509 130.133 346.004 127.301 347.498 123.212L345.619 122.525ZM334.073 129.245L318.64 88.8463L316.772 89.56L332.205 129.958L334.073 129.245ZM318.535 88.6437L304.444 67.7712L302.787 68.8902L316.877 89.7627L318.535 88.6437ZM304.592 68.1165L289.831 0.785844L287.877 1.21416L302.639 68.5448L304.592 68.1165ZM211.638 78.4129L180.773 110.732L182.219 112.113L213.084 79.7942L211.638 78.4129ZM181.406 110.426C179.141 110.631 175.465 110.607 172.34 107.882C169.215 105.157 166.392 99.5089 166.392 87.8566H164.392C164.392 99.77 167.272 106.117 171.025 109.39C174.778 112.662 179.153 112.638 181.586 112.418L181.406 110.426ZM114.415 116.187L167.423 65.7952L166.045 64.3457L113.037 114.737L114.415 116.187ZM167.423 65.7952L178.159 55.5893L176.781 54.1398L166.045 64.3457L167.423 65.7952ZM166.392 87.8566C166.392 78.7901 166.727 73.5701 167.058 70.4104C167.223 68.8329 167.388 67.763 167.512 66.9725C167.632 66.2126 167.734 65.6087 167.734 65.0705H165.734C165.734 65.4122 165.668 65.8242 165.536 66.6612C165.409 67.4676 165.239 68.5756 165.068 70.2022C164.728 73.4508 164.392 78.7437 164.392 87.8566H166.392ZM1.59546 170.803L60.6424 127.038L59.4515 125.432L0.40454 169.197L1.59546 170.803ZM60.5833 127.079C62.2667 126.009 63.9415 124.982 65.6083 124.33C67.2668 123.681 68.8208 123.443 70.2869 123.844C71.7404 124.241 73.2741 125.313 74.8046 127.62C76.3429 129.94 77.8393 133.453 79.2101 138.611L81.143 138.098C79.7442 132.834 78.1782 129.088 76.4713 126.515C74.7566 123.93 72.8622 122.474 70.8144 121.915C68.7793 121.358 66.7589 121.732 64.8795 122.467C63.0085 123.199 61.1821 124.329 59.5105 125.391L60.5833 127.079ZM79.2101 138.611C80.5696 143.727 82.755 146.563 85.8866 146.872C87.3852 147.02 88.9272 146.554 90.443 145.731C91.9638 144.906 93.5329 143.682 95.1183 142.199C101.418 136.304 108.545 125.745 114.538 117.392L112.913 116.226C106.829 124.705 99.8649 135.019 93.7518 140.738C92.2338 142.159 90.8045 143.26 89.4893 143.973C88.1691 144.69 87.0376 144.976 86.0829 144.882C84.308 144.706 82.4675 143.082 81.143 138.098L79.2101 138.611ZM288.219 1.77289L369.409 68.4303L370.678 66.8845L289.488 0.227115L288.219 1.77289ZM369.348 68.3763L443.157 139.747L444.547 138.309L370.738 66.9385L369.348 68.3763ZM428.538 46.2723L458.062 65.7982L459.165 64.1301L429.642 44.6042L428.538 46.2723ZM459.218 65.7605C463.347 62.6257 469.635 58.0275 475.085 54.419C477.814 52.612 480.308 51.0699 482.205 50.0834C483.16 49.5868 483.921 49.2539 484.464 49.0908C484.739 49.0083 484.906 48.9858 484.986 48.9851C485.083 48.9843 484.919 49.0123 484.745 48.8374L486.161 47.4256C485.786 47.0487 485.301 46.9823 484.969 46.9852C484.619 46.9882 484.248 47.0676 483.889 47.1753C483.165 47.3927 482.273 47.7941 481.282 48.3089C479.29 49.3451 476.726 50.9339 473.981 52.7515C468.482 56.3923 462.156 61.0184 458.009 64.1677L459.218 65.7605ZM484.745 48.8374C486.371 50.4697 566.87 125.858 606.889 163.324L608.256 161.864C568.205 124.368 487.755 49.0252 486.161 47.4256L484.745 48.8374ZM606.74 163.147C607.139 163.748 607.059 164.414 606.629 164.942C606.193 165.478 605.393 165.849 604.415 165.653L604.021 167.614C605.727 167.956 607.275 167.317 608.181 166.204C609.093 165.083 609.349 163.459 608.406 162.04L606.74 163.147ZM604.415 165.653C603.805 165.531 602.355 165.104 600.297 164.472C599.282 164.16 598.136 163.803 596.895 163.418C595.656 163.033 594.323 162.619 592.937 162.193C587.405 160.494 580.992 158.596 576.247 157.576L575.826 159.531C580.475 160.531 586.81 162.404 592.35 164.105C593.732 164.53 595.062 164.943 596.302 165.328C597.541 165.713 598.691 166.071 599.71 166.384C601.72 167.001 603.289 167.467 604.021 167.614L604.415 165.653ZM576.136 157.559C573.885 157.333 570.601 157.073 567.19 157.436C563.786 157.799 560.156 158.79 557.285 161.147L558.554 162.693C561.004 160.682 564.196 159.766 567.402 159.425C570.6 159.085 573.715 159.326 575.937 159.549L576.136 157.559ZM557.285 161.147C553.973 163.867 549.899 163.751 546.49 161.885C543.056 160.005 540.435 156.414 540.129 152.418L538.135 152.57C538.5 157.327 541.583 161.479 545.53 163.639C549.501 165.813 554.486 166.033 558.554 162.693L557.285 161.147ZM540.129 152.418C539.762 147.633 536.359 140.805 531.137 134.99C525.894 129.153 518.644 124.142 510.39 123.221L510.169 125.209C517.767 126.056 524.6 130.705 529.649 136.327C534.718 141.971 537.815 148.398 538.135 152.57L540.129 152.418ZM510.39 123.221C507.374 122.885 505.466 122.635 504.274 122.439C503.677 122.341 503.279 122.26 503.019 122.193C502.721 122.117 502.712 122.084 502.788 122.138C502.838 122.173 503.008 122.306 503.088 122.57C503.178 122.864 503.095 123.11 503.032 123.233C502.979 123.335 502.922 123.391 502.938 123.373C502.942 123.369 502.946 123.365 502.965 123.346C502.979 123.331 503.005 123.304 503.032 123.274C503.071 123.23 503.511 122.778 503.318 122.134C503.231 121.842 503.049 121.651 502.911 121.539C502.772 121.426 502.62 121.344 502.484 121.283L501.663 123.107C501.714 123.13 501.695 123.128 501.648 123.09C501.602 123.052 501.469 122.931 501.402 122.706C501.328 122.457 501.379 122.238 501.441 122.103C501.468 122.042 501.497 121.999 501.514 121.976C501.531 121.952 501.544 121.938 501.545 121.937C501.546 121.936 501.544 121.938 501.531 121.951C501.522 121.961 501.498 121.985 501.476 122.008C501.44 122.047 501.336 122.159 501.254 122.317C501.161 122.497 501.067 122.8 501.175 123.152C501.273 123.476 501.49 123.669 501.629 123.767C501.882 123.948 502.216 124.052 502.521 124.13C502.864 124.219 503.33 124.311 503.951 124.413C505.196 124.617 507.146 124.872 510.169 125.209L510.39 123.221ZM503.049 121.976L486.429 47.9125L484.477 48.3504L501.098 122.414L503.049 121.976ZM458.064 64.129C454.337 66.583 449.604 71.433 447.463 78.0728C445.302 84.7715 445.818 93.1755 452.428 102.571L454.064 101.421C447.79 92.5025 447.411 84.7473 449.366 78.6868C451.34 72.5674 455.733 68.0584 459.164 65.7993L458.064 64.129ZM452.428 102.571C460.475 114.012 465.802 122.236 468.871 127.831C470.409 130.636 471.352 132.731 471.796 134.215C472.018 134.959 472.098 135.494 472.091 135.858C472.087 136.036 472.063 136.15 472.04 136.217C472.018 136.281 471.998 136.3 471.996 136.302L473.413 137.714C473.904 137.221 474.077 136.557 474.09 135.9C474.104 135.243 473.964 134.484 473.712 133.642C473.207 131.954 472.183 129.711 470.624 126.87C467.5 121.172 462.12 112.873 454.064 101.421L452.428 102.571ZM471.996 136.302C472.044 136.254 472.044 136.298 471.861 136.314C471.674 136.33 471.368 136.308 470.915 136.188C470.009 135.95 468.698 135.372 466.933 134.301C463.414 132.166 458.273 128.181 451.253 121.472L449.871 122.918C456.941 129.675 462.201 133.77 465.895 136.011C467.737 137.129 469.235 137.814 470.405 138.122C470.99 138.276 471.538 138.349 472.03 138.307C472.526 138.265 473.029 138.099 473.413 137.714L471.996 136.302ZM451.253 121.472C440.015 110.732 433.22 102.255 431.255 99.4082L429.609 100.544C431.671 103.532 438.564 112.112 449.871 122.918L451.253 121.472ZM370.395 68.5933L418.707 50.414L418.002 48.5422L369.691 66.7214L370.395 68.5933ZM418.707 50.414L429.442 46.3742L428.738 44.5023L418.002 48.5422L418.707 50.414ZM431.405 99.7435L419.327 49.2455L417.382 49.7107L429.46 100.209L431.405 99.7435Z" fill="white" fill-opacity="0.15"/>
</svg>
