<svg width="199" height="242" viewBox="0 0 199 242" fill="none" xmlns="http://www.w3.org/2000/svg">
<path d="M52.4048 196.882V225.118L33.0634 241L61.1964 233.941L85.2266 241L65.8852 228.647V203.941M52.4048 196.882L41.2689 189.824L33.0634 165.706M52.4048 196.882L65.8852 203.941M33.0634 165.706L68.2296 175.706M33.0634 165.706L41.2689 121M33.0634 165.706L24.858 145.118L13.136 133.941L4.93051 105.118L9.61933 62.7647M68.2296 175.706L41.2689 121M68.2296 175.706L85.2266 188.615M41.2689 121L78.1934 117.471M41.2689 121L116.29 194.529M41.2689 121L33.0634 102.765M78.1934 117.471L162.592 201M78.1934 117.471H135.631M78.1934 117.471L45.3716 91M162.592 201L116.29 194.529M162.592 201V183.353M162.592 201L180.175 222.176M116.29 194.529L188.967 236.882M188.967 236.882L133.287 225.118L110.429 207.757M188.967 236.882L180.175 222.176M65.8852 203.941L74.6767 209.235L83.4683 205.706M83.4683 205.706L85.2266 188.615M83.4683 205.706L101.637 233.941L110.429 207.757M85.2266 188.615L110.429 207.757M135.631 117.471L162.592 183.353M135.631 117.471L110.429 83.9412M162.592 183.353L196 222.176H180.175M9.61933 62.7647L16.6526 91L33.0634 102.765M9.61933 62.7647L2 41.5882M33.0634 102.765L35.4079 91H45.3716M45.3716 91H54.7492M54.7492 91L27.7885 76.2941L13.136 47.4706M54.7492 91L94.6042 76.2941L110.429 83.9412M54.7492 91L82.8822 61.5882L88.6192 33.3529M54.7492 91L88.6192 69.8235L97.4953 53.9412M13.136 47.4706L2 41.5882M13.136 47.4706L43.6133 63.3529M13.136 47.4706L16.0665 30.4118L33.9426 20.1176M2 41.5882L13.136 12.1765M13.136 12.1765L30.1329 1H68.2296L80.5378 12.1765M13.136 12.1765L33.9426 20.1176M80.5378 12.1765L67.6435 20.1176M80.5378 12.1765L84.0544 22.7647M33.9426 20.1176L54.7492 28.0588L67.6435 20.1176M33.9426 20.1176L43.6133 63.3529M43.6133 63.3529L54.7492 85.7059L63.3672 63.7944M43.6133 63.3529H63.5408M63.5408 63.3529L67.6435 20.1176M63.5408 63.3529L63.3672 63.7944M67.6435 20.1176L84.0544 22.7647M84.0544 22.7647L88.6192 33.3529M110.429 83.9412L97.4953 53.9412M63.3672 63.7944L88.6192 33.3529M88.6192 33.3529L97.4953 53.9412" stroke="white" stroke-opacity="0.15" stroke-width="2"/>
</svg>
