<svg width="218" height="112" viewBox="0 0 218 112" fill="none" xmlns="http://www.w3.org/2000/svg">
<path d="M3.23242 35.4561L75.2324 46.4561M3.23242 35.4561L60.2324 110.456M3.23242 35.4561L62.8724 63.4561M75.2324 46.4561L109.732 2.45605M75.2324 46.4561L62.8724 63.4561M109.732 2.45605V85.4561M109.732 2.45605L141.112 48.4561M109.732 85.4561L153.732 66.9561M109.732 85.4561L62.8724 63.4561M109.732 85.4561L60.2324 110.456M109.732 85.4561L160.732 108.956M153.732 66.9561L141.112 48.4561M153.732 66.9561L214.732 35.4561M141.112 48.4561L214.732 35.4561M214.732 35.4561L160.732 108.956M160.732 108.956L60.2324 110.456" stroke="white" stroke-opacity="0.15" stroke-width="2"/>
</svg>
