<svg width="126" height="277" viewBox="0 0 126 277" fill="none" xmlns="http://www.w3.org/2000/svg">
<path d="M15.1665 146.917L109.666 245.5M51.3331 123.583L64.0143 137.076M124.25 201.167L115.457 191.811M2.33313 201.167L64.0143 137.076M76.9998 123.583L64.0143 137.076M64.0143 137.076L91.3551 166.167M91.3551 166.167L109.666 149.25L39.6665 221.843M91.3551 166.167L115.457 191.811M15.1665 247.25L39.6665 221.843M39.6665 221.843L4.08313 181.917L64.0143 247.059M84.5831 269.417L64.0143 247.059M64.0143 247.059L43.1665 269.417L115.457 191.811M122.5 184.25L115.457 191.811M49.5831 44.8333L65.9165 4L76.9998 44.8333M49.5831 44.8333L64.0143 64.6667M49.5831 44.8333L36.7498 22.6667L40.5291 69.9167M64.0143 64.6667L76.9998 44.8333M64.0143 64.6667L69.4165 84.5M64.0143 64.6667L57.1665 84.5M76.9998 44.8333L91.3551 26.75L86.9165 69.9167M86.9165 69.9167L116.666 43.0833L89.8331 96.75M86.9165 69.9167L69.4165 84.5M89.8331 96.75L102.083 93.8333L91.3551 119.5H64.0524M89.8331 96.75L73.4998 101.417M54.2498 101.417L64.0524 119.5M54.2498 101.417L57.1665 84.5M54.2498 101.417L36.7498 97.2037M64.0524 119.5H36.7498L22.7498 93.8333L36.7498 97.2037M64.0524 119.5L73.4998 101.417M73.4998 101.417L69.4165 84.5M57.1665 84.5L40.5291 69.9167M36.7498 97.2037L9.91646 43.0833L40.5291 69.9167" stroke="white" stroke-opacity="0.15" stroke-width="2"/>
<path d="M125 198.25C125 241.08 97.051 275.417 63 275.417C28.949 275.417 1 241.08 1 198.25C1 155.42 28.949 121.083 63 121.083C97.051 121.083 125 155.42 125 198.25Z" stroke="white" stroke-opacity="0.15" stroke-width="2"/>
</svg>
