<svg width="379" height="198" viewBox="0 0 379 198" fill="none" xmlns="http://www.w3.org/2000/svg">
<path d="M57.115 105.192C56.9172 105.384 56.9129 105.701 57.1056 105.899C57.2982 106.097 57.6147 106.101 57.8126 105.908L57.115 105.192ZM313.464 55.0499L313.825 54.7039C313.797 54.6744 313.765 54.6485 313.73 54.6267L313.464 55.0499ZM223.464 88.0499L223.622 88.5242L223.464 88.0499ZM36.4638 121.05L36.3782 120.557C36.1274 120.601 35.9495 120.826 35.9647 121.08C35.98 121.334 36.1836 121.536 36.4377 121.549L36.4638 121.05ZM122.464 125.55L122.574 125.062C122.546 125.056 122.518 125.052 122.49 125.051L122.464 125.55ZM26.4638 168.55L26.3684 169.041C26.4589 169.058 26.5525 169.051 26.6389 169.018L26.4638 168.55ZM66.4639 136.05L66.4814 135.55C66.4636 135.55 66.4459 135.55 66.4282 135.551L66.4639 136.05ZM342.964 8.54991L343.195 8.9932L343.195 8.9932L342.964 8.54991ZM308.464 38.5498H307.964C307.964 38.742 308.074 38.9171 308.247 39.0004L308.464 38.5498ZM342.964 88.0499L342.47 87.969L342.964 88.0499ZM278.964 187.05L278.762 186.592L278.964 187.05ZM219.964 187.05L219.641 186.668C219.475 186.808 219.419 187.039 219.501 187.239L219.964 187.05ZM285.464 131.55L285.787 131.931C285.803 131.918 285.817 131.904 285.831 131.889L285.464 131.55ZM282.536 90.0551C282.263 90.0151 282.009 90.2043 281.969 90.4775C281.929 90.7508 282.118 91.0046 282.392 91.0446L282.536 90.0551ZM57.8126 105.908C79.7689 84.5341 118.905 56.3554 164.919 41.3126C210.924 26.2729 263.759 24.3749 313.198 55.4731L313.73 54.6267C263.968 23.3249 210.804 25.2602 164.608 40.3621C118.423 55.461 79.1588 83.7324 57.115 105.192L57.8126 105.908ZM313.103 55.3958C315.905 58.3202 316.583 60.8855 315.847 63.1639C315.093 65.5 312.809 67.7047 309.275 69.7582C302.227 73.854 290.612 77.1229 278.113 79.6851C265.633 82.2436 252.336 84.0854 241.966 85.3505C236.781 85.9829 232.331 86.4709 229.08 86.8323C227.456 87.0129 226.129 87.1621 225.16 87.282C224.676 87.3418 224.278 87.3948 223.976 87.4411C223.69 87.4849 223.447 87.5284 223.306 87.5756L223.622 88.5242C223.668 88.509 223.822 88.4763 224.127 88.4296C224.415 88.3855 224.802 88.3339 225.283 88.2744C226.244 88.1555 227.565 88.0069 229.191 87.8261C232.44 87.4649 236.896 86.9763 242.087 86.3431C252.467 85.0769 265.795 83.2312 278.314 80.6647C290.816 78.1019 302.575 74.8083 309.778 70.6228C313.369 68.5357 315.928 66.1702 316.799 63.471C317.689 60.7143 316.772 57.7796 313.825 54.7039L313.103 55.3958ZM223.306 87.5756C223.264 87.5895 223.103 87.6287 222.787 87.6955C222.485 87.7592 222.07 87.8424 221.547 87.9444C220.499 88.1482 219.024 88.4253 217.165 88.7684C213.446 89.4543 208.195 90.4025 201.77 91.5515C188.918 93.8492 171.369 96.9491 151.977 100.357C113.194 107.174 67.0447 115.224 36.3782 120.557L36.5495 121.543C67.2163 116.209 113.367 108.159 152.15 101.342C171.542 97.934 189.093 94.8339 201.946 92.5358C208.372 91.3868 213.624 90.4382 217.346 89.7518C219.206 89.4086 220.685 89.1307 221.738 88.926C222.263 88.8236 222.684 88.7392 222.994 88.6739C223.288 88.6116 223.514 88.5603 223.622 88.5242L223.306 87.5756ZM36.4377 121.549L122.438 126.049L122.49 125.051L36.4899 120.551L36.4377 121.549ZM122.354 126.038C123.616 126.323 124.733 126.792 125.359 127.406C125.664 127.703 125.832 128.014 125.873 128.34C125.914 128.665 125.837 129.071 125.526 129.575C124.888 130.609 123.343 131.935 120.339 133.542C117.353 135.139 112.99 136.981 106.803 139.076L107.124 140.023C113.338 137.919 117.758 136.057 120.811 134.424C123.845 132.8 125.593 131.37 126.377 130.1C126.776 129.452 126.941 128.819 126.865 128.215C126.789 127.612 126.481 127.104 126.059 126.691C125.232 125.882 123.895 125.361 122.574 125.062L122.354 126.038ZM106.803 139.076C81.9955 147.479 42.7892 161.915 26.2888 168.082L26.6389 169.018C43.1384 162.852 82.3322 148.421 107.124 140.023L106.803 139.076ZM26.5593 168.059C20.5755 166.896 12.3143 164.608 6.91068 161.54C4.18981 159.995 2.30981 158.317 1.70805 156.583C1.41497 155.738 1.41919 154.866 1.79971 153.945C2.18542 153.012 2.96907 152.005 4.27966 150.938L3.64798 150.162C2.25857 151.294 1.34534 152.427 0.875588 153.563C0.400635 154.712 0.390799 155.837 0.763341 156.911C1.49283 159.012 3.66283 160.846 6.41696 162.41C11.9633 165.559 20.3522 167.871 26.3684 169.041L26.5593 168.059ZM4.27966 150.938C6.9072 148.797 11.0718 146.886 16.1456 145.211C21.208 143.539 27.1294 142.116 33.2343 140.928C45.4437 138.554 58.3482 137.131 66.4995 136.549L66.4282 135.551C58.2462 136.136 45.3006 137.563 33.0434 139.947C26.9149 141.138 20.9488 142.571 15.832 144.261C10.7267 145.947 6.42045 147.903 3.64798 150.162L4.27966 150.938ZM66.4464 136.55C99.7699 137.716 167.652 140.05 172.464 140.05V139.05C167.675 139.05 99.8245 136.717 66.4814 135.55L66.4464 136.55ZM172.464 140.05C175.501 140.05 194.53 138.671 215.542 135.356C226.052 133.698 237.072 131.554 246.847 128.852C256.61 126.153 265.179 122.885 270.752 118.959L270.176 118.141C264.749 121.965 256.318 125.196 246.581 127.888C236.856 130.577 225.876 132.714 215.386 134.369C194.397 137.679 175.426 139.05 172.464 139.05V140.05ZM270.752 118.959C281.76 111.203 304.145 94.6954 325.281 77.3111C335.849 68.6191 346.111 59.703 354.485 51.5487C362.845 43.4067 369.365 35.985 372.405 30.2852L371.523 29.8146C368.563 35.3648 362.145 42.6931 353.787 50.8323C345.441 58.9593 335.203 67.8557 324.646 76.5387C303.533 93.9044 281.168 110.397 270.176 118.141L270.752 118.959ZM372.405 30.2852C375.423 24.6261 377.294 19.2843 377.843 14.7269C378.391 10.1773 377.628 6.33136 375.269 3.77346C372.902 1.20629 369.043 0.0589015 363.682 0.654526C358.322 1.25009 351.384 3.59264 342.733 8.10661L343.195 8.9932C351.793 4.50717 358.606 2.22472 363.793 1.64841C368.979 1.07216 372.463 2.20602 374.534 4.45135C376.613 6.70595 377.381 10.2037 376.85 14.6073C376.321 19.003 374.504 24.2237 371.523 29.8146L372.405 30.2852ZM342.733 8.10661C328.902 15.3227 320.231 21.8507 315.009 27.0972C312.399 29.7204 310.644 32.0295 309.54 33.9506C308.441 35.861 307.964 37.4253 307.964 38.5498H308.964C308.964 37.6744 309.349 36.2886 310.407 34.4491C311.458 32.6202 313.154 30.3793 315.718 27.8026C320.847 22.649 329.426 16.1771 343.195 8.9932L342.733 8.10661ZM308.247 39.0004C314.783 42.1442 324.349 48.3817 331.775 56.8544C339.202 65.3273 344.437 75.9732 342.47 87.969L343.457 88.1308C345.491 75.7266 340.06 64.7891 332.527 56.1953C324.995 47.6013 315.311 41.2888 308.681 38.0992L308.247 39.0004ZM342.47 87.969C337.47 118.473 328.498 164.709 278.762 186.592L279.165 187.507C329.43 165.391 338.458 118.627 343.457 88.1308L342.47 87.969ZM278.762 186.592C258.81 195.371 244.907 197.171 235.657 195.904C226.406 194.638 221.841 190.318 220.427 186.86L219.501 187.239C221.087 191.115 226.022 195.595 235.521 196.895C245.021 198.196 259.118 196.328 279.165 187.507L278.762 186.592ZM220.287 187.431L285.787 131.931L285.141 131.168L219.641 186.668L220.287 187.431ZM285.831 131.889C291.349 125.912 297.88 116.627 299.381 108.248C300.135 104.04 299.629 100.001 297.02 96.7428C294.419 93.495 289.801 91.1163 282.536 90.0551L282.392 91.0446C289.526 92.0867 293.859 94.3954 296.239 97.3679C298.611 100.33 299.118 104.045 298.397 108.071C296.948 116.162 290.578 125.273 285.097 131.211L285.831 131.889Z" fill="white" fill-opacity="0.15"/>
</svg>
