<svg width="379" height="198" viewBox="0 0 379 198" fill="none" xmlns="http://www.w3.org/2000/svg">
<path d="M56.7663 104.833C56.3705 105.219 56.362 105.852 56.7473 106.247C57.1325 106.643 57.7656 106.652 58.1614 106.266L56.7663 104.833ZM313.464 55.0499L314.186 54.358C314.129 54.2989 314.066 54.247 313.996 54.2034L313.464 55.0499ZM223.464 88.0499L223.78 88.9986L223.464 88.0499ZM36.4638 121.05L36.2925 120.065C35.7911 120.152 35.4351 120.602 35.4656 121.11C35.4961 121.618 35.9033 122.022 36.4116 122.049L36.4638 121.05ZM122.464 125.55L122.684 124.574C122.629 124.562 122.573 124.554 122.516 124.551L122.464 125.55ZM26.4638 168.55L26.273 169.532C26.454 169.567 26.6412 169.551 26.8139 169.487L26.4638 168.55ZM66.4639 136.05L66.4988 135.051C66.4634 135.049 66.428 135.05 66.3926 135.052L66.4639 136.05ZM342.964 8.54991L343.426 9.43649L342.964 8.54991ZM308.464 38.5498H307.464C307.464 38.9341 307.684 39.2844 308.03 39.451L308.464 38.5498ZM342.964 88.0499L341.977 87.8881L342.964 88.0499ZM278.964 187.05L278.561 186.134L278.964 187.05ZM219.964 187.05L219.317 186.287C218.987 186.567 218.874 187.028 219.038 187.428L219.964 187.05ZM285.464 131.55L286.11 132.313C286.141 132.286 286.171 132.258 286.199 132.228L285.464 131.55ZM282.608 89.5603C282.062 89.4805 281.554 89.8588 281.474 90.4053C281.395 90.9518 281.773 91.4595 282.319 91.5393L282.608 89.5603ZM58.1614 106.266C80.0739 84.9349 119.146 56.8026 165.075 41.7879C210.984 26.7793 263.655 24.8999 312.931 55.8964L313.996 54.2034C264.073 22.7999 210.743 24.7539 164.453 39.8869C118.181 55.0138 78.8538 83.3315 56.7663 104.833L58.1614 106.266ZM312.742 55.7418C315.472 58.5904 316.03 60.971 315.372 63.0103C314.676 65.1649 312.529 67.2892 309.024 69.3259C302.053 73.3768 290.51 76.6334 278.013 79.1953C265.552 81.7498 252.27 83.5897 241.905 84.8541C236.724 85.4862 232.277 85.9738 229.025 86.3353C227.402 86.5158 226.071 86.6655 225.099 86.7857C224.613 86.8458 224.21 86.8995 223.9 86.9469C223.624 86.9892 223.337 87.0381 223.148 87.1012L223.78 88.9986C223.778 88.9993 223.888 88.972 224.202 88.9239C224.484 88.8808 224.865 88.8299 225.344 88.7706C226.302 88.6521 227.62 88.5039 229.246 88.3231C232.495 87.9619 236.954 87.473 242.147 86.8394C252.532 85.5726 265.876 83.725 278.415 81.1545C290.918 78.5914 302.749 75.2855 310.029 71.0551C313.649 68.9513 316.345 66.5052 317.275 63.6246C318.242 60.6288 317.206 57.5094 314.186 54.358L312.742 55.7418ZM223.148 87.1012C223.158 87.0976 223.132 87.1061 223.035 87.129C222.949 87.149 222.833 87.1748 222.684 87.2063C222.386 87.2692 221.974 87.3518 221.451 87.4536C220.406 87.6569 218.933 87.9337 217.074 88.2766C213.357 88.9623 208.107 89.9104 201.682 91.0593C188.831 93.3569 171.282 96.4567 151.891 99.865C113.108 106.682 66.9588 114.731 36.2925 120.065L36.6352 122.035C67.3022 116.702 113.453 108.652 152.237 101.835C171.629 98.4264 189.18 95.3262 202.034 93.028C208.46 91.879 213.714 90.9302 217.437 90.2435C219.298 89.9002 220.779 89.6219 221.833 89.4167C222.36 89.3142 222.784 89.2292 223.097 89.1631C223.381 89.1031 223.639 89.0457 223.78 88.9986L223.148 87.1012ZM36.4116 122.049L122.412 126.549L122.516 124.551L36.5161 120.051L36.4116 122.049ZM122.244 126.525C123.476 126.804 124.483 127.247 125.01 127.763C125.255 128.003 125.353 128.216 125.377 128.402C125.4 128.588 125.367 128.88 125.1 129.313C124.536 130.228 123.092 131.502 120.103 133.101C117.151 134.68 112.816 136.512 106.643 138.603L107.285 140.497C113.511 138.388 117.96 136.516 121.046 134.864C124.097 133.233 125.946 131.751 126.803 130.362C127.246 129.643 127.455 128.896 127.361 128.152C127.268 127.41 126.89 126.805 126.409 126.334C125.482 125.427 124.035 124.88 122.684 124.574L122.244 126.525ZM106.643 138.603C81.8271 147.008 42.6146 161.446 26.1137 167.613L26.8139 169.487C43.3131 163.32 82.5005 148.892 107.285 140.497L106.643 138.603ZM26.6547 167.568C20.6871 166.408 12.4898 164.133 7.15754 161.105C4.4533 159.57 2.7183 157.969 2.18041 156.419C1.92705 155.689 1.92847 154.942 2.26177 154.136C2.60546 153.305 3.32433 152.361 4.59549 151.325L3.33215 149.775C1.90332 150.939 0.925305 152.134 0.413526 153.372C-0.108644 154.635 -0.121285 155.887 0.290985 157.075C1.08434 159.36 3.39934 161.271 6.17011 162.845C11.7879 166.034 20.2405 168.359 26.273 169.532L26.6547 167.568ZM4.59549 151.325C7.15057 149.243 11.2444 147.356 16.3024 145.685C21.3376 144.023 27.2367 142.604 33.3297 141.419C45.5153 139.049 58.3992 137.629 66.5351 137.047L66.3926 135.052C58.1952 135.638 45.2291 137.067 32.9479 139.456C26.8077 140.65 20.8193 142.088 15.6753 143.786C10.5541 145.477 6.17707 147.457 3.33215 149.775L4.59549 151.325ZM66.4289 137.049C99.7427 138.215 167.641 140.55 172.464 140.55V138.55C167.687 138.55 99.8517 136.218 66.4988 135.051L66.4289 137.049ZM172.464 140.55C175.539 140.55 194.597 139.166 215.62 135.85C226.14 134.191 237.181 132.043 246.98 129.334C256.755 126.632 265.393 123.346 271.04 119.367L269.888 117.732C264.534 121.504 256.173 124.718 246.447 127.406C236.747 130.088 225.788 132.222 215.308 133.875C194.331 137.184 175.389 138.55 172.464 138.55V140.55ZM271.04 119.367C282.056 111.606 304.451 95.091 325.599 77.6972C336.173 69.0007 346.446 60.0748 354.833 51.9069C363.196 43.7635 369.766 36.2951 372.846 30.5205L371.082 29.5793C368.161 35.0547 361.795 42.3363 353.438 50.4741C345.107 58.5875 334.88 67.4741 324.329 76.1526C303.226 93.5089 280.872 109.994 269.888 117.732L271.04 119.367ZM372.846 30.5205C375.883 24.8272 377.781 19.4249 378.34 14.7866C378.896 10.1641 378.135 6.14407 375.637 3.43452C373.121 0.706417 369.075 -0.447727 363.627 0.157584C358.18 0.762773 351.18 3.13537 342.501 7.66332L343.426 9.43649C351.998 4.96444 358.748 2.71204 363.848 2.14535C368.947 1.57879 372.244 2.70589 374.166 4.79029C376.105 6.89324 376.875 10.2169 376.354 14.5475C375.834 18.8624 374.045 24.0226 371.082 29.5793L372.846 30.5205ZM342.501 7.66332C328.64 14.8954 319.922 21.4516 314.655 26.7445C312.021 29.3909 310.238 31.7341 309.106 33.7014C307.987 35.6472 307.464 37.3007 307.464 38.5498H309.464C309.464 37.7989 309.803 36.5024 310.84 34.6983C311.865 32.9156 313.531 30.7088 316.073 28.1553C321.155 23.0482 329.688 16.6044 343.426 9.43649L342.501 7.66332ZM308.03 39.451C314.519 42.572 324.026 48.7719 331.399 57.184C338.772 65.5964 343.91 76.0966 341.977 87.8881L343.951 88.2117C346.018 75.6032 340.489 64.5201 332.903 55.8657C325.318 47.2111 315.576 40.861 308.897 37.6486L308.03 39.451ZM341.977 87.8881C336.976 118.395 328.032 164.367 278.561 186.134L279.367 187.965C329.896 165.732 338.952 118.704 343.951 88.2117L341.977 87.8881ZM278.561 186.134C258.656 194.893 244.85 196.658 235.724 195.409C226.598 194.16 222.218 189.919 220.889 186.671L219.038 187.428C220.71 191.514 225.83 196.073 235.453 197.391C245.077 198.708 259.271 196.807 279.367 187.965L278.561 186.134ZM220.61 187.813L286.11 132.313L284.817 130.787L219.317 186.287L220.61 187.813ZM286.199 132.228C291.735 126.232 298.347 116.859 299.873 108.336C300.643 104.037 300.137 99.836 297.41 96.4303C294.699 93.0448 289.939 90.6311 282.608 89.5603L282.319 91.5393C289.389 92.5719 293.579 94.8456 295.849 97.6804C298.103 100.495 298.61 104.047 297.905 107.983C296.481 115.93 290.193 124.954 284.729 130.871L286.199 132.228Z" fill="white" fill-opacity="0.15"/>
</svg>
