<svg width="438" height="161" viewBox="0 0 438 161" fill="none" xmlns="http://www.w3.org/2000/svg">
<path d="M434.224 15.5024L434.713 15.6071L434.667 15.8194L434.481 15.9311L434.224 15.5024ZM375.133 7.91278L375.301 8.38365L375.244 8.40422L375.183 8.4103L375.133 7.91278ZM327.969 10.0813L328.061 10.5729L327.969 10.0813ZM211.957 63.2083L211.93 63.7075L211.957 63.2083ZM176.72 61.0398L176.523 60.5803L176.523 60.5803L176.72 61.0398ZM43.9026 51.8239L43.8204 52.3171L43.9026 51.8239ZM48.2395 38.8132L48.39 38.3364L48.2395 38.8132ZM3.24413 59.4135L3.56952 59.7931L3.56952 59.7931L3.24413 59.4135ZM32.5182 77.3032L32.6542 77.7844L32.6321 77.7906L32.6095 77.7948L32.5182 77.3032ZM63.4186 63.2083L63.0369 62.8853L63.4186 63.2083ZM74.803 59.4135L75.0549 58.9816L75.0549 58.9816L74.803 59.4135ZM129.014 102.24L129.292 101.824L129.292 101.824L129.014 102.24ZM286.769 138.02L286.846 138.514L286.84 138.515L286.769 138.02ZM352.907 119.046L352.607 118.646L352.611 118.643L352.907 119.046ZM408.744 63.2083L409.117 63.542L408.744 63.2083ZM429.887 39.3553L429.509 39.0279L429.528 39.0054L429.55 38.9853L429.887 39.3553ZM428.26 16.5866L428.288 16.0874L428.315 16.0889L428.342 16.0934L428.26 16.5866ZM383.265 23.6341L383.417 24.1105L383.405 24.1141L383.265 23.6341ZM361.58 26.8867L361.685 27.3756L361.58 26.8867ZM336.101 55.0766L336.517 55.3539L336.101 55.0766ZM223.342 119.046L223.662 119.43L223.342 119.046ZM221.173 108.204L221.11 107.708L221.148 107.703L221.186 107.704L221.173 108.204ZM137.896 94.481C137.691 94.2967 137.674 93.9805 137.858 93.7749C138.042 93.5693 138.358 93.5521 138.564 93.7364L137.896 94.481ZM433.735 15.3976C434.196 13.2467 432.567 7.27118 420.503 2.96253L420.839 2.02078C433.061 6.38592 435.336 12.6983 434.713 15.6071L433.735 15.3976ZM420.503 2.96253C414.561 0.84059 405.818 1.26958 397.226 2.71368C388.658 4.1537 380.338 6.58489 375.301 8.38365L374.965 7.44191C380.048 5.62659 388.425 3.17877 397.06 1.72752C405.671 0.280358 414.637 -0.19418 420.839 2.02078L420.503 2.96253ZM375.183 8.4103C367.936 9.13506 356.535 9.60225 346.757 9.92592C341.866 10.0878 337.374 10.214 334.008 10.3184C332.323 10.3707 330.922 10.4174 329.891 10.4605C328.835 10.5046 328.219 10.5435 328.061 10.5729L327.878 9.58961C328.126 9.54373 328.837 9.5036 329.849 9.46134C330.886 9.41804 332.292 9.37114 333.977 9.31891C337.347 9.21437 341.834 9.08834 346.724 8.92647C356.507 8.60261 367.875 8.13615 375.084 7.41526L375.183 8.4103ZM328.061 10.5729C320.827 11.9125 314.11 15.2666 308.979 18.3044C306.416 19.8223 304.258 21.2553 302.627 22.3166C301.816 22.845 301.127 23.2866 300.588 23.5964C300.319 23.7512 300.076 23.8794 299.867 23.9702C299.674 24.0537 299.449 24.1341 299.238 24.1341L299.238 23.1341C299.229 23.1341 299.292 23.1297 299.468 23.0531C299.628 22.9838 299.834 22.8764 300.09 22.7294C300.601 22.4356 301.267 22.0091 302.082 21.4786C303.704 20.4223 305.883 18.9753 308.47 17.4439C313.639 14.3829 320.475 10.9606 327.878 9.58961L328.061 10.5729ZM299.238 24.1341C299.311 24.1341 299.347 24.1129 299.3 24.131C299.27 24.1424 299.222 24.1638 299.151 24.1991C299.012 24.2693 298.817 24.378 298.566 24.5267C298.064 24.8232 297.368 25.2608 296.491 25.8223C294.731 26.9489 292.297 28.5417 289.301 30.4669C283.326 34.3063 275.202 39.4115 266.21 44.4669C257.221 49.5213 247.355 54.5316 237.896 58.1775C228.449 61.8189 219.356 64.1201 211.93 63.7075L211.985 62.7091C219.196 63.1097 228.128 60.8706 237.536 57.2444C246.933 53.6226 256.752 48.6376 265.72 43.5952C274.687 38.5538 282.792 33.4605 288.76 29.6256C291.736 27.7136 294.202 26.1004 295.951 24.9802C296.829 24.4183 297.539 23.9723 298.056 23.666C298.314 23.5134 298.532 23.391 298.703 23.3053C298.788 23.2627 298.869 23.225 298.943 23.1968C298.999 23.1754 299.113 23.1341 299.238 23.1341L299.238 24.1341ZM211.93 63.7075C200.212 63.0565 191.845 62.3214 186.188 61.8457C183.357 61.6076 181.215 61.4355 179.67 61.3704C178.897 61.3379 178.285 61.3327 177.816 61.3579C177.334 61.3837 177.056 61.44 176.917 61.4994L176.523 60.5803C176.834 60.4472 177.262 60.3862 177.763 60.3593C178.278 60.3317 178.926 60.3383 179.712 60.3713C181.282 60.4374 183.446 60.6116 186.272 60.8492C191.93 61.3249 200.284 62.059 211.985 62.7091L211.93 63.7075ZM176.917 61.4994C176.026 61.8813 174.91 62.628 173.591 63.5724C172.29 64.5039 170.807 65.617 169.233 66.6729C166.097 68.7773 162.463 70.7558 158.83 70.7558L158.83 69.7558C162.137 69.7558 165.551 67.9394 168.676 65.8425C170.233 64.7977 171.683 63.7084 173.009 62.7594C174.316 61.8234 175.517 61.0116 176.523 60.5803L176.917 61.4994ZM158.83 70.7558C154.627 70.7558 146.595 72.5173 134.296 70.7507C121.95 68.9771 105.213 63.6616 83.2067 49.5341L83.7469 48.6926C105.652 62.755 122.255 68.0107 134.439 69.7608C146.671 71.5179 154.36 69.7558 158.83 69.7558L158.83 70.7558ZM83.2067 49.5341C61.2266 35.4234 46.7566 25.4147 37.1426 19.7275C32.3318 16.8817 28.7977 15.1563 26.1846 14.5318C24.8842 14.221 23.8501 14.1928 23.0182 14.4069C22.1993 14.6176 21.5393 15.0723 20.9917 15.8024L20.1917 15.2024C20.8639 14.3062 21.7117 13.7105 22.769 13.4384C23.8133 13.1697 25.0239 13.2262 26.4171 13.5592C29.1913 14.2222 32.8401 16.0205 37.6518 18.8668C47.2828 24.5641 61.8159 34.6135 83.7469 48.6926L83.2067 49.5341ZM20.9917 15.8024C20.4914 16.4695 20.2996 17.4802 20.4474 18.8363C20.5942 20.184 21.069 21.799 21.8075 23.5934C23.2833 27.1793 25.7735 31.3902 28.6123 35.4469C31.4492 39.5007 34.6194 43.3794 37.442 46.3008C38.8538 47.7621 40.171 48.9759 41.3097 49.851C42.4686 50.7415 43.378 51.2296 43.9848 51.3307L43.8204 52.3171C42.9505 52.1722 41.8716 51.5439 40.7004 50.6439C39.509 49.7284 38.1544 48.4774 36.7228 46.9956C33.8585 44.031 30.6554 40.1105 27.793 36.0202C24.9325 31.9327 22.3975 27.6544 20.8828 23.974C20.126 22.1352 19.6143 20.4227 19.4532 18.9446C19.2931 17.475 19.4723 16.1617 20.1917 15.2024L20.9917 15.8024ZM43.9848 51.3307C45.4705 51.5784 47.1859 51.1768 48.7629 50.3357C50.3372 49.4962 51.7193 48.2469 52.5452 46.8764C53.37 45.5077 53.6132 44.073 53.0407 42.7876C52.4632 41.4912 50.9958 40.208 48.0889 39.29L48.39 38.3364C51.4337 39.2976 53.2126 40.7159 53.9541 42.3807C54.7006 44.0565 54.3355 45.8429 53.4017 47.3926C52.4689 48.9405 50.9419 50.307 49.2335 51.2181C47.528 52.1277 45.5873 52.6116 43.8204 52.3171L43.9848 51.3307ZM48.0889 39.29C46.901 38.9149 45.3751 38.8731 43.574 39.1263C41.7785 39.3786 39.7447 39.9189 37.5608 40.6749C33.1928 42.1869 28.2731 44.5444 23.5408 47.1133C14.0677 52.2559 5.42857 58.1997 3.56952 59.7931L2.91873 59.0339C4.85448 57.3747 13.563 51.392 23.0637 46.2344C27.8185 43.6533 32.7923 41.2673 37.2337 39.7299C39.4544 38.9612 41.5542 38.4003 43.4349 38.136C45.31 37.8724 47.0029 37.8984 48.39 38.3364L48.0889 39.29ZM3.56952 59.7931C3.26009 60.0584 2.86762 60.6215 2.5027 61.4452C2.14364 62.2557 1.83042 63.2755 1.65337 64.4104C1.29871 66.6839 1.49673 69.3716 2.9056 71.7543C5.69732 76.4756 13.4852 80.3294 32.4269 76.8116L32.6095 77.7948C13.6033 81.3245 5.18684 77.5769 2.04482 72.2632C0.486825 69.6284 0.285636 66.6902 0.66532 64.2563C0.85544 63.0375 1.19278 61.9332 1.5884 61.0402C1.97816 60.1603 2.4445 59.4404 2.91873 59.0339L3.56952 59.7931ZM32.3822 76.8221C42.3313 74.0104 49.5286 71.0849 54.4781 68.5765C59.4458 66.0588 62.1096 63.9812 63.0369 62.8853L63.8003 63.5313C62.7399 64.7845 59.9283 66.9354 54.9302 69.4684C49.9139 72.0107 42.6548 74.9581 32.6542 77.7844L32.3822 76.8221ZM63.0369 62.8853C64.3876 61.289 65.992 59.5034 67.9522 58.5239C69.9606 57.5204 72.3078 57.3791 75.0549 58.9816L74.551 59.8454C72.0939 58.4121 70.1042 58.5665 68.3991 59.4185C66.6458 60.2945 65.1602 61.9242 63.8003 63.5313L63.0369 62.8853ZM75.0549 58.9816C76.7187 59.9521 80.6477 62.927 85.641 66.8558C90.6501 70.797 96.7682 75.7288 102.833 80.6417C108.9 85.5559 114.912 90.4502 119.714 94.3208C124.528 98.2011 128.096 101.027 129.292 101.824L128.737 102.656C127.493 101.827 123.878 98.9612 119.086 95.0994C114.283 91.228 108.267 86.3304 102.204 81.4188C96.139 76.5059 90.0257 71.5781 85.0226 67.6417C80.0038 63.6929 76.14 60.7723 74.551 59.8454L75.0549 58.9816ZM129.292 101.824C131.842 103.525 146.825 115.949 173.37 126.21C199.911 136.469 238.002 144.559 286.697 137.525L286.84 138.515C237.956 145.576 199.691 137.456 173.01 127.143C146.333 116.831 131.229 104.318 128.737 102.656L129.292 101.824ZM286.692 137.526C336.529 129.725 350.532 120.202 352.607 118.646L353.207 119.446C350.945 121.142 336.758 130.702 286.846 138.514L286.692 137.526ZM352.611 118.643C360.701 112.71 373.901 99.5971 385.47 87.5284C397.026 75.4719 406.916 64.4987 408.372 62.8745L409.117 63.542C407.656 65.1705 397.759 76.1528 386.192 88.2204C374.636 100.276 361.376 113.455 353.202 119.449L352.611 118.643ZM408.372 62.8745C419.647 50.2988 427.162 41.7356 429.509 39.0279L430.264 39.6828C427.913 42.3961 420.394 50.9637 409.117 63.542L408.372 62.8745ZM429.55 38.9853C432.504 36.3005 435.903 32.0019 436.673 27.7995C437.054 25.7208 436.789 23.6866 435.528 21.8616C434.26 20.0258 431.944 18.3414 428.102 17.0609L428.418 16.1123C432.383 17.4339 434.919 19.219 436.351 21.2933C437.791 23.3783 438.075 25.6945 437.656 27.9798C436.827 32.5053 433.233 36.9891 430.223 39.7253L429.55 38.9853ZM428.233 17.0858C412.713 16.2236 391.895 21.4047 383.417 24.1104L383.113 23.1577C391.621 20.4422 412.582 15.2148 428.288 16.0874L428.233 17.0858ZM383.405 24.1141C381.186 24.7612 377.413 25.2145 373.404 25.685C369.366 26.1591 365.056 26.6533 361.685 27.3756L361.476 26.3978C364.903 25.6634 369.267 25.1638 373.287 24.6919C377.337 24.2165 381.007 23.7719 383.125 23.1541L383.405 24.1141ZM361.685 27.3756C360.829 27.5592 359.816 28.0602 358.679 28.8433C357.548 29.6224 356.324 30.6598 355.048 31.8813C352.496 34.3243 349.767 37.4729 347.198 40.6841C342.062 47.1046 337.599 53.7312 336.517 55.3539L335.685 54.7992C336.772 53.1693 341.254 46.5142 346.417 40.0594C348.999 36.833 351.759 33.6458 354.357 31.1589C355.656 29.9155 356.922 28.8395 358.112 28.0198C359.296 27.2041 360.435 26.6209 361.476 26.3978L361.685 27.3756ZM336.517 55.3539C335.464 56.9332 333.512 60.1455 329.946 62.3881C326.352 64.6479 321.176 65.8931 313.733 63.6877L314.017 62.7289C321.21 64.8603 326.085 63.6345 329.413 61.5416C332.769 59.4315 334.612 56.4095 335.685 54.7992L336.517 55.3539ZM313.733 63.6877C311.877 63.1378 310.541 62.5238 309.658 61.8572C308.771 61.1879 308.287 60.4215 308.275 59.5811C308.264 58.7581 308.711 58.0107 309.347 57.375C309.99 56.734 310.879 56.1508 311.889 55.6458C313.911 54.635 316.51 53.8908 318.853 53.6392C320.025 53.5133 321.152 53.5086 322.122 53.665C323.082 53.8198 323.947 54.1422 324.528 54.723L323.821 55.4301C323.453 55.0623 322.828 54.7918 321.963 54.6522C321.107 54.5143 320.074 54.5138 318.959 54.6335C316.728 54.8732 314.245 55.5859 312.336 56.5403C311.381 57.0179 310.593 57.5443 310.054 58.0828C309.509 58.6267 309.269 59.1287 309.275 59.5677C309.281 59.9895 309.517 60.4979 310.26 61.0589C311.007 61.6226 312.213 62.1946 314.017 62.7289L313.733 63.6877ZM324.528 54.723C325.491 55.6857 326.78 57.1111 327.768 58.8438C328.757 60.5762 329.465 62.6491 329.212 64.8907C328.701 69.4117 324.356 74.2464 311.861 78.3207L311.551 77.3699C323.994 73.3126 327.78 68.6603 328.218 64.7785C328.439 62.8188 327.826 60.9614 326.9 59.3394C325.974 57.7178 324.756 56.3648 323.821 55.4301L324.528 54.723ZM311.861 78.3207C299.417 82.3786 280.597 89.9601 263.259 97.8839C254.592 101.845 246.301 105.889 239.368 109.618C232.425 113.352 226.873 116.754 223.662 119.43L223.022 118.662C226.316 115.916 231.945 112.474 238.894 108.737C245.852 104.995 254.163 100.941 262.844 96.9744C280.201 89.0414 299.058 81.4437 311.551 77.3699L311.861 78.3207ZM223.662 119.43C218.321 123.881 209.275 133.332 203.533 141.994C200.652 146.338 198.654 150.41 198.314 153.522C198.145 155.065 198.389 156.315 199.075 157.251C199.76 158.184 200.944 158.887 202.826 159.212L202.657 160.197C200.609 159.844 199.153 159.048 198.269 157.842C197.386 156.638 197.134 155.109 197.319 153.413C197.688 150.046 199.807 145.803 202.699 141.441C208.501 132.69 217.615 123.167 223.022 118.662L223.662 119.43ZM202.826 159.212C204.64 159.524 206.613 159.031 208.666 157.858C210.719 156.685 212.816 154.85 214.852 152.546C218.924 147.938 222.691 141.519 225.317 134.987C227.947 128.446 229.406 121.858 228.926 116.909C228.686 114.438 227.968 112.423 226.722 111.015C225.487 109.62 223.687 108.768 221.161 108.703L221.186 107.704C223.945 107.775 226.024 108.718 227.471 110.352C228.905 111.972 229.67 114.218 229.921 116.812C230.424 121.993 228.901 128.755 226.245 135.36C223.586 141.975 219.764 148.498 215.602 153.208C213.521 155.563 211.341 157.481 209.163 158.726C206.985 159.971 204.773 160.562 202.657 160.197L202.826 159.212ZM221.237 108.7C183.256 113.583 153.788 108.729 137.896 94.481L138.564 93.7364C154.115 107.678 183.194 112.583 221.11 107.708L221.237 108.7ZM434.481 15.9311C433.51 16.5139 430.931 17.5387 428.178 17.0798L428.342 16.0934C430.793 16.5019 433.131 15.575 433.966 15.0736L434.481 15.9311Z" fill="white" fill-opacity="0.15"/>
</svg>
