<svg width="440" height="163" viewBox="0 0 440 163" fill="none" xmlns="http://www.w3.org/2000/svg">
<path d="M435.52 17.3944L436.497 17.6059L436.405 18.0303L436.033 18.2529L435.52 17.3944ZM376.445 9.68315L376.78 10.6256L376.664 10.6665L376.543 10.6784L376.445 9.68315ZM329.277 11.7545L329.457 12.7382L329.277 11.7545ZM213.156 64.6426L213.098 65.6409L213.156 64.6426ZM177.923 62.4016L177.531 61.4816L177.531 61.4816L177.923 62.4016ZM45.1249 52.9123L44.9585 53.8983L45.1249 52.9123ZM49.4886 39.9105L49.7917 38.9576L49.4886 39.9105ZM4.45094 60.4181L5.10017 61.1787L5.10017 61.1787L4.45094 60.4181ZM33.6881 78.3681L33.9581 79.3309L33.9139 79.3433L33.8687 79.3516L33.6881 78.3681ZM64.6175 64.3368L63.8554 63.6893L64.6175 64.3368ZM76.0096 60.5654L76.5153 59.7027L76.5153 59.7027L76.0096 60.5654ZM130.133 103.504L130.689 102.673L130.689 102.673L130.133 103.504ZM287.813 139.608L287.966 140.596L287.954 140.598L287.813 139.608ZM353.99 120.77L353.392 119.969L353.4 119.963L353.99 120.77ZM409.942 65.0477L410.686 65.7168L409.942 65.0477ZM431.134 41.2383L430.38 40.5819L430.419 40.537L430.463 40.497L431.134 41.2383ZM429.554 18.4663L429.612 17.468L429.667 17.4711L429.721 17.4803L429.554 18.4663ZM384.545 25.4211L384.847 26.3744L384.835 26.3782L384.823 26.3817L384.545 25.4211ZM362.854 28.6292L363.061 29.6074L362.854 28.6292ZM337.316 56.7665L338.147 57.3229L337.316 56.7665ZM224.425 120.503L225.064 121.273L224.425 120.503ZM222.279 109.657L222.154 108.665L222.23 108.655L222.307 108.657L222.279 109.657ZM138.696 96.1343C138.286 95.7648 138.253 95.1325 138.622 94.7221C138.992 94.3116 139.624 94.2784 140.034 94.648L138.696 96.1343ZM434.543 17.1828C434.926 15.4117 433.632 9.60192 421.656 5.29683L422.332 3.41474C434.625 7.83343 437.209 14.3196 436.497 17.6059L434.543 17.1828ZM421.656 5.29683C415.849 3.20945 407.217 3.59789 398.631 5.0228C390.093 6.43962 381.797 8.84542 376.78 10.6256L376.111 8.74072C381.221 6.92764 389.632 4.48881 398.303 3.04978C406.926 1.61885 416.005 1.14023 422.332 3.41474L421.656 5.29683ZM376.543 10.6784C369.274 11.3901 357.856 11.8342 348.08 12.1376C343.189 12.2895 338.693 12.4065 335.329 12.5039C333.645 12.5527 332.246 12.5965 331.218 12.6373C330.703 12.6577 330.287 12.6772 329.976 12.6959C329.821 12.7053 329.697 12.7142 329.603 12.7225C329.556 12.7267 329.519 12.7304 329.492 12.7336C329.463 12.737 329.454 12.7388 329.457 12.7382L329.097 10.7709C329.389 10.7174 330.148 10.6782 331.138 10.6389C332.178 10.5976 333.587 10.5535 335.271 10.5047C338.644 10.4071 343.128 10.2904 348.018 10.1386C357.805 9.83478 369.157 9.39206 376.348 8.68791L376.543 10.6784ZM329.457 12.7382C322.306 14.0473 315.641 17.3536 310.524 20.3693C307.968 21.8753 305.818 23.2968 304.182 24.3573C303.371 24.8829 302.67 25.3307 302.116 25.6473C301.84 25.8053 301.578 25.9435 301.344 26.0445C301.144 26.1311 300.837 26.2488 300.515 26.2481L300.519 24.2481C300.401 24.2479 300.382 24.2815 300.551 24.2087C300.686 24.1504 300.874 24.0538 301.123 23.9112C301.621 23.6264 302.277 23.2088 303.094 22.6789C304.715 21.6285 306.908 20.179 309.508 18.6462C314.704 15.5844 321.606 12.1422 329.097 10.7709L329.457 12.7382ZM300.515 26.2481C300.689 26.2485 300.799 26.1963 300.756 26.2127C300.748 26.2156 300.717 26.2288 300.653 26.2604C300.529 26.3225 300.346 26.424 300.097 26.5703C299.604 26.8608 298.912 27.2928 298.035 27.8524C296.268 28.9785 293.846 30.5561 290.836 32.4817C284.85 36.311 276.706 41.4054 267.692 46.4493C258.681 51.4912 248.781 56.4937 239.284 60.1321C229.809 63.7616 220.631 66.075 213.098 65.6409L213.214 63.6442C220.316 64.0535 229.173 61.8638 238.568 58.2644C247.941 54.674 257.747 49.7218 266.715 44.7039C275.679 39.6879 283.786 34.6173 289.758 30.7969C292.728 28.8976 295.213 27.2792 296.96 26.1658C297.839 25.6056 298.556 25.1569 299.082 24.8468C299.344 24.6928 299.574 24.5639 299.76 24.4709C299.852 24.4249 299.95 24.3793 300.046 24.3428C300.107 24.3199 300.295 24.2477 300.519 24.2481L300.515 26.2481ZM213.098 65.6409C201.374 64.9654 193.002 64.2124 187.347 63.7251C184.513 63.4809 182.383 63.3054 180.85 63.2378C180.083 63.2039 179.489 63.1983 179.044 63.2212C178.571 63.2456 178.368 63.299 178.315 63.3216L177.531 61.4816C177.928 61.3126 178.431 61.2502 178.941 61.2239C179.48 61.1961 180.147 61.2048 180.938 61.2397C182.521 61.3096 184.696 61.4893 187.519 61.7325C193.176 62.2199 201.521 62.9705 213.214 63.6442L213.098 65.6409ZM178.315 63.3216C177.481 63.677 176.406 64.3889 175.079 65.3349C173.789 66.255 172.286 67.3769 170.702 68.435C167.556 70.5367 163.808 72.5885 160.013 72.5807L160.017 70.5807C163.16 70.5871 166.467 68.8587 169.591 66.7719C171.142 65.7358 172.579 64.6614 173.918 63.7064C175.221 62.7773 176.466 61.9355 177.531 61.4816L178.315 63.3216ZM160.013 72.5807C155.944 72.5723 147.736 74.3167 135.408 72.5198C122.983 70.709 106.19 65.3289 84.1627 51.1236L85.2466 49.4428C107.072 63.5177 123.597 68.7774 135.696 70.5408C147.891 72.3181 155.412 70.5712 160.017 70.5807L160.013 72.5807ZM84.1627 51.1236C62.1871 36.9519 47.7693 26.9337 38.1756 21.2318C33.3711 18.3764 29.8978 16.6802 27.3666 16.0698C26.1132 15.7675 25.1674 15.7515 24.4412 15.9368C23.7412 16.1154 23.1743 16.4985 22.6877 17.1445L21.0901 15.9412C21.8267 14.9634 22.7697 14.2992 23.9468 13.9989C25.0978 13.7052 26.3966 13.7785 27.8355 14.1255C30.6889 14.8137 34.3912 16.6561 39.1975 19.5126C48.8253 25.2347 63.3691 35.3343 85.2466 49.4428L84.1627 51.1236ZM22.6877 17.1445C22.2959 17.6646 22.096 18.5236 22.2348 19.8233C22.3719 21.106 22.8251 22.6732 23.5508 24.4469C24.9999 27.9886 27.4589 32.1709 30.2786 36.2179C33.0945 40.2594 36.2403 44.1236 39.036 47.0292C40.435 48.4832 41.7309 49.681 42.8416 50.5381C43.9925 51.4263 44.8164 51.8461 45.2913 51.9262L44.9585 53.8983C43.9574 53.7294 42.7952 53.0287 41.6197 52.1215C40.404 51.1833 39.0331 49.9108 37.5948 48.4159C34.7158 45.4237 31.5043 41.4756 28.6377 37.3612C25.7748 33.2523 23.2262 28.9351 21.6997 25.2043C20.9377 23.3418 20.4111 21.5795 20.2462 20.0358C20.083 18.5092 20.2588 17.0449 21.0901 15.9412L22.6877 17.1445ZM45.2913 51.9262C46.6361 52.1532 48.2394 51.7962 49.754 50.9924C51.2628 50.1917 52.5749 49.0038 53.35 47.7236C54.1229 46.4469 54.3078 45.1884 53.8244 44.0972C53.3313 42.984 52.0221 41.7657 49.1855 40.8635L49.7917 38.9576C52.9017 39.9467 54.8333 41.4365 55.6531 43.2872C56.4826 45.16 56.0526 47.1214 55.0608 48.7594C54.0712 50.3941 52.4689 51.8159 50.6915 52.7591C48.9199 53.6992 46.8653 54.2202 44.9585 53.8983L45.2913 51.9262ZM49.1855 40.8635C48.0979 40.5176 46.6557 40.4649 44.8911 40.7092C43.1376 40.952 41.1357 41.4779 38.9687 42.223C34.6344 43.7134 29.7368 46.0465 25.0106 48.5996C15.5407 53.7152 6.92407 59.6219 5.10017 61.1787L3.80172 59.6575C5.77929 57.9695 14.5348 51.9854 24.06 46.84C28.8313 44.2626 33.8371 41.8726 38.3183 40.3317C40.5591 39.5612 42.693 38.9945 44.6168 38.7281C46.5295 38.4633 48.3059 38.485 49.7917 38.9576L49.1855 40.8635ZM5.10017 61.1787C4.87273 61.3729 4.5162 61.8568 4.16207 62.6518C3.8197 63.4203 3.51653 64.3971 3.34377 65.4898C2.99711 67.6824 3.18827 70.2452 4.51792 72.5045C7.12538 76.935 14.591 80.8573 33.5076 77.3845L33.8687 79.3516C14.823 82.8481 6.09988 79.1357 2.79428 73.519C1.1674 70.7546 0.970933 67.6908 1.3683 65.1775C1.56756 63.9173 1.91932 62.7714 2.33514 61.8379C2.73919 60.9309 3.24411 60.1335 3.80172 59.6575L5.10017 61.1787ZM33.4182 77.4052C43.3472 74.6212 50.5195 71.7215 55.4409 69.2401C60.3985 66.7404 62.9926 64.7047 63.8554 63.6893L65.3795 64.9843C64.2498 66.3139 61.3599 68.4955 56.3413 71.0259C51.2864 73.5747 43.9903 76.518 33.9581 79.3309L33.4182 77.4052ZM63.8554 63.6893C65.2048 62.1012 66.8724 60.2409 68.9381 59.214C71.1004 58.1391 73.6266 58.0097 76.5153 59.7027L75.504 61.4282C73.1946 60.0747 71.3833 60.232 69.8284 61.005C68.1768 61.8259 66.7473 63.3746 65.3795 64.9843L63.8554 63.6893ZM76.5153 59.7027C78.2144 60.6985 82.1698 63.7087 87.1423 67.6377C92.1463 71.5916 98.2567 76.5379 104.312 81.4635C110.369 86.3913 116.369 91.2964 121.163 95.1765C125.981 99.076 129.519 101.89 130.689 102.673L129.576 104.335C128.31 103.487 124.677 100.593 119.905 96.7311C115.109 92.8494 109.101 87.9378 103.05 83.0149C96.995 78.0897 90.8942 73.1512 85.9024 69.207C80.879 65.2378 77.0536 62.3364 75.504 61.4282L76.5153 59.7027ZM130.689 102.673C133.266 104.398 148.162 116.809 174.621 127.099C201.07 137.385 239.057 145.538 287.672 138.618L287.954 140.598C238.96 147.572 200.626 139.359 173.896 128.963C147.175 118.571 132.036 105.982 129.576 104.335L130.689 102.673ZM287.661 138.62C337.477 130.927 351.407 121.451 353.392 119.969L354.588 121.571C352.229 123.333 337.93 132.881 287.966 140.596L287.661 138.62ZM353.4 119.963C361.461 114.077 374.658 101.025 386.258 88.9731C397.834 76.946 407.742 65.9977 409.199 64.3786L410.686 65.7168C409.22 67.3444 399.296 78.3108 387.699 90.3601C376.125 102.385 362.807 115.571 354.58 121.578L353.4 119.963ZM409.199 64.3786C420.499 51.8275 428.03 43.282 430.38 40.5819L431.888 41.8948C429.529 44.6061 421.99 53.1604 410.686 65.7168L409.199 64.3786ZM430.463 40.497C433.393 37.8438 436.703 33.6447 437.452 29.6054C437.818 27.6306 437.567 25.7369 436.399 24.0395C435.217 22.3206 433.013 20.6821 429.236 19.4144L429.873 17.5183C433.896 18.8688 436.537 20.7098 438.047 22.9064C439.573 25.1245 439.861 27.5824 439.419 29.9699C438.55 34.6553 434.849 39.224 431.805 41.9797L430.463 40.497ZM429.497 19.4647C414.073 18.5759 393.315 23.6911 384.847 26.3744L384.243 24.4679C392.772 21.765 413.814 16.5577 429.612 17.468L429.497 19.4647ZM384.823 26.3817C382.552 27.0389 378.726 27.4886 374.737 27.9485C370.689 28.4153 366.405 28.898 363.061 29.6074L362.646 27.6509C366.103 26.9175 370.495 26.4243 374.508 25.9617C378.579 25.4923 382.198 25.0594 384.267 24.4606L384.823 26.3817ZM363.061 29.6074C362.297 29.7696 361.346 30.2276 360.231 30.9921C359.128 31.7486 357.923 32.7642 356.656 33.9722C354.122 36.388 351.402 39.5118 348.833 42.7101C343.697 49.1028 339.23 55.7059 338.147 57.3229L336.485 56.2101C337.578 54.5789 342.083 47.9186 347.274 41.4575C349.867 38.2288 352.65 35.0279 355.276 32.5246C356.589 31.2729 357.879 30.1802 359.1 29.3427C360.309 28.5132 361.512 27.8914 362.646 27.6509L363.061 29.6074ZM338.147 57.3229C337.101 58.8846 335.088 62.1879 331.411 64.4892C327.679 66.8247 322.35 68.0686 314.787 65.8106L315.359 63.8942C322.424 66.0032 327.15 64.7967 330.35 62.7939C333.604 60.7567 335.398 57.8336 336.485 56.2101L338.147 57.3229ZM314.787 65.8106C312.906 65.2491 311.507 64.6112 310.557 63.8911C309.6 63.1657 308.993 62.2691 308.981 61.2194C308.97 60.2043 309.521 59.3353 310.205 58.6553C310.9 57.9644 311.842 57.3548 312.88 56.8382C314.96 55.8035 317.619 55.049 320.018 54.7964C321.219 54.6699 322.394 54.6649 323.42 54.8326C324.428 54.9972 325.412 55.3475 326.098 56.0363L324.681 57.4476C324.42 57.1857 323.916 56.9401 323.098 56.8065C322.3 56.6761 321.314 56.6709 320.228 56.7854C318.052 57.0146 315.625 57.7066 313.771 58.6289C312.842 59.0909 312.105 59.5874 311.615 60.0737C311.115 60.5707 310.978 60.9497 310.981 61.1967C310.984 61.4092 311.094 61.7888 311.765 62.2971C312.443 62.8107 313.583 63.364 315.359 63.8942L314.787 65.8106ZM326.098 56.0363C327.073 57.015 328.394 58.4793 329.411 60.2696C330.427 62.0593 331.177 64.2415 330.903 66.6235C330.347 71.4629 325.711 76.3793 313.182 80.4363L312.566 78.5336C324.991 74.5103 328.507 69.9564 328.916 66.3951C329.126 64.5767 328.562 62.8259 327.671 61.2573C326.781 59.6893 325.6 58.3702 324.681 57.4476L326.098 56.0363ZM313.182 80.4363C300.754 84.4608 281.937 91.9954 264.593 99.8789C255.924 103.819 247.635 107.842 240.707 111.55C233.759 115.268 228.239 118.638 225.064 121.273L223.787 119.734C227.128 116.961 232.803 113.511 239.763 109.786C246.741 106.052 255.071 102.01 263.766 98.0582C281.15 90.1564 300.041 82.5894 312.566 78.5336L313.182 80.4363ZM225.064 121.273C219.747 125.686 210.715 135.083 204.985 143.687C202.102 148.017 200.156 152 199.823 154.983C199.659 156.45 199.898 157.561 200.484 158.363C201.067 159.161 202.113 159.82 203.913 160.134L203.57 162.105C201.441 161.733 199.851 160.887 198.869 159.543C197.891 158.203 197.638 156.533 197.835 154.762C198.225 151.268 200.414 146.943 203.32 142.579C209.17 133.795 218.338 124.256 223.787 119.734L225.064 121.273ZM203.913 160.134C205.575 160.424 207.43 159.984 209.423 158.85C211.415 157.717 213.475 155.929 215.493 153.654C219.529 149.106 223.282 142.746 225.905 136.261C228.535 129.757 229.975 123.26 229.516 118.425C229.287 116.016 228.597 114.114 227.447 112.81C226.321 111.533 224.662 110.723 222.252 110.656L222.307 108.657C225.182 108.737 227.398 109.731 228.947 111.487C230.472 113.217 231.255 115.579 231.507 118.236C232.01 123.534 230.441 130.38 227.759 137.011C225.069 143.662 221.206 150.229 216.989 154.982C214.881 157.357 212.656 159.312 210.412 160.589C208.169 161.865 205.837 162.5 203.57 162.105L203.913 160.134ZM222.405 110.649C184.381 115.458 154.729 110.568 138.696 96.1343L140.034 94.648C155.386 108.469 184.261 113.457 222.154 108.665L222.405 110.649ZM436.033 18.2529C434.992 18.8742 432.292 19.9425 429.388 19.4524L429.721 17.4803C432.02 17.8683 434.238 16.995 435.007 16.5358L436.033 18.2529Z" fill="white" fill-opacity="0.15"/>
</svg>
