<svg width="20" height="20" viewBox="0 0 20 20" fill="none" xmlns="http://www.w3.org/2000/svg">
<path d="M10.5592 18H8.01984C7.59569 18 7.25067 17.6519 7.25067 17.2239V12.4446H5.76917C5.34503 12.4446 5 12.0963 5 11.6685V9.19202C5 8.76404 5.34503 8.41589 5.76917 8.41589H7.25067V7.17578C7.25067 5.94617 7.63332 4.90002 8.35713 4.15063C9.0842 3.39783 10.1003 3 11.2955 3L13.2322 3.00317C13.6556 3.00391 14 3.35205 14 3.7793V6.07861C14 6.50659 13.6551 6.85474 13.2311 6.85474L11.9272 6.85522C11.5295 6.85522 11.4283 6.93567 11.4066 6.96033C11.3709 7.00122 11.3285 7.11682 11.3285 7.43604V8.41577H13.1331C13.2689 8.41577 13.4006 8.44958 13.5137 8.51331C13.7577 8.65088 13.9094 8.91101 13.9094 9.19214L13.9084 11.6686C13.9084 12.0963 13.5634 12.4445 13.1392 12.4445H11.3285V17.2239C11.3285 17.6519 10.9833 18 10.5592 18ZM8.18026 17.062H10.3987V12.0247C10.3987 11.7389 10.6292 11.5065 10.9123 11.5065H12.9788L12.9797 9.35388H10.9122C10.6291 9.35388 10.3987 9.12146 10.3987 8.83569V7.43604C10.3987 7.06958 10.4356 6.65283 10.7098 6.3396C11.041 5.96094 11.563 5.91724 11.9269 5.91724L13.0704 5.91675V3.94092L11.2948 3.93799C9.37394 3.93799 8.18026 5.17871 8.18026 7.17578V8.83569C8.18026 9.12134 7.94992 9.35388 7.66683 9.35388H5.92959V11.5065H7.66683C7.94992 11.5065 8.18026 11.7389 8.18026 12.0247V17.062Z" fill="#FFC120"/>
<path d="M14.5862 0H5.41381C2.42858 0 0 2.42858 0 5.41381V14.5863C0 17.5714 2.42858 20 5.41381 20H14.5863C17.5714 20 20 17.5714 20 14.5863V5.41381C20 2.42858 17.5714 0 14.5862 0V0ZM18.8275 14.5863C18.8275 16.9249 16.9249 18.8275 14.5862 18.8275H5.41381C3.0751 18.8275 1.17248 16.9249 1.17248 14.5863V5.41381C1.17248 3.0751 3.0751 1.17248 5.41381 1.17248H14.5863C16.9249 1.17248 18.8275 3.0751 18.8275 5.41381V14.5863Z" fill="#FFC120"/>
</svg>
