<svg width="20" height="20" viewBox="0 0 20 20" fill="none" xmlns="http://www.w3.org/2000/svg">
<path d="M14.7258 0H5.27226C2.31613 0 0 2.31677 0 5.27355V14.7271C0 17.6839 2.31613 20 5.27226 20H14.7258C17.6832 20 20 17.6839 20 14.7265V5.27355C20 2.31677 17.6832 0 14.7258 0ZM18.7097 14.7265C18.7097 16.9968 16.9974 18.709 14.7258 18.709H5.27226C3.00194 18.709 1.29032 16.9974 1.29032 14.7265V5.27355C1.29032 3.00258 3.00194 1.29032 5.27226 1.29032H14.7258C16.9974 1.29032 18.7097 3.00258 18.7097 5.27355V14.7265Z" fill="#FFC120"/>
<path d="M10.2851 5.09161C6.95289 5.09161 5.27289 7.40387 5.27289 9.33161C5.27289 10.4994 5.72966 11.5374 6.70837 11.9252C6.74966 11.9413 6.79031 11.9497 6.82837 11.9497C6.93805 11.9497 7.02644 11.8826 7.05998 11.7548C7.09289 11.6361 7.16902 11.3361 7.20386 11.2097C7.25031 11.0394 7.23289 10.9806 7.10321 10.8323C6.82063 10.5097 6.63934 10.0923 6.63934 9.50194C6.63934 7.78581 7.96708 6.25097 10.0935 6.25097C11.9768 6.25097 13.0116 7.36452 13.0116 8.85161C13.0116 10.8084 12.1168 12.4606 10.7884 12.4606C10.0535 12.4606 9.50515 11.8729 9.68127 11.1529C9.89224 10.2929 10.3013 9.36516 10.3013 8.74516C10.3013 8.18903 9.99224 7.72645 9.35482 7.72645C8.60386 7.72645 8.00128 8.47678 8.00128 9.48323C8.00128 10.1232 8.22515 10.5574 8.22515 10.5574C8.22515 10.5574 7.45869 13.7045 7.32386 14.2561C7.05547 15.3535 7.28321 16.6994 7.30257 16.8348C7.30902 16.8832 7.35031 16.9097 7.39289 16.9097C7.42127 16.9097 7.45031 16.8981 7.46902 16.8735C7.53869 16.7871 8.4316 15.7194 8.73547 14.6523C8.82257 14.3503 9.22902 12.7871 9.22902 12.7871C9.47289 13.2368 10.1851 13.6323 10.9432 13.6323C13.1974 13.6323 14.7271 11.6445 14.7271 8.98194C14.7264 6.9671 12.9645 5.09161 10.2851 5.09161Z" fill="#FFC120"/>
</svg>
