<svg width="20" height="20" viewBox="0 0 20 20" fill="none" xmlns="http://www.w3.org/2000/svg">
<path d="M13.6046 9.56521L9.19794 7.10259C8.94457 6.96099 8.64508 6.96627 8.39673 7.11657C8.14822 7.26703 8 7.53282 8 7.82782V12.7108C8 13.0044 8.14731 13.2697 8.39414 13.4203C8.52304 13.499 8.66593 13.5385 8.80913 13.5385C8.94031 13.5385 9.07179 13.5054 9.19277 13.4388L13.5995 11.0186C13.8611 10.8749 14.0244 10.5971 14.0256 10.2936C14.0267 9.99 13.8654 9.71101 13.6046 9.56521V9.56521ZM9.16888 12.0965V8.44705L12.4623 10.2877L9.16888 12.0965Z" fill="#FFC120"/>
<path d="M19.8528 4.72038L19.8518 4.70829C19.8349 4.49575 19.6663 2.60526 18.9702 1.6437C18.1656 0.512712 17.2534 0.375317 16.8148 0.30944C16.7784 0.304001 16.7452 0.298965 16.7154 0.293727L16.6805 0.288892C14.0365 0.0350538 10.0434 0.000402917 10.0034 0.000201459L9.99992 0L9.99641 0.000201459C9.95644 0.000402917 5.96339 0.0350538 3.29557 0.288892L3.26032 0.293727C3.23194 0.298763 3.20066 0.303397 3.16663 0.308635C2.73298 0.374713 1.83058 0.512309 1.0237 1.68419C0.360715 2.63548 0.169066 4.48547 0.149382 4.69338L0.147094 4.72038C0.141143 4.80882 0 6.91426 0 9.02796V11.0039C0 13.1176 0.141143 15.223 0.147094 15.3117L0.148162 15.325C0.165099 15.5341 0.333555 17.3899 1.02645 18.3519C1.78298 19.445 2.73954 19.5896 3.25406 19.6674C3.33539 19.6797 3.40543 19.6902 3.45319 19.7012L3.49942 19.7097C5.02605 19.9015 9.81255 19.996 10.0155 19.9998L10.0216 20L10.0277 19.9998C10.0677 19.9996 14.0606 19.9649 16.7046 19.7111L16.7395 19.7063C16.7729 19.7004 16.8105 19.6952 16.8517 19.6896C17.2829 19.6291 18.1804 19.5036 18.9761 18.3476C19.6391 17.3961 19.8309 15.5462 19.8505 15.3385L19.8528 15.3115C19.8587 15.2228 20 13.1176 20 11.0039V9.02796C19.9998 6.91426 19.8587 4.80902 19.8528 4.72038V4.72038ZM18.8278 11.0039C18.8278 12.9602 18.6984 14.975 18.6862 15.16C18.6365 15.6694 18.4343 16.8399 18.1113 17.3035C17.6132 18.0269 17.1016 18.0986 16.7281 18.1508C16.6829 18.1571 16.6411 18.1631 16.6033 18.1693C14.0459 18.4135 10.2036 18.451 10.0266 18.4524C9.82811 18.4486 5.11166 18.3533 3.63156 18.1718C3.55573 18.1554 3.47379 18.143 3.38743 18.1301C2.94935 18.0638 2.34968 17.9731 1.88857 17.3035L1.87773 17.2882C1.56035 16.8516 1.36397 15.7571 1.31408 15.166C1.30477 15.0262 1.17202 12.9876 1.17202 11.0039V9.02796C1.17202 7.07381 1.30111 5.06124 1.31362 4.87248C1.37298 4.27233 1.57897 3.17277 1.88857 2.72835C2.40187 1.98296 2.94309 1.90036 3.30106 1.84576C3.33524 1.84053 3.36713 1.83569 3.39658 1.83065C5.99117 1.58528 9.86107 1.54881 9.99992 1.5474C10.1388 1.54861 14.0073 1.58528 16.5789 1.83065C16.6104 1.83589 16.6449 1.84113 16.682 1.84677C17.0502 1.90217 17.6067 1.98598 18.1174 2.70519L18.1221 2.71183C18.4395 3.14839 18.6359 4.26206 18.6858 4.86502C18.6946 4.99698 18.8278 7.03997 18.8278 9.02796V11.0039Z" fill="#FFC120"/>
</svg>
