<svg width="20" height="18" viewBox="0 0 20 18" fill="none" xmlns="http://www.w3.org/2000/svg">
<path d="M9.30415 16.7388C9.49669 16.9072 9.74374 17 10 17C10.2561 17 10.5033 16.9072 10.6957 16.739C11.4245 16.1023 12.1267 15.5043 12.7463 14.9769L12.7466 14.9767C14.5596 13.4329 16.1253 12.0997 17.2149 10.7862C18.4328 9.31791 19 7.92567 19 6.40473C19 4.92701 18.493 3.56372 17.5722 2.56581C16.6404 1.5561 15.3617 1 13.9717 1C12.9327 1 11.9811 1.3282 11.1435 1.97541C10.7207 2.3021 10.3377 2.70192 10 3.16828C9.66245 2.70192 9.2793 2.3021 8.8566 1.97541C8.01903 1.3282 7.06747 1 6.02844 1C4.63826 1 3.35973 1.5561 2.42795 2.56581C1.50716 3.56372 1 4.92701 1 6.40473C1 7.92567 1.56731 9.31791 2.78528 10.7863C3.87485 12.0998 5.44081 13.4332 7.25424 14.9772L7.2574 14.9799C7.87593 15.5065 8.577 16.1035 9.30415 16.7388Z" fill="#10022D" stroke="black" stroke-width="0.25"/>
</svg>
