<svg width="21" height="19" viewBox="0 0 21 19" fill="none" xmlns="http://www.w3.org/2000/svg">
<path d="M7.52273 15.9477L7.52369 15.9486C8.17664 16.5081 8.91608 17.1419 9.68295 17.8163C9.90897 18.0154 10.1991 18.125 10.5 18.125C10.8008 18.125 11.091 18.0154 11.3169 17.8166C12.0855 17.1406 12.8261 16.5058 13.4802 15.9454L13.4802 15.9453L13.4879 15.9388C15.3957 14.3036 17.0552 12.8813 18.2121 11.4773C19.5115 9.90065 20.125 8.39421 20.125 6.74252C20.125 5.14428 19.5801 3.66473 18.585 2.5792L18.4929 2.66367L18.585 2.5792C17.5776 1.48032 16.1943 0.875 14.6923 0.875C13.5672 0.875 12.5359 1.23337 11.6303 1.9377C11.2159 2.26004 10.8377 2.64721 10.5 3.09328C10.1624 2.64719 9.78415 2.26003 9.36983 1.93771L9.36982 1.9377C8.46428 1.23337 7.43299 0.875 6.3078 0.875C4.80567 0.875 3.42258 1.48032 2.41514 2.5792L2.41514 2.5792C1.42005 3.66473 0.875 5.14428 0.875 6.74252C0.875 8.39422 1.48867 9.90066 2.78799 11.4774L2.88446 11.3979L2.788 11.4774C3.94525 12.8817 5.60542 14.3045 7.51421 15.9404L7.5194 15.9448L7.52036 15.9456L7.52273 15.9477ZM3.83778 10.6043L3.74131 10.6838L3.83777 10.6043C2.72438 9.25321 2.23785 8.06484 2.23785 6.74252C2.23785 5.48184 2.65924 4.33404 3.41757 3.50679C4.16404 2.69266 5.18954 2.24432 6.3078 2.24432C7.12358 2.24432 7.87212 2.50454 8.53546 3.02037C9.1288 3.48187 9.54434 4.06753 9.78903 4.48004L9.78905 4.48007C9.93956 4.73367 10.2058 4.88604 10.5 4.88604C10.7942 4.88604 11.0604 4.73367 11.211 4.48007C11.4558 4.06753 11.8713 3.48188 12.4645 3.02038C13.1279 2.50455 13.8764 2.24432 14.6923 2.24432C15.8105 2.24432 16.8361 2.69266 17.5824 3.50679C18.3408 4.33404 18.7622 5.48184 18.7622 6.74252C18.7622 8.06484 18.2756 9.25321 17.1624 10.6043C16.0823 11.915 14.4731 13.2945 12.5956 14.9037C11.9622 15.4464 11.2471 16.0594 10.4986 16.714C9.75433 16.0607 9.04029 15.4486 8.40828 14.9069L8.40721 14.906L8.40479 14.904C8.40462 14.9039 8.40445 14.9037 8.40427 14.9036C6.52688 13.2945 4.91773 11.9148 3.83778 10.6043Z" fill="#BCBCBC" stroke="#BCBCBC" stroke-width="0.25"/>
</svg>
