<svg width="19" height="19" viewBox="0 0 19 19" fill="none" xmlns="http://www.w3.org/2000/svg">
<path fill-rule="evenodd" clip-rule="evenodd" d="M7.15295 12.5227C10.1457 12.5227 12.5719 10.1061 12.5719 7.125C12.5719 4.14392 10.1457 1.72727 7.15295 1.72727C4.16018 1.72727 1.73405 4.14392 1.73405 7.125C1.73405 10.1061 4.16018 12.5227 7.15295 12.5227ZM7.15295 14.25C11.1034 14.25 14.3059 11.06 14.3059 7.125C14.3059 3.18997 11.1034 0 7.15295 0C3.20249 0 0 3.18997 0 7.125C0 11.06 3.20249 14.25 7.15295 14.25Z" fill="#BCBCBC"/>
<path fill-rule="evenodd" clip-rule="evenodd" d="M18.3866 18.3893C18.048 18.7265 17.499 18.7265 17.1604 18.3893L11.4504 12.7016C11.1118 12.3643 11.1118 11.8175 11.4504 11.4802C11.789 11.1429 12.338 11.1429 12.6766 11.4802L18.3866 17.1679C18.7252 17.5052 18.7252 18.052 18.3866 18.3893Z" fill="#BCBCBC"/>
</svg>
