<svg width="8" height="17" viewBox="0 0 8 17" fill="none" xmlns="http://www.w3.org/2000/svg">
<path d="M0.5 13.8124V4.24976M7.5 4.03154C7.5 10.304 7.5 12.4185 7.5 13.8124M2.5 13.8124C2.5 9.21253 2.5002 5.94811 2.5002 4.03149M5.5002 4.03149C5.5002 6.12235 5.5 11.1988 5.5 13.8124" stroke="#10022D" stroke-linecap="round"/>
<path fill-rule="evenodd" clip-rule="evenodd" d="M5 4.25H6C6 3.07639 5.10457 2.125 4 2.125C2.89543 2.125 2 3.07639 2 4.25H3C3 3.5707 3.50396 3.125 4 3.125C4.49604 3.125 5 3.5707 5 4.25Z" fill="#10022D"/>
<path fill-rule="evenodd" clip-rule="evenodd" d="M7 4.25H8C8 1.90279 6.20914 0 4 0C1.79086 0 0 1.90279 0 4.25H1C1 2.3971 2.39939 1 4 1C5.60061 1 7 2.3971 7 4.25Z" fill="#10022D"/>
<path fill-rule="evenodd" clip-rule="evenodd" d="M2 13.8125C2 15.5729 3.34315 17 5 17C6.65685 17 8 15.5729 8 13.8125H7C7 15.0786 6.04832 16 5 16C3.95168 16 3 15.0786 3 13.8125H2Z" fill="#10022D"/>
</svg>
