<svg width="33" height="40" viewBox="0 0 33 40" fill="none" xmlns="http://www.w3.org/2000/svg">
<path d="M16.7933 0C5.83026 0 0 7.02532 0 14.6857C0 18.2383 1.98509 22.6685 5.16273 24.0736C5.64526 24.2911 5.90777 24.1986 6.01527 23.7511C6.11028 23.4111 6.5278 21.7735 6.7303 21.0009C6.79281 20.7534 6.76031 20.5384 6.5603 20.3059C5.50525 19.0859 4.66771 16.8633 4.66771 14.7782C4.66771 9.43543 8.9154 4.24769 16.1432 4.24769C22.3935 4.24769 26.7662 8.30788 26.7662 14.1156C26.7662 20.6784 23.2936 25.2186 18.7809 25.2186C16.2832 25.2186 14.4232 23.2586 15.0132 20.8334C15.7257 17.9458 17.1233 14.8407 17.1233 12.7581C17.1233 10.8905 16.0682 9.34542 13.9131 9.34542C11.3705 9.34542 9.30792 11.863 9.30792 15.2432C9.30792 17.3908 10.068 18.8409 10.068 18.8409C10.068 18.8409 7.55284 29.0013 7.08532 30.8989C6.29529 34.1115 7.19283 39.3143 7.27033 39.7618C7.31783 40.0093 7.59534 40.0868 7.75035 39.8843C7.99786 39.5593 11.038 35.2216 11.8905 32.0865C12.2006 30.9439 13.4731 26.3112 13.4731 26.3112C14.3106 27.8238 16.7283 29.0913 19.3034 29.0913C26.9637 29.0913 32.499 22.3585 32.499 14.0031C32.4715 5.99277 25.6162 0 16.7933 0Z" fill="#D32F2F"/>
</svg>
