<svg width="22" height="40" viewBox="0 0 22 40" fill="none" xmlns="http://www.w3.org/2000/svg">
<path d="M15.8333 6.66663H20.8333C21.2936 6.66663 21.6667 6.2935 21.6667 5.83327V0.83328C21.6667 0.373124 21.2936 0 20.8333 0H15.8333C10.773 0.00554686 6.67218 4.10632 6.66671 9.16662V15H0.833358C0.373124 15 0 15.3731 0 15.8333V20.8333C0 21.2936 0.373124 21.6667 0.833358 21.6667H6.66671V39.1666C6.66671 39.6269 7.03983 40 7.50006 40H12.5001C12.9603 40 13.3334 39.6269 13.3334 39.1666V21.6667H19.1668C19.5253 21.6664 19.8435 21.4368 19.9568 21.0967L21.6234 16.0967C21.7689 15.66 21.5328 15.1882 21.0961 15.0427C21.0114 15.0145 20.9227 15 20.8334 15H13.3334V9.16662C13.3333 7.78592 14.4526 6.66663 15.8333 6.66663Z" fill="#2196F3"/>
</svg>
