<svg width="40" height="40" viewBox="0 0 40 40" fill="none" xmlns="http://www.w3.org/2000/svg">
<path d="M39.8798 11.7542C39.7824 9.62532 39.4443 8.17145 38.9499 6.89947C38.4479 5.56492 37.6605 4.35611 36.6431 3.35696C35.6442 2.3395 34.4351 1.55183 33.1006 1.04951C31.8283 0.555424 30.3748 0.217592 28.2458 0.120851C26.113 0.0231935 25.4315 0 20 0C14.5685 0 13.887 0.0231935 11.7542 0.12024C9.62524 0.217592 8.17169 0.555729 6.89941 1.05012C5.56488 1.55214 4.35608 2.3395 3.35693 3.35696C2.33948 4.35581 1.55182 5.56462 1.0495 6.89916C0.55542 8.17145 0.21759 9.62532 0.12085 11.7539C0.0231934 13.8871 0 14.5683 0 19.9998C0 25.4317 0.0231934 26.1132 0.12085 28.2461C0.217895 30.3747 0.55603 31.8286 1.05041 33.1008C1.55243 34.4351 2.33978 35.6442 3.35724 36.643C4.35608 37.6605 5.56519 38.4479 6.89972 38.9499C8.17169 39.4446 9.62555 39.7824 11.7545 39.8798C13.8876 39.9771 14.5688 40 20.0003 40C25.4318 40 26.1133 39.9771 28.2462 39.8798C30.3751 39.7824 31.8286 39.4446 33.1009 38.9499C35.7874 37.9111 37.9111 35.7873 38.9499 33.1008C39.4446 31.8286 39.7824 30.3747 39.8798 28.2461C39.9768 26.1129 40 25.4317 40 20.0002C40 14.5683 39.9768 13.8871 39.8798 11.7542ZM36.2796 28.0822C36.1908 30.0323 35.8649 31.0912 35.5911 31.7959C34.9182 33.5403 33.5397 34.9188 31.7953 35.5917C31.0907 35.8654 30.0317 36.1914 28.0817 36.2802C25.9732 36.3766 25.3406 36.3968 20 36.3968C14.6591 36.3968 14.0268 36.3766 11.918 36.2802C9.96826 36.1914 8.9093 35.8654 8.20435 35.5917C7.33582 35.271 6.54999 34.7598 5.90485 34.0954C5.24048 33.4503 4.72931 32.6647 4.40857 31.7959C4.13483 31.0912 3.8089 30.0323 3.72009 28.0822C3.62396 25.9734 3.60352 25.3408 3.60352 20.0005C3.60352 14.6598 3.62396 14.0275 3.72009 11.9184C3.8092 9.96834 4.13483 8.90937 4.40857 8.20471C4.72931 7.33587 5.24078 6.55004 5.90485 5.90489C6.54999 5.24052 7.33582 4.72935 8.20465 4.40891C8.9093 4.13486 9.96826 3.80923 11.9183 3.72012C14.0271 3.62399 14.6597 3.60354 20 3.60354H19.9997C25.34 3.60354 25.9726 3.62399 28.0817 3.72043C30.0317 3.80923 31.0904 4.13516 31.7953 4.40891C32.6639 4.72965 33.4497 5.24082 34.0948 5.90489C34.7592 6.55004 35.2704 7.33587 35.5908 8.20471C35.8649 8.90937 36.1908 9.96834 36.2796 11.9184C36.3757 14.0272 36.3962 14.6598 36.3962 20.0002C36.3962 25.3408 36.376 25.9731 36.2796 28.0822Z" fill="url(#paint0_linear)"/>
<path d="M19.9996 9.72961C14.3276 9.72961 9.72949 14.328 9.72949 20.0001C9.72949 25.6721 14.3276 30.2702 19.9996 30.2702C25.6719 30.2702 30.27 25.6721 30.27 20.0001C30.27 14.328 25.6719 9.72961 19.9996 9.72961ZM19.9996 26.6667C16.3179 26.6664 13.333 23.6817 13.3333 19.9998C13.3333 16.3181 16.3179 13.3332 19.9999 13.3332C23.6818 13.3335 26.6664 16.3181 26.6664 19.9998C26.6664 23.6817 23.6815 26.6667 19.9996 26.6667Z" fill="url(#paint1_linear)"/>
<path d="M33.076 9.32405C33.076 10.6494 32.0015 11.724 30.6761 11.724C29.3504 11.724 28.2759 10.6494 28.2759 9.32405C28.2759 7.99836 29.3504 6.92383 30.6761 6.92383C32.0015 6.92383 33.076 7.99836 33.076 9.32405Z" fill="url(#paint2_linear)"/>
<defs>
<linearGradient id="paint0_linear" x1="3.35673" y1="36.6432" x2="36.6435" y2="3.35669" gradientUnits="userSpaceOnUse">
<stop stop-color="#FFD600"/>
<stop offset="0.5" stop-color="#FF0100"/>
<stop offset="1" stop-color="#D800B9"/>
</linearGradient>
<linearGradient id="paint1_linear" x1="12.7376" y1="27.2621" x2="27.262" y2="12.7379" gradientUnits="userSpaceOnUse">
<stop stop-color="#FF6400"/>
<stop offset="0.5" stop-color="#FF0100"/>
<stop offset="1" stop-color="#FD0056"/>
</linearGradient>
<linearGradient id="paint2_linear" x1="28.979" y1="11.0209" x2="32.373" y2="7.62691" gradientUnits="userSpaceOnUse">
<stop stop-color="#F30072"/>
<stop offset="1" stop-color="#E50097"/>
</linearGradient>
</defs>
</svg>
