<svg width="562" height="199" viewBox="0 0 562 199" fill="none" xmlns="http://www.w3.org/2000/svg">
<path d="M1 148.017C7.84542 150.351 24.3412 154.018 35.561 150.018C49.5858 145.017 58.1008 142.517 70.6229 158.519C82.6442 173.88 103.801 199.08 105.685 179.521C108.189 153.518 108.69 147.517 112.697 147.517C116.704 147.517 125.417 173.523 132.733 187.522C138.743 199.023 142.249 198.523 147.258 197.523C151.265 196.723 228.735 169.186 266.97 155.518C269.307 155.185 277.488 157.418 287.506 171.02C296.021 172.52 305.875 166.78 315.555 164.019C326.074 161.019 386.18 155.518 400.205 155.518C405.214 150.018 397.2 152.018 391.69 152.018C389.686 152.018 307.541 155.518 297.023 163.519C286.504 171.52 281.495 156.018 279.993 154.518C278.49 153.018 331.584 125.015 372.155 121.014C385.779 118.214 388.184 119.847 387.683 121.014C387.85 124.681 388.885 133.216 391.69 138.016C395.196 144.017 400.205 150.518 391.69 149.518C383.175 148.517 319.563 150.122 303.033 157.018C286.504 163.915 295.52 156.518 297.023 155.518C298.525 154.518 346.61 144.017 369.15 144.017C383.676 142.517 387.683 141.017 387.683 132.516C387.683 124.015 372.656 136.016 369.15 137.016C365.644 138.016 303.033 153.518 301.03 146.517C303.033 141.883 322.568 143.017 327.076 142.517C331.584 142.017 387.182 133.516 382.173 121.014C377.164 108.513 346.109 99.0116 344.106 99.0116C342.102 99.0116 339.598 100.512 323.069 114.013C309.845 124.815 288.842 142.85 279.993 150.518C280.327 148.351 283.599 141.717 294.017 132.516C304.436 123.314 340.433 92.6775 357.129 78.5091L370.653 67.5078L360.134 58.0067L285.001 137.016C282.998 137.683 282.297 135.416 295.52 121.014C312.049 103.012 352.621 48.0055 352.12 46.0053C351.619 44.0051 339.097 40.5047 336.593 42.0048C334.088 43.505 288.007 126.515 286.504 127.015C285.001 127.515 301.03 80.0093 301.03 73.0085C301.03 66.0077 310.046 46.0053 306.54 25.5029C294.518 17.1019 251.442 5.66722 231.407 1C230.405 5.16716 228.702 14.2016 229.904 17.0019C231.407 20.5023 249.439 28.5032 253.446 31.0035C256.651 33.0038 271.144 68.508 277.989 86.01C279.158 105.577 280.393 145.873 275.986 150.518C273.982 147.517 273.447 47.5062 243.929 31.0035C218.885 17.0019 189.032 6.40064 186.327 10.0011C184.825 12.0013 191.314 22.1003 196.846 29.0033C206.864 41.5048 211.872 73.0085 216.38 87.5102C218.384 91.9107 224.228 95.0111 226.899 96.0112C238.586 102.012 261.896 115.036 263.964 117.514C266.469 120.514 271.979 121.014 272.479 149.017C252.845 126.615 238.419 120.014 232.409 120.514C226.398 121.014 216.881 125.715 196.846 148.517C191.336 149.518 197.848 130.515 203.357 124.015C207.307 119.355 221.389 110.513 241.925 114.013C255.95 118.014 260.959 130.015 266.97 134.516C269.975 133.516 267.671 126.801 262.462 120.514C255.95 112.655 239.68 106.908 224.394 109.013C209.869 111.013 194.842 117.514 187.329 121.014C184.324 122.014 181.318 123.214 177.311 122.014C173.304 120.814 141.582 108.679 126.722 102.512C135.738 95.1778 161.684 81.2095 193.34 84.0098C212.574 88.1748 212.373 90.0105 212.874 92.0107C205.361 92.0107 186.828 86.5101 170.8 88.5103C153.06 90.7242 129.727 101.012 129.226 106.512C138.443 112.113 143.251 117.514 143.251 121.014C140.246 123.014 132.232 126.015 114.701 128.015C108.69 127.015 131.731 173.52 140.747 191.022C142.75 193.523 153.77 192.423 169.798 186.022C185.826 179.621 211.371 171.02 224.394 166.019L263.463 151.018C257.954 145.017 245.031 132.516 237.417 132.516C227.901 132.516 219.386 141.517 212.373 147.017C206.803 151.386 202.856 155.518 193.841 155.518C186.828 155.518 152.267 130.515 149.763 128.015C147.209 125.465 144.253 120.514 147.759 121.014C149.533 121.267 165.123 131.682 172.803 137.516C179.983 143.683 192.081 153.655 196.345 152.018C202.856 149.518 217.382 134.516 227.4 127.515C229.403 126.515 235.91 122.214 246.433 129.015C256.956 135.816 264.843 145.517 266.469 150.018C266.97 152.184 268.433 156.979 270.476 159.019C272.479 161.019 287.005 177.021 290.511 177.021C294.017 177.021 307.04 172.02 314.554 169.52C323.57 166.52 361.508 161.019 377.164 161.019C390.187 161.019 406.216 161.519 406.216 159.019C414.731 133.016 415.231 134.516 420.741 130.015C423.223 127.988 437.771 125.015 444.283 141.017C447.825 149.721 452.297 165.519 469.828 165.019C485.478 164.573 496.876 135.516 500.382 129.015C503.577 123.092 509.899 104.012 526.428 104.012C536.446 104.012 544.46 108.513 553.976 120.014C561.59 129.215 560.989 128.515 560.989 128.515" stroke="white" stroke-opacity="0.15" stroke-width="2" stroke-linecap="round" stroke-linejoin="round"/>
</svg>
