<svg width="24" height="30" viewBox="0 0 24 30" fill="none" xmlns="http://www.w3.org/2000/svg">
<path d="M15.4528 6.25H2.24578C1.00653 6.25 0 7.26979 0 8.52538V27.7246C0 28.9802 1.00653 30 2.24578 30H15.4528C16.6921 30 17.6986 28.9802 17.6986 27.7246V8.52538C17.6928 7.26979 16.6863 6.25 15.4528 6.25ZM16.1219 27.7187C16.1219 28.096 15.8194 28.4025 15.447 28.4025H2.23996C1.86761 28.4025 1.56507 28.096 1.56507 27.7187V8.52538C1.56507 8.14811 1.86761 7.84159 2.23996 7.84159H15.447C15.8194 7.84159 16.1219 8.14811 16.1219 8.52538V27.7187Z" fill="white"/>
<path d="M21.7541 0H8.54705C7.3078 0 6.30127 1.01979 6.30127 2.27538C6.30127 2.71749 6.65035 3.07117 7.08671 3.07117C7.52307 3.07117 7.87215 2.71749 7.87215 2.27538C7.87215 1.89811 8.17469 1.59159 8.54705 1.59159H21.7541C22.1265 1.59159 22.429 1.89811 22.429 2.27538V21.4746C22.429 21.8519 22.1265 22.1584 21.7541 22.1584C21.3178 22.1584 20.9687 22.5121 20.9687 22.9542C20.9687 23.3963 21.3178 23.75 21.7541 23.75C22.9934 23.75 23.9999 22.7302 23.9999 21.4746V2.27538C23.9999 1.01979 22.9934 0 21.7541 0Z" fill="white"/>
</svg>
