<svg width="15" height="20" viewBox="0 0 15 20" fill="none" xmlns="http://www.w3.org/2000/svg">
<path d="M5.66259 0H0.587406C0.263415 0.00097656 0.00091781 0.280273 0 0.625V19.375C0.00091781 19.7197 0.263415 19.999 0.587406 20H5.66259C5.98677 19.999 6.2489 19.7197 6.25 19.375V0.625C6.2489 0.280273 5.98677 0.00097656 5.66259 0ZM5.07519 18.75H1.17481V1.25H5.07519V18.75Z" fill="white"/>
<path d="M14.4183 4.33432e-07H9.33738C9.01341 0.000976993 8.75092 0.280274 8.75 0.625V19.375C8.75092 19.7197 9.01341 19.999 9.33738 20H14.4126C14.7366 19.999 14.999 19.7197 15 19.375V0.625C15.0018 0.459766 14.9412 0.300586 14.832 0.183204C14.7228 0.0656254 14.5737 -0.000194879 14.4183 4.33432e-07V4.33432e-07ZM13.8309 18.75H9.92477V1.25H13.8252V18.75H13.8309Z" fill="white"/>
</svg>
