<svg width="20" height="21" viewBox="0 0 20 21" fill="none" xmlns="http://www.w3.org/2000/svg">
<path d="M18.9225 4.02281L16.1363 1.08186C16.0866 1.02944 16.0192 1 15.9489 1C15.8787 1 15.8113 1.02944 15.7616 1.08186L2.89026 14.6678C2.88384 14.6752 2.87782 14.683 2.87224 14.6911C2.8683 14.6962 2.86406 14.7009 2.86043 14.7063C2.8488 14.7237 2.8391 14.7424 2.8315 14.7621L1.78378 17.5693L1.01846 19.6175C0.999522 19.6683 0.995036 19.7237 1.00555 19.7771C1.01607 19.8305 1.04113 19.8795 1.07766 19.918C1.11419 19.9566 1.16059 19.983 1.21117 19.9941C1.26174 20.0052 1.31429 20.0005 1.36235 19.9805L3.30199 19.173L5.96091 18.0662C5.97956 18.0581 5.99728 18.0479 6.01376 18.0357C6.01891 18.0318 6.0233 18.0273 6.0289 18.0232C6.03653 18.0173 6.04386 18.0109 6.05086 18.0042L15.3985 8.13791L18.9218 4.41888C18.9465 4.39295 18.9661 4.36212 18.9796 4.32817C18.993 4.29422 18.9999 4.2578 19 4.22101C19.0001 4.18422 18.9933 4.14777 18.98 4.11376C18.9667 4.07975 18.9472 4.04884 18.9225 4.02281ZM5.86445 17.4102L3.26716 18.586L2.33952 17.6068L3.45357 14.8655L13.555 4.20278L15.9657 6.74735L5.86445 17.4102ZM2.12752 18.1741L2.72974 18.8097L1.73532 19.2237L2.12752 18.1741ZM16.3405 6.35255L13.9296 3.80783L15.9495 1.67596L18.3604 4.22052L16.3405 6.35255Z" fill="black" stroke="black" stroke-width="1.3"/>
</svg>
