<svg width="20" height="20" viewBox="0 0 20 20" fill="none" xmlns="http://www.w3.org/2000/svg">
<path fill-rule="evenodd" clip-rule="evenodd" d="M7.52935 13.1818C10.6796 13.1818 13.2334 10.638 13.2334 7.5C13.2334 4.36202 10.6796 1.81818 7.52935 1.81818C4.37909 1.81818 1.8253 4.36202 1.8253 7.5C1.8253 10.638 4.37909 13.1818 7.52935 13.1818ZM7.52935 15C11.6877 15 15.0587 11.6421 15.0587 7.5C15.0587 3.35786 11.6877 0 7.52935 0C3.371 0 0 3.35786 0 7.5C0 11.6421 3.371 15 7.52935 15Z" fill="white"/>
<path fill-rule="evenodd" clip-rule="evenodd" d="M18.7092 20L11.4081 12.7273L12.6987 11.4417L19.9999 18.7144L18.7092 20Z" fill="white"/>
<path fill-rule="evenodd" clip-rule="evenodd" d="M10.9518 8.18175H4.10693V6.81812H10.9518V8.18175Z" fill="white"/>
<path fill-rule="evenodd" clip-rule="evenodd" d="M6.84538 10.909L6.84538 4.09082L8.21436 4.09082L8.21436 10.909L6.84538 10.909Z" fill="white"/>
</svg>
