<svg width="18" height="20" viewBox="0 0 18 20" fill="none" xmlns="http://www.w3.org/2000/svg">
<path d="M14.9318 6.25C13.2407 6.25 11.8636 4.84833 11.8636 3.125C11.8636 1.40167 13.2407 0 14.9318 0C16.623 0 18 1.40167 18 3.125C18 4.84833 16.623 6.25 14.9318 6.25ZM14.9318 1.25C13.9172 1.25 13.0909 2.09076 13.0909 3.125C13.0909 4.15924 13.9172 5 14.9318 5C15.9463 5 16.7727 4.15924 16.7727 3.125C16.7727 2.09076 15.9463 1.25 14.9318 1.25Z" fill="white"/>
<path d="M14.9318 20C13.2407 20 11.8636 18.5983 11.8636 16.875C11.8636 15.1517 13.2407 13.75 14.9318 13.75C16.623 13.75 18 15.1517 18 16.875C18 18.5983 16.623 20 14.9318 20ZM14.9318 15C13.9172 15 13.0909 15.8408 13.0909 16.875C13.0909 17.9092 13.9172 18.75 14.9318 18.75C15.9463 18.75 16.7727 17.9092 16.7727 16.875C16.7727 15.8408 15.9463 15 14.9318 15Z" fill="white"/>
<path d="M3.06819 13.125C1.37694 13.125 0 11.7233 0 10C0 8.27667 1.37694 6.875 3.06819 6.875C4.75944 6.875 6.13638 8.27667 6.13638 10C6.13638 11.7233 4.75944 13.125 3.06819 13.125ZM3.06819 8.125C2.05365 8.125 1.22728 8.96576 1.22728 10C1.22728 11.0342 2.05365 11.875 3.06819 11.875C4.08273 11.875 4.9091 11.0342 4.9091 10C4.9091 8.96576 4.08273 8.125 3.06819 8.125Z" fill="white"/>
<path d="M5.20444 9.39154C4.9908 9.39154 4.78301 9.27817 4.67095 9.0766C4.50316 8.77661 4.60548 8.39484 4.90002 8.22409L12.492 3.81568C12.7856 3.64325 13.1612 3.74823 13.3281 4.04914C13.4959 4.34912 13.3936 4.73075 13.099 4.90164L5.50706 9.30991C5.41133 9.36484 5.30751 9.39154 5.20444 9.39154Z" fill="white"/>
<path d="M12.7957 16.2667C12.6926 16.2667 12.5886 16.24 12.4929 16.1843L4.90093 11.7759C4.60639 11.6052 4.50422 11.2234 4.67186 10.9234C4.83875 10.6227 5.21359 10.5184 5.50812 10.6901L13.0999 15.0984C13.3945 15.2693 13.4968 15.6509 13.3292 15.9509C13.2162 16.1534 13.0084 16.2667 12.7957 16.2667Z" fill="white"/>
</svg>
