<svg width="40" height="31" viewBox="0 0 40 31" fill="none" xmlns="http://www.w3.org/2000/svg">
<path d="M35.3125 6.72659L37.6562 19.0991L35.3125 30.4688H4.6875L2.34375 19.3485L4.6875 6.72659C3.91219 6.14448 8.92258 5.80284 12.242 8.29495C16.3288 11.3632 19.1393 17.5179 20 18.1641C20.133 18.0642 20.654 14.1539 24.9533 10.9261C28.2365 8.4612 35.7551 6.39433 35.3125 6.72659Z" fill="#FFF5F5"/>
<path d="M35.3125 30.4688L37.6562 19.0991L35.3125 6.72663C35.7551 6.39429 28.2365 8.46116 24.9533 10.9262C20.6539 14.1538 20.133 18.0643 20 18.1641V30.4688H35.3125Z" fill="#E3E7EA"/>
<path d="M29.7927 10.875C29.7495 10.9073 29.6977 10.9462 29.6496 10.9823C29.6185 11.0058 29.6805 10.9591 29.7927 10.875Z" fill="#00A66C"/>
<path d="M4.6875 2.92969V30.4688H3.51562C1.57023 30.4688 0 28.8984 0 26.9531V3.51562C0 3.4218 0 3.32805 0.0234375 3.23438L4.6875 2.92969Z" fill="#F03800"/>
<path d="M40 3.51562V26.9531C40 28.8984 38.4298 30.4688 36.4844 30.4688H35.3125V5.27344L39.9766 3.23438C40 3.32805 40 3.4218 40 3.51562Z" fill="#CD0000"/>
<path d="M39.9766 3.23438C16.7885 20.6323 43.2971 0.684297 20 18.1641C17.9654 16.6375 27.2923 23.6941 0.0234375 3.23438C0.164063 1.40617 1.66414 0 3.51563 0L12.7649 2.83539L20 12.3047L25.2307 4.28016L36.4844 0C38.3359 0 39.8359 1.40617 39.9766 3.23438Z" fill="#FF641A"/>
<path d="M20 18.1641C20.0063 18.1688 20.0057 18.1684 20 18.1641C21.6354 16.937 37.2478 5.28172 39.9766 3.23438C39.8359 1.40617 38.3359 0 36.4844 0L25.2307 4.28008L20 12.3047V18.1641Z" fill="#F03800"/>
<path d="M36.4844 0L20 12.3047L3.51562 0H36.4844Z" fill="#FFF5F5"/>
<path d="M36.4844 0H20V12.3047L36.4844 0Z" fill="#E3E7EA"/>
</svg>
