<svg width="37" height="40" viewBox="0 0 37 40" fill="none" xmlns="http://www.w3.org/2000/svg">
<path d="M36.26 23.1566C37.4523 13.1204 35.6872 6.78436 32.5033 3.91856L32.505 3.91689C27.3662 -0.977124 10.0115 -1.70149 3.86359 4.1367C1.10269 6.99251 0.130213 11.1838 0.0236401 16.3726C-0.0829325 21.563 -0.209488 31.2861 8.85085 33.9238H8.85918L8.85085 37.9519C8.85085 37.9519 8.78924 39.5838 9.83165 39.9118C11.0239 40.2981 11.5635 39.5405 15.2719 35.111C21.4731 35.6489 26.2355 34.4167 26.7767 34.2368C28.0289 33.8172 35.1144 32.8797 36.26 23.1566ZM15.883 32.2769C15.883 32.2769 11.9581 37.1709 10.7375 38.4414C10.3379 38.8544 9.89993 38.8161 9.90659 37.9968C9.90659 37.459 9.93656 31.3094 9.93656 31.3094C2.25501 29.108 2.70794 20.8286 2.7912 16.4975C2.87446 12.1646 3.66709 8.61608 6.00503 6.22652C11.3986 1.16932 26.6135 2.29999 30.4901 5.94344C35.2293 10.1447 33.5424 22.0143 33.5524 22.4189C32.5783 30.5351 26.8367 31.0496 25.7809 31.401C25.3297 31.5509 21.1417 32.6282 15.883 32.2769Z" fill="#8E24AA"/>
<path d="M18.0546 7.17725C17.4135 7.17725 17.4135 8.17636 18.0546 8.18469C23.0285 8.22299 27.1249 11.6899 27.1698 18.0493C27.1698 18.7204 28.1523 18.7121 28.144 18.041H28.1423C28.089 11.1887 23.6163 7.21555 18.0546 7.17725Z" fill="#8E24AA"/>
<path d="M24.5971 16.9953C24.5821 17.6581 25.5629 17.6897 25.5712 17.0187C25.6528 13.2403 23.3232 10.1281 18.9454 9.80003C18.3043 9.75341 18.2376 10.7608 18.8771 10.8075C22.6738 11.0956 24.6737 13.6866 24.5971 16.9953Z" fill="#8E24AA"/>
<path d="M23.5477 21.2932C22.7251 20.817 21.8875 21.1134 21.5412 21.5813L20.8168 22.5188C20.4488 22.9951 19.7611 22.9318 19.7611 22.9318C14.7422 21.6046 13.4 16.3526 13.4 16.3526C13.4 16.3526 13.3384 15.6415 13.798 15.2602L14.7039 14.5109C15.1568 14.1512 15.4432 13.2853 14.982 12.4344C13.7497 10.208 12.9221 9.44035 12.5008 8.85087C12.0579 8.29636 11.3918 8.17147 10.6991 8.54614H10.6841C9.2437 9.38873 7.66676 10.9657 8.17131 12.5892C9.03222 14.3011 10.6142 19.7579 15.6564 23.8809C18.0259 25.8309 21.776 27.8291 23.3679 28.2904L23.3829 28.3137C24.9515 28.8366 26.4768 27.198 27.2911 25.7143V25.7027C27.6524 24.985 27.5325 24.3056 27.0047 23.861C26.0688 22.9484 24.6567 21.941 23.5477 21.2932Z" fill="#8E24AA"/>
<path d="M19.631 13.5166C21.2312 13.6098 22.0072 14.4457 22.0905 16.1626C22.1204 16.8336 23.0946 16.787 23.0646 16.1159C22.958 13.8746 21.7891 12.6257 19.6842 12.5091C19.0431 12.4708 18.9832 13.4783 19.631 13.5166Z" fill="#8E24AA"/>
</svg>
