<svg width="40" height="24" viewBox="0 0 40 24" fill="none" xmlns="http://www.w3.org/2000/svg">
<path d="M33.1928 13.3805C32.5461 12.5638 32.7311 12.2004 33.1928 11.4704C33.2012 11.4621 38.5397 4.08514 39.0897 1.58339L39.093 1.58172C39.3664 0.670023 39.093 0 37.7713 0H33.3978C32.2845 0 31.7711 0.57502 31.4961 1.21838C31.4961 1.21838 29.2693 6.54856 26.1192 10.0037C25.1025 11.002 24.6325 11.3221 24.0775 11.3221C23.8042 11.3221 23.3791 11.002 23.3791 10.0904V1.58172C23.3791 0.48835 23.0675 0 22.1458 0H15.2689C14.5705 0 14.1555 0.510018 14.1555 0.985034C14.1555 2.02174 15.7305 2.26008 15.8939 5.17685V11.5054C15.8939 12.8921 15.6422 13.1471 15.0839 13.1471C13.5971 13.1471 9.98868 7.79527 7.85027 1.67006C7.41859 0.481683 6.99691 0.0016666 5.8752 0.0016666H1.50005C0.251675 0.0016666 0 0.576687 0 1.22004C0 2.35675 1.48672 8.00861 6.91357 15.4755C10.5304 20.5724 15.6239 23.3341 20.2574 23.3341C23.0425 23.3341 23.3825 22.7208 23.3825 21.6658C23.3825 16.7956 23.1308 16.3356 24.5259 16.3356C25.1725 16.3356 26.2859 16.6556 28.886 19.114C31.8578 22.0291 32.3461 23.3341 34.0095 23.3341H38.383C39.6297 23.3341 40.2614 22.7208 39.898 21.5107C39.0664 18.9657 33.4462 13.7305 33.1928 13.3805Z" fill="#4B729F"/>
</svg>
