<svg width="40" height="40" viewBox="0 0 40 40" fill="none" xmlns="http://www.w3.org/2000/svg">
<path d="M20.005 0H19.995C8.9675 0 0 8.97 0 20C0 24.375 1.41 28.43 3.8075 31.7225L1.315 39.1525L9.0025 36.695C12.165 38.79 15.9375 40 20.005 40C31.0325 40 40 31.0275 40 20C40 8.9725 31.0325 0 20.005 0Z" fill="#4CAF50"/>
<path d="M31.6424 28.2427C31.1599 29.6052 29.2449 30.7352 27.7174 31.0652C26.6724 31.2877 25.3074 31.4652 20.7124 29.5602C14.8349 27.1252 11.0499 21.1527 10.7549 20.7652C10.4724 20.3777 8.37988 17.6027 8.37988 14.7327C8.37988 11.8627 9.83738 10.4652 10.4249 9.86521C10.9074 9.37271 11.7049 9.14771 12.4699 9.14771C12.7174 9.14771 12.9399 9.16021 13.1399 9.17021C13.7274 9.19521 14.0224 9.23021 14.4099 10.1577C14.8924 11.3202 16.0674 14.1902 16.2074 14.4852C16.3499 14.7802 16.4924 15.1802 16.2924 15.5677C16.1049 15.9677 15.9399 16.1452 15.6449 16.4852C15.3499 16.8252 15.0699 17.0852 14.7749 17.4502C14.5049 17.7677 14.1999 18.1077 14.5399 18.6952C14.8799 19.2702 16.0549 21.1877 17.7849 22.7277C20.0174 24.7152 21.8274 25.3502 22.4749 25.6202C22.9574 25.8202 23.5324 25.7727 23.8849 25.3977C24.3324 24.9152 24.8849 24.1152 25.4474 23.3277C25.8474 22.7627 26.3524 22.6927 26.8824 22.8927C27.4224 23.0802 30.2799 24.4927 30.8674 24.7852C31.4549 25.0802 31.8424 25.2202 31.9849 25.4677C32.1249 25.7152 32.1249 26.8777 31.6424 28.2427Z" fill="#FAFAFA"/>
</svg>
